<?xml version="1.0" standalone="no"?>
<!DOCTYPE svg PUBLIC "-//W3C//DTD SVG 20010904//EN"
 "http://www.w3.org/TR/2001/REC-SVG-20010904/DTD/svg10.dtd">
<svg version="1.0" xmlns="http://www.w3.org/2000/svg"
 width="920.000000pt" height="1153.000000pt" viewBox="0 0 920.000000 1153.000000"
 preserveAspectRatio="xMidYMid meet">

<g transform="translate(0.000000,1153.000000) scale(0.100000,-0.100000)"
fill="#000000" stroke="none">
<path d="M5045 11095 c-180 -13 -216 -17 -310 -34 -27 -4 -84 -14 -125 -20
-41 -6 -91 -16 -110 -21 -19 -5 -87 -21 -150 -36 -197 -44 -223 -51 -300 -77
-41 -13 -95 -31 -120 -38 -25 -7 -94 -32 -155 -56 -60 -24 -113 -43 -117 -43
-4 0 -31 -11 -60 -24 -29 -13 -91 -41 -138 -62 -220 -99 -449 -226 -670 -373
-80 -53 -149 -98 -154 -100 -5 -2 -20 -13 -33 -25 -14 -11 -44 -34 -68 -51
-55 -39 -260 -212 -349 -295 -92 -86 -322 -322 -377 -386 -118 -138 -179 -213
-179 -222 0 -5 -10 -17 -21 -28 -36 -32 -248 -347 -331 -491 -223 -387 -390
-795 -492 -1203 -26 -102 -51 -201 -56 -220 -23 -93 -53 -304 -89 -632 -14
-127 -14 -605 0 -733 46 -427 60 -514 126 -785 40 -166 152 -527 187 -605 16
-35 22 -48 72 -170 73 -176 246 -499 375 -698 179 -277 452 -611 675 -827 552
-534 1204 -924 1924 -1152 201 -64 283 -84 505 -127 88 -17 183 -35 210 -41
175 -34 356 -45 735 -45 468 1 579 11 990 96 205 42 520 132 659 189 25 10 78
30 116 45 131 50 417 187 540 260 33 19 78 45 100 56 38 21 361 234 398 262
16 13 24 37 11 37 -3 0 -38 -11 -78 -24 -83 -28 -211 -62 -306 -81 -36 -7 -99
-20 -140 -28 -157 -33 -302 -49 -508 -56 -372 -13 -700 7 -932 56 -41 8 -104
21 -140 28 -167 34 -466 126 -640 197 -412 170 -807 410 -1092 663 -49 44
-103 91 -120 105 -70 56 -275 270 -364 380 -16 19 -32 37 -35 40 -7 5 -178
235 -220 295 -75 109 -226 370 -286 495 -43 91 -73 158 -94 216 -12 32 -25 64
-29 69 -11 13 -112 319 -139 415 -11 41 -27 111 -36 155 -9 44 -20 96 -25 115
-14 57 -38 206 -56 345 -20 157 -23 677 -5 825 24 198 49 354 74 460 8 36 23
97 32 136 30 136 111 382 170 519 7 17 26 62 41 100 129 319 410 761 659 1040
77 86 287 300 350 356 77 68 270 225 320 259 104 72 292 193 345 223 86 48
361 186 430 216 30 13 69 29 85 36 41 18 242 88 345 120 81 25 126 36 285 71
39 9 88 20 110 25 215 51 720 80 1035 61 178 -12 397 -36 470 -52 279 -63 456
-110 525 -140 11 -5 49 -19 85 -31 36 -12 84 -30 108 -40 50 -22 52 -22 52
-10 0 5 -41 42 -92 82 -152 122 -228 177 -393 287 -315 209 -768 426 -1098
526 -62 19 -125 40 -142 46 -79 30 -434 108 -640 140 -265 42 -816 59 -1130
35z"/>
</g>
</svg>
