<?xml version="1.0" standalone="no"?>
<!DOCTYPE svg PUBLIC "-//W3C//DTD SVG 20010904//EN"
 "http://www.w3.org/TR/2001/REC-SVG-20010904/DTD/svg10.dtd">
<svg version="1.0" xmlns="http://www.w3.org/2000/svg"
 width="800.000000pt" height="307.000000pt" viewBox="0 0 800.000000 307.000000"
 preserveAspectRatio="xMidYMid meet">

<g transform="translate(0.000000,307.000000) scale(0.100000,-0.100000)"
fill="#000000" stroke="none">
<path d="M1875 3008 c-5 -46 -12 -67 -28 -79 -11 -9 -22 -25 -24 -35 -13 -71
-13 -111 -1 -134 11 -22 20 -26 63 -26 73 0 84 27 63 159 -2 10 -13 26 -25 35
-17 13 -23 31 -27 75 -2 32 -7 61 -9 63 -3 3 -8 -23 -12 -58z"/>
<path d="M1850 2694 c0 -8 5 -12 10 -9 6 4 8 11 5 16 -9 14 -15 11 -15 -7z"/>
<path d="M1905 2701 c-3 -5 -1 -12 5 -16 5 -3 10 1 10 9 0 18 -6 21 -15 7z"/>
<path d="M1939 2662 c5 -34 6 -35 9 -8 2 16 0 32 -5 37 -5 5 -7 -7 -4 -29z"/>
<path d="M1848 2629 c-2 -22 0 -43 4 -45 4 -3 8 15 8 40 0 57 -7 60 -12 5z"/>
<path d="M1911 2654 c0 -11 3 -14 6 -6 3 7 2 16 -1 19 -3 4 -6 -2 -5 -13z"/>
<path d="M1910 2577 c0 -26 4 -47 9 -47 9 0 6 78 -3 88 -3 3 -6 -16 -6 -41z"/>
<path d="M1846 2551 c-4 -7 -5 -15 -2 -18 9 -9 19 4 14 18 -4 11 -6 11 -12 0z"/>
<path d="M1948 2553 c-2 -5 -1 -28 3 -53 l6 -45 1 53 c2 48 -2 63 -10 45z"/>
<path d="M1810 2539 c0 -5 5 -7 10 -4 6 3 10 8 10 11 0 2 -4 4 -10 4 -5 0 -10
-5 -10 -11z"/>
<path d="M1875 2425 c0 -69 3 -125 6 -125 4 0 3 -15 -1 -34 -4 -19 -5 -46 -3
-60 3 -14 0 -32 -6 -40 -8 -10 -9 -16 -1 -21 13 -8 13 -58 -1 -72 -8 -8 -8
-13 0 -17 15 -10 14 -76 -1 -76 -9 0 -9 -3 0 -12 14 -14 17 -82 3 -74 -10 7
-9 -20 2 -30 12 -12 8 -83 -5 -91 -7 -4 -13 -19 -14 -32 -1 -22 0 -23 13 -6
11 17 13 13 13 -35 0 -50 -1 -52 -15 -34 -14 17 -14 17 -9 1 6 -15 2 -18 -17
-15 -21 3 -24 9 -27 53 -2 46 -1 48 11 27 12 -21 13 -21 13 17 -1 21 -4 37 -8
34 -12 -7 -9 72 3 84 6 6 7 13 2 16 -6 4 -8 20 -5 36 3 20 8 28 16 24 6 -4 5
1 -3 10 -7 9 -9 17 -4 17 5 0 10 7 10 15 0 8 -4 12 -9 9 -4 -3 -8 8 -8 25 0
16 5 33 10 36 8 5 7 12 -2 23 -7 9 -8 13 -3 10 7 -4 10 17 9 60 -2 37 2 72 7
79 7 7 6 13 -1 18 -5 3 -10 16 -11 28 -1 18 -2 16 -10 -8 -4 -16 -6 -39 -3
-52 4 -13 3 -31 -1 -40 -13 -29 -14 -44 -4 -37 10 6 2 -41 -10 -61 -9 -17 -10
-35 0 -29 16 9 10 -43 -7 -57 -12 -10 -13 -14 -2 -20 20 -11 11 -89 -10 -89
-13 0 -13 -2 3 -13 14 -11 16 -21 11 -50 -4 -20 -14 -40 -22 -45 -15 -8 -15
-10 0 -15 32 -13 12 -107 -24 -107 -23 0 -25 10 -7 30 10 12 9 12 -4 2 -9 -6
-19 -9 -22 -5 -4 3 -7 -1 -7 -10 0 -10 -11 -19 -26 -23 -34 -9 -42 -35 -30
-94 9 -45 6 -59 -53 -231 -35 -101 -68 -192 -73 -201 -6 -12 -20 -18 -43 -18
-18 0 -36 -4 -39 -8 -2 -4 -8 -44 -11 -87 -7 -90 9 -58 -209 -399 l-121 -189
-3 126 c-2 102 -5 127 -17 127 -8 0 -19 8 -25 18 -8 12 -13 13 -16 5 -3 -7
-21 -13 -40 -13 l-34 0 0 -65 c0 -51 -3 -65 -15 -65 -12 0 -15 18 -15 100 0
76 -3 102 -14 106 -17 7 -410 -21 -425 -30 -6 -4 -11 -38 -11 -82 l0 -74 -34
-17 c-24 -11 -36 -24 -39 -42 -3 -17 -5 -12 -6 15 -1 32 -7 45 -26 58 l-25 16
0 245 c0 231 -1 247 -22 290 l-22 45 -89 0 -90 0 5 -290 c3 -160 2 -290 -3
-290 -4 0 -37 13 -74 30 -37 16 -69 30 -71 30 -2 0 -4 -149 -4 -332 l0 -331
1433 6 c787 4 2587 10 4000 14 l2567 6 0 275 0 274 -26 -5 c-27 -5 -30 -1 -38
53 -9 65 -28 115 -57 152 -16 20 -29 42 -29 47 0 20 -38 11 -43 -9 -6 -22 -33
-26 -57 -9 -13 9 -13 10 1 6 13 -4 15 -1 12 14 -3 10 -9 19 -14 19 -5 0 -9 5
-9 11 0 5 5 7 10 4 14 -9 12 8 -2 24 -9 9 -9 12 -1 7 12 -6 10 2 -25 104 -8
24 -35 65 -59 91 -24 25 -43 56 -43 68 0 18 -6 21 -36 21 -28 0 -35 -3 -30
-15 3 -9 -12 -35 -41 -67 -42 -48 -82 -117 -83 -145 0 -6 -5 -24 -12 -40 -18
-44 -17 -52 3 -50 10 1 19 5 19 10 0 5 8 6 19 2 12 -4 21 0 25 12 6 14 9 15
16 4 7 -12 11 -11 26 3 13 14 19 15 25 4 6 -9 0 -15 -24 -21 -77 -21 -115 -39
-127 -62 -10 -19 -16 -22 -27 -14 -7 6 -13 18 -13 25 0 8 -9 14 -20 14 -11 0
-20 -5 -20 -11 0 -5 -13 -27 -29 -47 -33 -43 -65 -132 -47 -132 8 0 7 -3 -1
-8 -6 -4 -13 -21 -15 -37 -1 -17 -7 -29 -13 -29 -5 1 -27 5 -47 8 l-38 7 0
-79 c0 -62 -3 -81 -15 -86 -8 -3 -15 -11 -15 -19 0 -18 -92 -45 -119 -35 -19
6 -21 16 -21 78 l0 70 -38 0 c-21 0 -44 6 -51 13 -10 10 -14 9 -22 -5 -6 -10
-17 -18 -24 -18 -9 0 -15 -10 -15 -25 0 -22 -4 -25 -35 -25 -29 0 -37 -5 -45
-25 -7 -18 -17 -25 -35 -25 -20 0 -25 5 -25 25 0 14 -4 25 -10 25 -5 0 -18 10
-30 22 -11 12 -20 16 -20 10 0 -8 -17 -12 -45 -12 l-45 0 0 -85 c0 -50 -4 -85
-10 -85 -5 0 -10 25 -10 55 0 53 -1 55 -27 56 l-28 1 25 9 c16 6 -11 7 -80 5
-73 -3 -93 -1 -65 4 22 5 65 9 95 9 l55 1 -3 65 c-2 42 1 71 8 80 9 11 9 15 1
15 -6 0 -11 9 -11 19 0 11 -8 22 -17 24 -17 4 -17 5 0 6 26 2 21 21 -6 21 -41
0 -46 33 -52 303 -3 138 -8 302 -11 363 l-6 111 -31 17 c-22 11 -25 14 -9 10
20 -5 23 -3 20 18 -2 15 -11 24 -25 26 -20 3 -23 -1 -23 -27 0 -37 -29 -44
-32 -8 -3 39 -15 -342 -17 -520 l-1 -171 39 5 c65 9 86 -1 86 -39 l0 -33 -60
0 -61 0 3 30 c2 29 2 29 -6 5 -7 -18 -9 -4 -10 55 -1 131 -23 315 -38 315 -22
0 -35 -39 -28 -83 l7 -42 -26 35 c-22 28 -35 36 -71 40 -36 5 -45 3 -45 -10 0
-8 -9 -42 -19 -75 l-19 -60 -3 50 c-2 28 -4 64 -5 80 -3 52 -4 55 -19 55 -13
0 -20 -28 -17 -61 10 -85 19 -235 15 -242 -7 -12 -33 27 -60 92 -12 31 -23 50
-23 43 0 -9 -21 -12 -74 -11 l-74 1 -6 51 c-4 28 -11 56 -15 62 -13 16 -20 55
-11 55 5 0 11 -10 13 -22 3 -18 5 -16 6 8 2 52 -18 94 -44 94 -25 0 -34 -25
-41 -110 -2 -25 -5 -67 -8 -95 l-4 -50 -71 -2 c-49 -1 -71 2 -72 10 0 7 -11
-10 -23 -38 -13 -27 -31 -59 -40 -70 -15 -19 -16 -15 -11 65 3 47 8 103 11
125 5 48 -18 91 -35 65 -6 -8 -8 -24 -5 -35 2 -11 0 -40 -4 -65 l-9 -45 -13
62 c-8 35 -17 58 -21 52 -4 -7 -21 -10 -38 -7 -27 4 -34 0 -47 -24 -18 -36
-25 -36 -18 0 4 20 0 33 -15 46 -11 10 -24 15 -29 12 -5 -3 -13 -41 -17 -83
-8 -87 -16 -110 -25 -73 -9 38 -28 30 -61 -25 l-31 -50 6 52 c4 39 1 53 -10
57 -11 4 -14 29 -14 116 0 60 -4 110 -8 110 -5 0 -9 13 -9 29 0 35 -37 81 -46
57 -5 -11 -26 -16 -87 -18 l-82 -3 -14 -40 c-8 -23 -14 -80 -14 -132 l0 -93
-29 0 c-27 0 -30 4 -34 38 l-4 37 -1 -37 c-2 -35 -4 -38 -32 -38 l-30 0 0 93
c0 52 -6 109 -14 132 l-14 40 -82 3 c-61 2 -82 7 -87 18 -9 23 -45 -21 -47
-56 -1 -16 -5 -32 -9 -36 -4 -4 -7 -54 -7 -111 0 -77 -3 -105 -13 -109 -10 -4
-13 -24 -9 -86 3 -44 0 -110 -6 -147 -6 -36 -14 -96 -17 -134 -8 -79 -25 -80
-25 -1 0 53 0 54 -29 54 -42 0 -81 -17 -81 -35 0 -8 -8 -15 -17 -15 -10 0 -30
-6 -44 -13 -16 -9 -33 -11 -47 -6 -20 7 -22 16 -22 74 l0 65 -39 0 c-22 0 -42
6 -45 13 -3 8 -8 7 -16 -5 -6 -10 -18 -18 -25 -18 -9 0 -15 -10 -15 -25 0 -21
-5 -25 -27 -25 -55 0 -73 -10 -73 -41 0 -25 -3 -27 -22 -20 -29 10 -39 49 -38
140 1 74 -6 90 -37 91 -9 0 -13 -18 -11 -62 l1 -63 7 60 7 60 3 -65 3 -65 7
60 7 60 1 -64 c2 -54 0 -62 -14 -57 -9 3 -21 6 -27 6 -9 0 -11 20 -7 67 5 65
6 68 30 66 19 -1 26 4 27 17 2 24 -43 40 -121 41 -34 1 -53 3 -44 6 9 2 19 14
21 26 l4 22 8 -23 c9 -26 32 -29 38 -4 4 16 5 16 6 0 1 -21 21 -24 21 -4 0 8
6 17 13 20 9 5 9 7 -1 12 -6 3 -10 9 -7 13 2 4 -1 25 -6 47 -11 38 -65 98
-104 114 -18 8 -19 9 -1 9 12 1 16 6 12 17 -3 9 -6 18 -6 20 0 2 -9 4 -20 4
-12 0 -20 7 -20 18 0 14 2 15 10 2 9 -13 10 -13 10 0 0 13 1 13 10 0 8 -12 10
-9 10 12 0 15 -5 30 -11 33 -6 4 -14 17 -19 29 l-9 21 0 -21 c-1 -12 -8 -27
-16 -34 -12 -10 -13 -16 -4 -27 9 -10 9 -20 0 -40 -10 -21 -9 -28 1 -34 10 -7
10 -9 0 -9 -6 0 -32 -20 -56 -45 -42 -42 -66 -101 -66 -160 0 -22 40 -19 41 3
0 13 2 14 6 2 3 -8 11 -18 17 -22 6 -4 -3 -8 -20 -8 -46 0 -96 -20 -90 -36 3
-7 0 -15 -7 -18 -7 -2 4 -3 23 0 28 3 30 2 10 -4 -24 -8 -25 -12 -31 -116 -5
-89 -10 -110 -24 -119 -14 -8 -15 -11 -4 -18 10 -6 11 -9 2 -9 -7 0 -13 -11
-13 -25 l0 -25 250 -3 250 -3 -252 1 -253 0 -1 45 c0 43 -2 45 -32 48 -21 2
-32 9 -32 19 0 28 -40 50 -79 44 -36 -6 -36 -7 -39 -61 -4 -70 -19 -84 -67
-62 -34 16 -35 18 -35 74 0 45 3 58 15 58 8 0 15 5 15 10 0 6 -7 10 -15 10
-11 0 -15 11 -15 35 0 33 -2 35 -20 25 -11 -6 -20 -7 -20 -3 0 10 -131 10
-148 -1 -7 -4 -12 -2 -12 4 0 8 -6 8 -20 0 -11 -6 -20 -7 -20 -3 0 12 -54 10
-62 -2 -6 -7 -10 -7 -15 0 -5 6 -38 10 -75 10 l-68 0 0 -32 c0 -26 -4 -33 -20
-33 -11 0 -20 -4 -20 -10 0 -5 9 -10 20 -10 18 0 20 -7 20 -82 0 -47 -4 -78
-9 -72 -14 15 -103 152 -183 279 -72 116 -75 123 -82 199 -4 44 -9 83 -12 88
-3 4 -21 8 -39 8 -41 0 -40 -3 -122 243 -54 161 -56 171 -45 213 14 53 5 79
-33 88 -21 5 -25 13 -26 44 -2 31 -3 32 -6 9 -4 -25 -7 -27 -21 -16 -14 11
-15 11 -4 -1 17 -20 15 -30 -8 -30 -21 0 -40 34 -40 72 0 18 2 19 18 7 15 -13
16 -12 3 4 -8 9 -11 20 -8 24 4 3 0 15 -8 27 -17 24 -20 72 -5 81 7 4 7 11 2
18 -12 16 -23 73 -15 81 11 10 12 37 2 30 -5 -3 -9 8 -9 25 0 16 4 32 9 36 6
3 4 17 -5 33 -16 31 -19 56 -5 48 10 -7 8 9 -4 37 -4 9 -5 27 -1 40 3 12 3 33
-1 45 l-6 23 -12 -23 c-6 -13 -8 -28 -4 -33 4 -6 7 -45 7 -88 -1 -42 1 -80 5
-84 10 -9 9 -73 -1 -73 -4 0 -8 -9 -8 -19 0 -11 4 -17 8 -15 4 3 8 -8 8 -25 0
-16 -5 -33 -11 -37 -8 -5 -6 -10 5 -16 11 -6 16 -22 16 -49 0 -22 -4 -38 -9
-35 -5 4 -8 -2 -6 -11 2 -10 4 -22 4 -26 1 -5 6 -5 11 -2 6 4 10 -13 10 -44 0
-48 -1 -51 -26 -51 -20 0 -25 4 -20 16 5 14 4 15 -9 4 -13 -11 -15 -6 -15 36
0 42 1 46 13 29 13 -17 14 -16 13 6 -1 13 -7 28 -13 32 -16 10 -17 79 -1 95 9
9 9 12 0 12 -16 0 -16 72 0 88 9 9 9 12 0 12 -15 0 -16 66 -2 75 6 4 7 12 3
18 -5 7 -9 107 -10 222 -2 261 -1 255 -10 255 -5 0 -8 -56 -8 -125z m205 -835
c0 -6 -72 -10 -195 -10 -123 0 -195 4 -195 10 0 6 72 10 195 10 123 0 195 -4
195 -10z m-360 -160 c0 -5 -4 -10 -9 -10 -6 0 -13 5 -16 10 -3 6 1 10 9 10 9
0 16 -4 16 -10z m48 2 c9 -7 8 -13 -8 -27 -11 -10 -23 -15 -27 -12 -4 4 2 14
13 23 17 14 17 15 1 10 -11 -3 -16 -2 -12 4 7 12 16 12 33 2z m253 -1 c-11 -7
-10 -11 5 -19 10 -6 16 -14 11 -18 -4 -4 -16 1 -27 11 -16 14 -17 20 -8 27 7
4 18 8 23 8 6 0 4 -4 -4 -9z m66 1 c21 -14 32 -56 17 -70 -18 -16 -34 -15 -34
3 0 9 6 12 18 9 15 -5 15 -4 -2 10 -10 8 -16 22 -13 30 4 10 1 13 -9 9 -7 -3
-14 0 -14 6 0 13 19 14 37 3z m-387 -32 c0 -4 -11 -12 -25 -18 -25 -12 -25
-13 -10 34 4 13 8 14 20 4 8 -7 15 -16 15 -20z m106 -15 c-4 -14 -10 -25 -15
-25 -5 0 -4 16 2 36 12 39 23 29 13 -11z m173 -8 c1 -10 -3 -15 -9 -12 -5 3
-10 21 -9 38 0 27 2 29 9 12 5 -11 9 -28 9 -38z m-135 31 c-6 -10 -5 -10 7 -1
8 6 34 12 57 11 35 0 42 -4 42 -20 0 -18 -2 -19 -17 -7 -10 7 -8 2 5 -12 12
-14 22 -33 22 -42 0 -9 5 -16 12 -14 16 3 36 -65 20 -71 -7 -2 -11 -13 -11
-25 1 -17 2 -18 6 -4 7 27 19 20 31 -19 12 -41 6 -75 -10 -52 -6 8 -7 0 -3
-24 l6 -38 -121 0 c-74 0 -120 4 -120 10 0 33 52 266 63 279 9 12 9 13 0 7 -9
-5 -13 0 -13 13 0 12 7 21 16 21 9 0 12 -5 8 -12z m-74 -28 c0 -5 -5 -10 -11
-10 -5 0 -7 5 -4 10 3 6 8 10 11 10 2 0 4 -4 4 -10z m245 0 c3 -5 1 -10 -4
-10 -6 0 -11 5 -11 10 0 6 2 10 4 10 3 0 8 -4 11 -10z m-315 -15 c0 -8 -7 -15
-15 -15 -26 0 -18 20 13 29 1 1 2 -6 2 -14z m0 -29 c0 -11 -19 -15 -25 -6 -3
5 1 10 9 10 9 0 16 -2 16 -4z m30 0 c0 -3 -4 -8 -10 -11 -5 -3 -10 -1 -10 4 0
6 5 11 10 11 6 0 10 -2 10 -4z m330 -6 c0 -5 -8 -7 -17 -3 -16 6 -16 4 1 -15
17 -20 18 -22 2 -22 -9 0 -15 -4 -11 -9 3 -5 0 -13 -6 -16 -6 -5 -10 0 -8 11
2 11 -2 28 -8 39 -10 18 -8 20 18 22 16 1 29 -2 29 -7z m40 6 c0 -11 -19 -15
-25 -6 -3 5 1 10 9 10 9 0 16 -2 16 -4z m-431 -20 c9 -11 6 -18 -18 -35 l-29
-21 11 35 c11 38 18 42 36 21z m91 6 c0 -11 -41 -34 -48 -28 -3 4 3 13 14 21
21 16 34 19 34 7z m33 -24 c-6 -33 -23 -63 -23 -41 0 27 13 73 21 73 5 0 6
-15 2 -32z m344 -3 c10 -31 9 -34 -5 -25 -45 25 -46 28 -33 44 20 23 26 20 38
-19z m-387 -21 c0 -8 -5 -12 -10 -9 -6 4 -8 11 -5 16 9 14 15 11 15 -7z m-70
-9 c0 -9 -9 -15 -22 -15 -21 0 -21 0 -2 15 24 18 24 18 24 0z m449 -12 c2 -2
-5 -3 -17 -3 -14 0 -22 6 -22 16 0 14 3 15 18 3 9 -7 19 -15 21 -16z m-459
-17 c0 -2 -3 -12 -6 -20 -5 -13 -9 -14 -20 -5 -20 16 -17 29 6 29 11 0 20 -2
20 -4z m105 -28 c-13 -65 -17 -73 -26 -56 -5 8 -4 31 2 51 13 46 33 50 24 5z
m365 23 c0 -13 -26 -32 -33 -24 -14 13 -6 33 13 33 11 0 20 -4 20 -9z m-523
-53 c-28 -22 -33 -16 -17 22 12 28 14 29 26 13 11 -16 10 -20 -9 -35z m560
-14 c-2 -2 -13 3 -25 12 -18 13 -20 18 -9 35 11 19 13 18 25 -12 7 -17 11 -33
9 -35z m-447 46 c0 -5 -2 -10 -4 -10 -3 0 -8 5 -11 10 -3 6 -1 10 4 10 6 0 11
-4 11 -10z m320 -4 c0 -9 7 -12 20 -9 24 6 26 -13 5 -41 -14 -19 -15 -19 -21
0 -3 10 -10 29 -15 42 -5 14 -5 22 1 22 6 0 10 -6 10 -14z m-334 -21 c4 -8 3
-22 0 -31 -5 -13 -9 -14 -21 -4 -8 7 -15 21 -15 31 0 23 28 25 36 4z m-66 -25
c0 -16 -7 -20 -32 -20 l-33 0 30 19 c17 11 31 20 33 20 1 1 2 -8 2 -19z m502
0 l33 -20 -31 0 c-23 0 -33 5 -37 20 -6 25 -5 25 35 0z m2363 -20 c4 -17 3
-59 0 -95 -6 -54 -5 -65 7 -65 17 0 28 58 28 141 0 37 4 49 15 49 12 0 15 -18
15 -100 l0 -100 -50 0 -50 0 0 93 c0 52 3 97 7 100 13 14 22 6 28 -23z m389
14 c3 -9 6 -51 6 -95 0 -63 3 -79 15 -79 11 0 15 19 17 92 2 62 7 93 16 96 9
3 12 -21 12 -97 l0 -101 -50 0 -50 0 0 84 c0 85 5 116 20 116 4 0 11 -7 14
-16z m-3270 -32 c2 -4 1 -14 -4 -22 -8 -13 -13 -11 -32 8 l-22 22 26 0 c15 0
29 -4 32 -8z m531 -12 c-19 -21 -35 -18 -35 6 0 9 10 14 27 14 25 0 26 -1 8
-20z m3512 -37 c-3 -10 -5 -2 -5 17 0 19 2 27 5 18 2 -10 2 -26 0 -35z m20 10
c-3 -10 -5 -4 -5 12 0 17 2 24 5 18 2 -7 2 -21 0 -30z m-4112 17 c3 -5 1 -10
-4 -10 -6 0 -11 5 -11 10 0 6 2 10 4 10 3 0 8 -4 11 -10z m110 0 c-3 -5 -11
-10 -16 -10 -6 0 -7 5 -4 10 3 6 11 10 16 10 6 0 7 -4 4 -10z m55 0 c0 -5 -5
-10 -11 -10 -5 0 -7 5 -4 10 3 6 8 10 11 10 2 0 4 -4 4 -10z m285 0 c3 -5 1
-10 -4 -10 -6 0 -11 5 -11 10 0 6 2 10 4 10 3 0 8 -4 11 -10z m65 -6 c0 -2 -7
-4 -15 -4 -8 0 -15 4 -15 10 0 5 7 7 15 4 8 -4 15 -8 15 -10z m100 6 c0 -5 -4
-10 -10 -10 -5 0 -10 5 -10 10 0 6 5 10 10 10 6 0 10 -4 10 -10z m95 -40 c-4
-6 -152 -10 -410 -10 -258 0 -406 4 -410 10 -4 7 135 10 410 10 275 0 414 -3
410 -10z m1312 -72 c-2 -13 -4 -3 -4 22 0 25 2 35 4 23 2 -13 2 -33 0 -45z
m-2048 3 c11 -7 9 -10 -9 -16 -15 -5 -28 -2 -38 9 -15 15 -14 16 8 16 14 0 31
-4 39 -9z m699 -7 c-10 -10 -23 -14 -37 -9 -30 9 -16 25 22 25 29 0 30 -1 15
-16z m-749 -18 c10 -12 8 -17 -8 -25 -28 -15 -31 -14 -31 14 0 28 21 33 39 11z
m201 -6 c0 -24 -13 -26 -30 -5 -7 8 -18 15 -24 15 -6 0 3 -11 19 -25 l30 -24
-28 -1 c-29 0 -43 19 -33 45 3 9 18 15 36 15 23 0 30 -4 30 -20z m80 0 c0 -11
-4 -20 -8 -20 -5 0 -17 9 -27 20 -18 20 -17 20 8 20 20 0 27 -5 27 -20z m90 0
c0 -11 -3 -20 -6 -20 -3 0 -17 9 -31 20 l-26 20 32 0 c24 0 31 -4 31 -20z m41
0 c-13 -11 -18 -20 -13 -20 6 0 14 5 17 10 10 17 25 11 25 -10 0 -25 -45 -28
-54 -4 -12 32 -6 44 22 44 l27 -1 -24 -19z m94 0 c-10 -11 -22 -20 -27 -20 -4
0 -8 9 -8 20 0 15 7 20 27 20 25 0 26 0 8 -20z m82 0 c-14 -11 -28 -20 -31
-20 -3 0 -6 9 -6 20 0 16 7 20 31 20 l32 0 -26 -20z m203 -5 c0 -28 -3 -29
-31 -14 -16 8 -18 13 -8 25 18 22 39 17 39 -11z m-726 0 c-4 -8 -10 -12 -15
-9 -11 6 -2 24 11 24 5 0 7 -7 4 -15z m637 2 c-1 -12 -15 -9 -19 4 -3 6 1 10
8 8 6 -3 11 -8 11 -12z m-446 -17 c18 -20 17 -20 -8 -20 -20 0 -27 5 -27 20 0
11 4 20 8 20 5 0 17 -9 27 -20z m90 0 c18 -19 17 -20 -7 -20 -30 0 -38 7 -31
26 7 19 17 18 38 -6z m185 0 c0 -15 -7 -20 -27 -20 -25 0 -26 0 -8 20 10 11
22 20 27 20 4 0 8 -9 8 -20z m88 3 c-2 -11 -14 -19 -33 -21 -30 -4 -30 -4 -11
17 23 26 49 28 44 4z m3999 -5 c-3 -8 -6 -5 -6 6 -1 11 2 17 5 13 3 -3 4 -12
1 -19z m-4575 -20 c-9 -3 -28 -7 -42 -7 l-25 -1 24 19 c20 15 28 17 43 8 17
-11 17 -12 0 -19z m724 -6 c-3 -2 -22 -1 -43 3 -35 6 -36 8 -19 20 16 12 22
12 42 -2 14 -9 22 -18 20 -21z m1285 -2 c10 0 19 7 19 15 0 8 5 15 10 15 6 0
10 -9 10 -20 0 -17 -7 -20 -39 -20 -36 0 -39 2 -33 23 5 18 7 19 10 5 2 -10
12 -18 23 -18z m4042 3 c-13 -2 -35 -2 -50 0 -16 2 -5 4 22 4 28 0 40 -2 28
-4z m-5905 -30 c-2 -22 -9 -29 -30 -31 -23 -3 -28 1 -28 18 0 20 1 20 28 4 26
-16 26 -16 -3 9 l-30 26 33 1 c31 0 33 -2 30 -27z m90 1 c2 -14 -5 -24 -24
-33 -34 -15 -49 -2 -40 34 5 21 12 26 34 23 18 -2 28 -10 30 -24z m80 -1 c-2
-22 -9 -29 -30 -31 -20 -2 -28 1 -28 12 0 30 13 46 37 46 21 0 24 -4 21 -27z
m86 11 c13 -33 7 -45 -21 -42 -22 2 -29 9 -31 31 -3 23 0 27 21 27 14 0 28 -7
31 -16z m92 -10 c9 -35 -6 -48 -39 -33 -42 19 -35 59 9 59 17 0 25 -7 30 -26z
m78 10 c13 -33 7 -45 -21 -42 -22 2 -29 9 -31 31 -3 23 0 27 21 27 14 0 28 -7
31 -16z m2567 -24 l6 -35 2 40 c1 30 4 36 11 25 5 -8 10 -10 10 -4 0 6 15 10
33 9 30 -2 32 -4 32 -38 l1 -37 -63 0 -63 0 0 40 c0 50 22 50 31 0z m2816 34
c-3 -3 -12 -4 -19 -1 -8 3 -5 6 6 6 11 1 17 -2 13 -5z m176 -1 c-7 -2 -21 -2
-30 0 -10 3 -4 5 12 5 17 0 24 -2 18 -5z m-6120 -23 c-5 -18 -7 -19 -37 -3
-44 22 -44 23 1 23 36 0 40 -2 36 -20z m687 1 c-25 -14 -37 -16 -42 -8 -14 22
-8 27 35 27 l42 -1 -35 -18z m5200 4 c-14 -8 -29 -14 -35 -14 -5 0 1 6 15 14
14 8 30 14 35 14 6 0 -1 -6 -15 -14z m150 0 c0 -8 -7 -15 -15 -15 -8 0 -15 7
-15 15 0 8 7 15 15 15 8 0 15 -7 15 -15z m127 9 c-3 -3 -12 -4 -19 -1 -8 3 -5
6 6 6 11 1 17 -2 13 -5z m-6247 -46 c0 -4 -11 -8 -25 -8 -23 0 -24 2 -13 26
11 24 13 25 25 8 7 -10 13 -21 13 -26z m6173 30 c4 -10 8 -9 16 2 8 12 11 12
17 -3 4 -12 13 -16 25 -12 11 4 19 2 19 -5 0 -8 -15 -9 -47 -5 -62 8 -73 12
-73 25 0 14 37 12 43 -2z m-6133 -13 c36 -19 38 -25 5 -25 -14 0 -29 8 -35 20
-13 24 -8 25 30 5z m754 -9 c-5 -14 -54 -24 -54 -11 0 5 54 34 58 31 1 -2 0
-11 -4 -20z m56 4 c9 -18 8 -20 -15 -20 -27 0 -28 1 -19 24 8 22 21 20 34 -4z
m1223 3 c-13 -2 -35 -2 -50 0 -16 2 -5 4 22 4 28 0 40 -2 28 -4z m150 0 c-7
-2 -21 -2 -30 0 -10 3 -4 5 12 5 17 0 24 -2 18 -5z m-276 -9 c-3 -3 -12 -4
-19 -1 -8 3 -5 6 6 6 11 1 17 -2 13 -5z m93 -18 c8 -10 9 -33 5 -70 -5 -41 -4
-56 5 -56 8 0 11 20 8 70 l-3 70 33 0 32 0 0 -70 c0 -40 -4 -70 -10 -70 -6 0
-10 28 -10 65 0 39 -4 65 -10 65 -7 0 -10 -25 -8 -67 3 -66 4 -68 30 -71 27
-3 27 -3 30 70 3 71 4 73 31 76 l27 3 2 -73 2 -73 3 63 c5 81 23 80 23 -2 l0
-63 -59 -6 c-32 -2 -79 -3 -105 0 l-46 6 0 68 c0 56 -3 68 -17 72 -14 4 -14 5
3 6 12 0 27 -6 34 -13z m197 8 c-3 -3 -12 -4 -19 -1 -8 3 -5 6 6 6 11 1 17 -2
13 -5z m-2211 -52 c-3 -2 -21 2 -42 10 l-37 13 29 6 c19 4 33 1 41 -9 7 -9 11
-17 9 -20z m29 28 c-3 -5 -10 -10 -16 -10 -5 0 -9 5 -9 10 0 6 7 10 16 10 8 0
12 -4 9 -10z m294 1 c22 -6 22 -7 -11 -22 -32 -16 -35 -15 -56 1 -12 10 -22
21 -22 24 0 8 58 6 89 -3z m182 -15 c-23 -24 -24 -24 -58 -8 -34 16 -34 17
-12 23 13 4 39 7 58 8 l34 1 -22 -24z m249 14 c0 -5 -4 -10 -9 -10 -6 0 -13 5
-16 10 -3 6 1 10 9 10 9 0 16 -4 16 -10z m46 -18 c-40 -16 -56 -11 -38 11 7 8
24 12 44 9 l32 -5 -38 -15z m1154 -37 c0 -37 -4 -65 -10 -65 -11 0 -14 113 -3
123 12 13 13 7 13 -58z m30 0 c0 -37 -4 -65 -10 -65 -6 0 -10 28 -10 65 0 37
4 65 10 65 6 0 10 -28 10 -65z m4027 59 c-3 -3 -12 -4 -19 -1 -8 3 -5 6 6 6
11 1 17 -2 13 -5z m166 -1 c-7 -2 -21 -2 -30 0 -10 3 -4 5 12 5 17 0 24 -2 18
-5z m-6023 -33 c0 -4 -12 -11 -27 -17 -28 -11 -28 -11 5 -6 35 6 39 -1 20 -42
-13 -29 -13 -29 -57 -6 -32 17 -33 19 -15 29 10 6 16 12 11 12 -4 0 -1 13 8
30 14 26 18 28 35 18 11 -7 20 -15 20 -18z m30 15 c0 -8 -4 -15 -9 -15 -5 0
-14 7 -21 15 -10 13 -9 15 9 15 12 0 21 -6 21 -15z m475 -15 c9 -16 12 -30 8
-30 -4 0 2 -7 13 -15 10 -8 16 -15 13 -15 -4 0 -22 -7 -41 -14 l-35 -15 -17
36 -17 36 38 -6 c34 -5 35 -4 13 6 -36 16 -36 16 -14 32 24 18 21 20 39 -15z
m1265 -35 c0 -51 -3 -65 -15 -65 -12 0 -15 13 -13 63 l1 62 7 -60 7 -60 1 63
c3 82 12 80 12 -3z m4039 61 c-10 -9 -69 -36 -69 -32 0 7 52 35 64 36 5 0 7
-2 5 -4z m-5719 -48 c0 -4 -9 -8 -20 -8 -20 0 -28 29 -13 44 7 7 33 -21 33
-36z m310 5 c0 -7 -9 -13 -20 -13 -22 0 -26 20 -8 38 13 13 28 -1 28 -25z
m-630 -15 c0 -4 -11 -8 -25 -8 -28 0 -30 3 -14 32 11 21 12 21 25 3 8 -10 14
-22 14 -27z m51 4 c-22 -4 -51 13 -51 29 0 5 16 1 37 -9 31 -15 33 -17 14 -20z
m849 13 c-7 -8 -24 -15 -39 -15 -25 1 -25 1 9 20 39 20 50 19 30 -5z m60 -17
c0 -5 -11 -8 -25 -8 -28 0 -29 3 -14 31 10 20 11 20 24 2 8 -10 15 -21 15 -25z
m3317 20 c-3 -8 -6 -5 -6 6 -1 11 2 17 5 13 3 -3 4 -12 1 -19z m-3827 -18 l0
-30 -42 22 -43 22 30 7 c52 12 55 10 55 -21z m87 15 c2 -1 -15 -12 -37 -24
l-40 -22 0 31 c0 30 1 31 38 24 20 -4 38 -8 39 -9z m3666 -38 c73 -1 -12 -3
-188 -3 -176 0 -238 2 -137 3 l182 3 1 28 2 27 4 -27 4 -27 132 -4z m2007 -19
c0 -15 5 -28 10 -28 6 0 10 16 10 36 0 53 24 37 28 -19 3 -39 7 -47 30 -56 15
-5 21 -10 13 -10 -8 -1 -34 10 -58 24 -32 19 -43 32 -43 50 0 13 -10 31 -21
39 -19 13 -24 13 -45 -1 -15 -10 -24 -25 -24 -42 0 -19 -10 -33 -37 -51 -63
-42 -64 -42 -61 -28 2 10 -18 13 -89 13 -62 0 -85 3 -70 8 12 5 61 7 110 4 48
-2 90 -1 93 4 3 5 0 9 -6 9 -6 0 -13 8 -17 18 -3 9 -13 25 -20 34 -18 21 -8
44 12 28 10 -8 14 -7 18 2 10 25 26 -13 20 -49 -4 -21 -2 -33 6 -33 6 0 11 18
11 46 0 38 3 45 16 40 9 -3 25 1 36 9 31 21 78 -8 78 -47z m-2852 25 c44 -59
-33 -133 -93 -89 -34 25 -30 91 8 105 30 11 69 4 85 -16z m-2944 -16 c18 -14
17 -15 -17 -19 -35 -4 -37 -2 -37 24 0 31 8 30 54 -5z m134 -22 c-2 -2 -19 0
-38 4 l-34 7 35 21 34 22 3 -25 c2 -14 2 -27 0 -29z m5763 12 c-8 -8 -11 -5
-11 9 0 27 14 41 18 19 2 -9 -1 -22 -7 -28z m-5981 8 c0 -30 -7 -31 -37 -6
-30 25 -29 31 7 31 25 0 30 -4 30 -25z m310 19 c0 -8 -43 -43 -52 -44 -5 0 -8
11 -8 25 0 21 5 25 30 25 17 0 30 -3 30 -6z m3043 -1 c-7 -2 -21 -2 -30 0 -10
3 -4 5 12 5 17 0 24 -2 18 -5z m784 1 c-3 -3 -12 -4 -19 -1 -8 3 -5 6 6 6 11
1 17 -2 13 -5z m215 -1 c-40 -2 -103 -2 -140 0 -37 2 -4 3 73 3 77 0 107 -2
67 -3z m-4654 -23 c14 -23 12 -24 -40 -8 -26 8 -35 14 -26 20 23 14 53 9 66
-12z m32 16 c0 -11 -19 -15 -25 -6 -3 5 1 10 9 10 9 0 16 -2 16 -4z m820 0 c0
-11 -19 -15 -25 -6 -3 5 1 10 9 10 9 0 16 -2 16 -4z m68 -4 c9 -6 0 -12 -26
-20 -52 -16 -54 -15 -40 8 13 21 43 26 66 12z m5220 -33 c2 -19 1 -21 -7 -9
-8 11 -11 4 -12 -30 l-1 -45 -9 35 c-10 42 -3 83 14 77 7 -2 13 -14 15 -28z
m-5968 -23 c-1 -6 -7 -22 -14 -35 l-14 -25 -15 30 c-8 16 -18 39 -21 52 l-7
22 35 -17 c20 -9 36 -21 36 -27z m74 -7 c-21 -9 -41 -15 -42 -13 -2 1 4 16 14
32 17 29 18 30 42 14 l25 -16 -39 -17z m406 -11 c0 -3 -19 1 -41 10 l-41 16
22 18 c23 18 23 18 41 -9 11 -15 19 -31 19 -35z m77 7 l-24 -47 -13 31 c-7 17
-11 33 -9 35 10 9 64 34 67 31 2 -2 -7 -24 -21 -50z m4048 16 c-8 -17 -18 -31
-21 -31 -3 0 -3 4 0 9 3 4 10 21 16 36 6 15 13 25 16 22 3 -3 -2 -19 -11 -36z
m-4865 -11 c-8 -5 -23 -10 -33 -10 -16 0 -17 1 -1 26 16 23 18 24 33 9 14 -14
14 -17 1 -25z m70 9 c0 -17 -39 -9 -50 11 -9 18 -8 18 20 9 16 -6 30 -15 30
-20z m938 11 c-13 -20 -38 -26 -52 -13 -6 6 24 21 62 32 1 1 -3 -8 -10 -19z
m62 -22 c0 -12 -38 -10 -45 2 -4 6 -1 18 6 26 12 14 14 14 26 -2 7 -10 13 -21
13 -26z m2070 -9 c0 -33 3 -40 18 -37 11 2 19 15 22 41 7 54 24 51 28 -5 l3
-48 -50 0 -51 0 0 43 c0 24 3 47 6 50 14 13 24 -6 24 -44z m404 35 c3 -9 6
-27 6 -40 0 -40 28 -29 32 13 4 54 25 53 30 -2 l3 -45 -52 0 -53 0 0 38 c0 50
20 72 34 36z m-4034 -4 c0 -5 -5 -10 -11 -10 -5 0 -7 5 -4 10 3 6 8 10 11 10
2 0 4 -4 4 -10z m693 -35 c18 -38 10 -44 -28 -19 -20 13 -23 20 -14 35 14 27
23 24 42 -16z m477 8 c25 -11 61 -37 81 -57 42 -42 93 -131 86 -149 -3 -7 -6
-5 -6 6 -1 22 -51 24 -51 2 0 -11 -12 -15 -50 -15 -49 0 -50 1 -50 30 l0 30
-60 0 c-53 0 -60 2 -60 20 0 18 -7 20 -65 20 -51 0 -65 3 -65 15 0 9 -9 15
-25 15 -16 0 -25 -6 -25 -15 0 -8 -7 -15 -15 -15 -12 0 -15 -16 -15 -80 0 -73
-2 -80 -20 -80 -11 0 -20 7 -20 15 0 9 -9 15 -25 15 -16 0 -25 -6 -25 -15 0
-22 -27 -18 -33 5 -4 14 -14 20 -36 20 l-30 0 19 45 c69 160 163 218 345 212
75 -2 111 -8 145 -24z m188 7 c10 -17 8 -21 -18 -35 -40 -21 -42 -20 -23 20
19 40 24 42 41 15z m3642 10 c-13 -9 -13 -11 0 -20 10 -6 11 -10 3 -10 -8 0
-14 -17 -15 -47 l-2 -48 -5 50 -5 50 -6 -50 -7 -50 -1 61 c-2 66 1 74 32 74
17 0 18 -2 6 -10z m93 3 c-7 -2 -19 -2 -25 0 -7 3 -2 5 12 5 14 0 19 -2 13 -5z
m-5160 -10 c-13 -2 -35 -2 -50 0 -16 2 -5 4 22 4 28 0 40 -2 28 -4z m4610 0
c-21 -4 -23 -10 -21 -61 l1 -57 7 55 7 55 1 -52 c2 -45 5 -52 25 -56 13 -3 8
-5 -15 -6 l-38 -1 0 65 c0 65 0 65 28 64 23 -2 24 -2 5 -6z m89 -55 l1 -63 7
65 7 65 1 -67 c2 -66 1 -68 -23 -68 -14 0 -25 5 -25 11 0 5 5 7 10 4 6 -4 10
15 10 49 0 34 -5 56 -12 59 -8 3 -6 6 5 6 14 1 17 -9 19 -61z m85 56 c-3 -3
-12 -4 -19 -1 -8 3 -5 6 6 6 11 1 17 -2 13 -5z m20 -86 c-2 -18 -4 -4 -4 32 0
36 2 50 4 33 2 -18 2 -48 0 -65z m71 30 l-2 -63 -3 55 c-3 30 -10 58 -16 62
-8 5 -6 8 6 8 15 0 17 -9 15 -62z m19 -30 c-2 -18 -4 -4 -4 32 0 36 2 50 4 33
2 -18 2 -48 0 -65z m86 85 c-7 -2 -21 -2 -30 0 -10 3 -4 5 12 5 17 0 24 -2 18
-5z m-5173 -7 c0 -3 -4 -8 -10 -11 -5 -3 -10 -1 -10 4 0 6 5 11 10 11 6 0 10
-2 10 -4z m43 -3 c-7 -2 -19 -2 -25 0 -7 3 -2 5 12 5 14 0 19 -2 13 -5z m2894
1 c-3 -3 -12 -4 -19 -1 -8 3 -5 6 6 6 11 1 17 -2 13 -5z m100 0 c-3 -3 -12 -4
-19 -1 -8 3 -5 6 6 6 11 1 17 -2 13 -5z m-2212 -14 c-3 -5 -10 -10 -16 -10 -5
0 -9 5 -9 10 0 6 7 10 16 10 8 0 12 -4 9 -10z m905 0 c0 -5 -4 -10 -9 -10 -6
0 -13 5 -16 10 -3 6 1 10 9 10 9 0 16 -4 16 -10z m3623 3 c-7 -2 -19 -2 -25 0
-7 3 -2 5 12 5 14 0 19 -2 13 -5z m1870 0 c-18 -2 -48 -2 -65 0 -18 2 -4 4 32
4 36 0 50 -2 33 -4z m-7198 -23 c10 -11 16 -20 13 -20 -3 0 -13 9 -23 20 -10
11 -16 20 -13 20 3 0 13 -9 23 -20z m769 4 c5 -14 1 -15 -31 -9 -55 10 -65 25
-16 25 28 0 43 -5 47 -16z m1021 7 c-6 -5 -27 -13 -48 -16 -32 -6 -36 -5 -31
9 4 11 19 16 47 16 25 0 37 -4 32 -9z m3760 -13 c-1 -13 2 -28 7 -35 9 -12 6
-15 -24 -26 -14 -5 -18 -1 -18 16 0 18 2 19 10 7 8 -13 10 -12 10 3 0 9 -6 17
-12 18 -10 0 -10 2 0 6 6 2 12 11 12 19 0 8 4 14 8 14 5 0 8 -10 7 -22z m1718
15 c-7 -2 -19 -2 -25 0 -7 3 -2 5 12 5 14 0 19 -2 13 -5z m-1826 -25 c-3 -8
-6 -5 -6 6 -1 11 2 17 5 13 3 -3 4 -12 1 -19z m20 -15 c-3 -10 -5 -4 -5 12 0
17 2 24 5 18 2 -7 2 -21 0 -30z m-4557 -4 c0 -4 -14 -12 -30 -19 -40 -17 -33
-23 9 -9 18 6 34 9 37 6 3 -3 -2 -21 -10 -41 l-15 -37 -37 16 c-20 8 -38 15
-39 15 -2 0 8 23 21 50 22 46 26 49 44 38 11 -7 20 -16 20 -19z m740 -33 c0
-3 -18 3 -40 12 l-39 17 21 17 c21 16 23 15 40 -13 10 -16 18 -31 18 -33z
m3030 24 c0 -36 -2 -40 -25 -40 -17 0 -25 5 -25 18 0 15 2 15 11 2 8 -12 10
-9 6 13 -2 15 -1 27 4 27 4 0 10 -12 12 -27 4 -27 4 -26 6 4 1 22 -4 33 -16
36 -14 4 -12 5 5 6 19 1 22 -4 22 -39z m457 3 c-3 -10 -5 -4 -5 12 0 17 2 24
5 18 2 -7 2 -21 0 -30z m196 30 c-7 -2 -19 -2 -25 0 -7 3 -2 5 12 5 14 0 19
-2 13 -5z m-4633 -43 c0 -9 -61 -22 -68 -15 -3 2 3 16 12 31 17 25 18 25 37 8
10 -9 19 -20 19 -24z m50 8 c-14 -5 -28 -4 -36 3 -25 20 -15 27 22 16 33 -10
34 -12 14 -19z m1029 7 c-9 -9 -23 -12 -39 -8 -23 6 -23 7 10 18 40 14 50 11
29 -10z m81 -27 c0 -9 -58 -2 -69 8 -2 2 4 13 15 25 l19 21 17 -22 c10 -12 18
-27 18 -32z m2718 -11 c12 -3 10 -5 -5 -6 -20 -1 -23 3 -21 37 1 36 1 36 5 5
3 -19 11 -34 21 -36z m2124 38 l5 30 2 -32 c1 -27 -3 -33 -19 -33 -14 0 -20 7
-20 23 0 36 14 43 21 10 l6 -28 5 30z m485 -22 c-3 -10 -5 -2 -5 17 0 19 2 27
5 18 2 -10 2 -26 0 -35z m33 11 c0 -13 -4 -24 -10 -24 -5 0 -10 14 -10 31 0
17 4 28 10 24 6 -3 10 -17 10 -31z m-6980 -104 c0 -72 -2 -130 -5 -130 -4 0
-18 6 -33 14 -44 22 -104 27 -126 11 -11 -8 -23 -15 -28 -15 -4 0 -8 54 -8
120 0 102 2 120 16 120 8 0 12 -4 9 -10 -3 -5 -1 -10 4 -10 6 0 11 4 11 9 0
13 26 19 98 20 l62 1 0 -130z m5533 123 c-29 -2 -78 -2 -110 0 -32 2 -8 3 52
3 61 0 87 -1 58 -3z m877 -18 c0 -18 -5 -25 -20 -25 -15 0 -20 7 -20 25 0 18
5 25 20 25 15 0 20 -7 20 -25z m120 -5 c0 -22 -4 -28 -15 -24 -8 4 -15 17 -15
30 0 15 6 24 15 24 10 0 15 -10 15 -30z m510 5 c0 -18 -5 -25 -20 -25 -15 0
-20 7 -20 25 0 18 5 25 20 25 15 0 20 -7 20 -25z m-4079 -13 c-7 -2 -18 1 -23
6 -8 8 -4 9 13 5 13 -4 18 -8 10 -11z m-1571 -13 l45 -21 -25 -13 c-55 -28
-65 -27 -78 8 -7 18 -12 36 -12 40 0 12 24 7 70 -14z m-870 1 c0 -5 -4 -10 -9
-10 -6 0 -13 5 -16 10 -3 6 1 10 9 10 9 0 16 -4 16 -10z m990 1 c0 -17 -18
-21 -24 -6 -3 9 0 15 9 15 8 0 15 -4 15 -9z m485 -3 c25 -11 25 -13 25 -125
l0 -113 -60 0 c-75 0 -80 8 -80 135 0 90 1 96 23 105 31 12 62 12 92 -2z
m3103 5 c-10 -2 -26 -2 -35 0 -10 3 -2 5 17 5 19 0 27 -2 18 -5z m125 0 c-7
-2 -21 -2 -30 0 -10 3 -4 5 12 5 17 0 24 -2 18 -5z m-4733 -24 c16 -30 9 -32
-46 -16 -29 9 -43 17 -34 20 61 21 67 21 80 -4z m1114 3 c5 -3 -12 -12 -38
-19 -55 -16 -62 -13 -46 17 9 18 17 20 43 14 18 -3 36 -9 41 -12z m5116 -53
c0 -66 -24 -62 -28 4 -2 37 0 47 12 47 12 0 16 -12 16 -51z m-6337 7 c16 -24
16 -24 -18 -28 -19 -2 -35 -3 -35 -1 0 10 25 53 30 53 4 0 15 -11 23 -24z m72
8 c26 -6 27 -8 10 -15 -34 -13 -50 -10 -63 12 -12 18 -11 20 5 15 10 -3 31 -8
48 -12z m195 -30 c0 -22 -12 -44 -24 -44 -11 0 -56 68 -56 83 0 3 18 -2 40
-10 22 -9 40 -22 40 -29z m775 7 c-11 -22 -23 -31 -40 -31 -41 0 -32 35 13 53
20 8 38 14 40 12 2 -2 -4 -17 -13 -34z m178 18 c-17 -17 -27 -20 -50 -14 l-28
8 40 13 c57 18 62 17 38 -7z m77 -30 c0 -7 -57 -2 -67 6 -2 0 5 12 14 25 l16
23 19 -23 c10 -12 18 -26 18 -31z m4783 34 c-7 -2 -19 -2 -25 0 -7 3 -2 5 12
5 14 0 19 -2 13 -5z m558 -19 c20 -18 39 -94 39 -154 l0 -40 -356 0 -357 0 7
78 c6 75 25 120 55 130 7 2 1 -7 -13 -22 -14 -14 -26 -34 -26 -46 0 -17 6 -20
43 -20 33 1 38 3 25 11 -22 12 -23 32 -2 49 12 11 18 10 32 -4 14 -13 14 -20
4 -36 -11 -19 -10 -20 23 -20 30 0 35 3 35 24 0 15 -11 33 -26 45 -15 12 -22
21 -17 21 21 0 53 -42 53 -70 l0 -29 -87 -3 -88 -3 -3 -47 c-3 -45 -2 -48 22
-48 19 0 25 6 28 26 7 57 69 57 76 0 3 -24 7 -26 47 -26 42 0 44 1 47 33 3 28
6 32 33 32 27 0 30 -4 33 -32 4 -37 22 -45 22 -10 0 33 15 49 41 45 19 -2 25
-10 27 -35 4 -43 20 -43 24 0 3 28 6 32 33 32 27 0 30 -4 33 -32 3 -32 5 -33
48 -33 39 0 44 2 44 23 0 27 17 47 42 47 20 0 42 -35 34 -56 -4 -10 3 -14 24
-14 27 0 30 3 30 34 0 63 -4 66 -99 68 -67 1 -76 2 -41 7 28 4 40 9 33 14 -18
12 -16 44 3 51 19 7 44 -10 44 -30 0 -7 -8 -18 -17 -23 -14 -8 -9 -10 26 -11
42 0 43 1 36 28 -8 35 -22 48 -65 61 l-35 11 34 -5 c19 -3 43 -12 52 -21z
m-2193 -61 l3 -73 -31 0 -30 0 0 68 c0 75 4 84 35 80 18 -3 20 -11 23 -75z
m2084 61 c-13 -9 -27 -26 -32 -38 -7 -17 -9 -17 -9 -3 -1 19 33 57 51 57 7 0
2 -7 -10 -16z m-6307 -72 c-6 -6 -75 19 -75 27 0 3 7 17 16 30 l16 23 23 -39
c13 -21 22 -39 20 -41z m860 48 c9 -17 11 -30 5 -30 -5 0 -10 5 -10 10 0 6 -9
10 -20 10 -18 0 -19 2 -8 20 7 11 14 20 15 20 1 0 9 -13 18 -30z m5165 -16 c0
-19 -4 -34 -9 -34 -11 0 -21 49 -14 67 9 23 23 3 23 -33z m180 0 c0 -19 -4
-34 -10 -34 -5 0 -10 18 -10 41 0 24 4 38 10 34 6 -3 10 -22 10 -41z m-2412
24 c7 -7 12 -38 12 -70 l0 -58 -45 0 -45 0 0 54 c0 36 5 60 16 70 18 19 45 21
62 4z m152 -28 c0 -36 -2 -40 -25 -40 -17 0 -25 5 -25 18 0 15 2 15 11 2 8
-12 10 -9 6 13 -3 20 0 27 12 28 12 0 11 2 -4 9 -19 8 -19 9 3 9 19 1 22 -4
22 -39z m90 0 c0 -43 1 -43 49 -34 34 7 45 43 14 45 -15 1 -14 2 2 7 l20 5
-20 8 c-19 7 -19 8 3 8 21 1 23 -3 20 -41 l-3 -43 -44 -3 c-25 -2 -55 -1 -68
3 -19 4 -21 8 -11 19 10 10 15 11 20 2 5 -6 8 -2 8 12 0 14 -6 22 -17 23 -15
1 -14 2 2 7 l20 5 -20 8 c-19 7 -19 8 3 8 19 1 22 -4 22 -39z m250 28 c0 6 5
12 11 12 5 0 7 -4 4 -10 -3 -5 -1 -10 4 -10 6 0 11 -11 11 -25 0 -20 5 -25 25
-25 20 0 25 5 25 25 0 20 5 25 23 24 16 -1 18 -2 5 -6 -11 -3 -18 -14 -17 -26
0 -21 1 -21 9 -2 7 17 9 17 9 3 1 -15 10 -18 51 -18 43 0 50 3 50 20 0 11 -5
19 -11 17 -6 -1 -13 6 -14 16 -4 21 2 22 21 3 8 -8 14 -26 14 -41 l0 -26 -117
3 -118 3 -3 40 c-2 30 0 36 8 25 6 -10 10 -11 10 -2z m113 5 c-7 -2 -19 -2
-25 0 -7 3 -2 5 12 5 14 0 19 -2 13 -5z m285 1 c15 -4 22 -14 22 -30 0 -12 5
-26 12 -30 6 -4 8 -3 5 3 -9 14 23 27 35 15 5 -5 -9 -17 -32 -27 -36 -16 -45
-26 -41 -47 0 -5 -2 -9 -6 -9 -66 -10 -63 -12 -63 50 0 74 14 89 68 75z
m-4815 -24 c-4 -16 -8 -18 -19 -9 -20 16 -17 29 5 29 14 0 18 -5 14 -20z
m1097 11 c0 -5 -6 -14 -14 -20 -11 -9 -15 -7 -19 9 -4 15 0 20 14 20 10 0 19
-4 19 -9z m1379 -83 c-1 -62 -4 -85 -9 -68 -14 44 -10 160 6 160 2 0 4 -42 3
-92z m-2515 60 c9 -12 14 -23 12 -26 -4 -3 -79 14 -106 25 -10 4 -3 9 20 13
56 12 58 11 74 -12z m1226 12 c36 0 13 -15 -44 -29 -56 -14 -66 -9 -40 20 12
13 26 18 39 15 11 -3 31 -6 45 -6z m840 -80 c0 -47 -4 -80 -10 -80 -11 0 -14
142 -3 153 12 13 13 7 13 -73z m-780 13 c0 -16 -6 -23 -18 -23 -29 0 -32 10
-16 43 12 23 18 27 25 16 5 -8 9 -24 9 -36z m-1392 12 c13 -27 10 -30 -36 -40
-33 -7 -33 -6 -22 17 29 54 42 60 58 23z m80 -6 c-13 -9 -58 -12 -58 -5 0 2
-3 11 -6 19 -5 13 1 14 36 5 29 -8 37 -13 28 -19z m152 17 l32 -13 -41 -17
c-57 -22 -64 -20 -46 14 18 35 14 34 55 16z m944 -18 l19 -31 -24 6 c-13 4
-27 7 -31 7 -10 0 -10 34 -1 43 11 12 18 8 37 -25z m160 8 c-4 -9 -17 -16 -33
-16 -44 0 -46 14 -4 26 44 13 46 13 37 -10z m863 -58 c-2 -18 -4 -6 -4 27 0
33 2 48 4 33 2 -15 2 -42 0 -60z m-1919 25 c-2 -14 -15 -19 -53 -20 l-50 -3
45 19 c58 24 62 25 58 4z m3244 -25 l1 -43 4 43 c6 57 33 59 33 2 l0 -40 65 0
65 0 0 35 c0 51 29 48 32 -2 l1 -38 4 38 c6 53 33 51 33 -3 l0 -40 -245 0
-245 0 0 40 c0 29 4 40 15 40 10 0 15 -11 15 -35 0 -19 5 -35 10 -35 6 0 10
16 10 35 0 24 5 35 15 35 10 0 15 -11 15 -35 l0 -35 70 0 70 0 0 40 c0 29 4
40 15 40 11 0 16 -12 17 -42z m1576 35 c-21 -2 -55 -2 -75 0 -21 2 -4 4 37 4
41 0 58 -2 38 -4z m160 0 c-10 -2 -28 -2 -40 0 -13 2 -5 4 17 4 22 1 32 -1 23
-4z m-5158 -13 c0 -15 -27 -23 -47 -16 -15 6 -15 8 -3 16 20 13 50 12 50 0z
m1187 4 c13 -4 20 -10 17 -15 -9 -15 -51 -10 -58 6 -6 16 5 18 41 9z m-117
-20 c0 -2 -9 -4 -20 -4 -11 0 -20 4 -20 9 0 5 9 7 20 4 11 -3 20 -7 20 -9z
m-1147 -1 c-7 -2 -19 -2 -25 0 -7 3 -2 5 12 5 14 0 19 -2 13 -5z m1330 0 c-7
-2 -19 -2 -25 0 -7 3 -2 5 12 5 14 0 19 -2 13 -5z m-1685 -20 c3 -10 -22 -13
-102 -13 -91 0 -105 2 -99 15 4 13 22 15 101 13 65 -2 97 -7 100 -15z"/>
<path d="M1972 1285 c0 -16 2 -22 5 -12 2 9 2 23 0 30 -3 6 -5 -1 -5 -18z"/>
<path d="M1991 1184 c0 -11 3 -14 6 -6 3 7 2 16 -1 19 -3 4 -6 -2 -5 -13z"/>
<path d="M1730 885 c0 -2 10 -10 23 -16 20 -11 21 -11 8 4 -13 16 -31 23 -31
12z"/>
<path d="M1820 885 c0 -2 10 -10 23 -16 20 -11 21 -11 8 4 -13 16 -31 23 -31
12z"/>
<path d="M1919 873 c-13 -15 -12 -15 9 -4 23 12 28 21 13 21 -5 0 -15 -7 -22
-17z"/>
<path d="M2009 873 c-13 -15 -12 -15 9 -4 23 12 28 21 13 21 -5 0 -15 -7 -22
-17z"/>
<path d="M2094 874 c-18 -14 -18 -15 4 -4 12 6 22 13 22 15 0 8 -5 6 -26 -11z"/>
<path d="M4712 860 c0 -14 2 -19 5 -12 2 6 2 18 0 25 -3 6 -5 1 -5 -13z"/>
<path d="M3641 793 c1 -80 17 -98 18 -20 1 38 -3 67 -9 67 -5 0 -10 -21 -9
-47z"/>
<path d="M4744 732 c4 -7 1 -12 -7 -12 -8 0 -17 -8 -19 -18 -4 -13 1 -17 18
-17 13 1 27 5 31 10 5 4 2 5 -6 0 -11 -6 -13 -3 -9 13 4 12 1 25 -4 29 -7 3
-8 1 -4 -5z"/>
<path d="M698 513 c7 -3 16 -2 19 1 4 3 -2 6 -13 5 -11 0 -14 -3 -6 -6z"/>
<path d="M698 433 c7 -3 16 -2 19 1 4 3 -2 6 -13 5 -11 0 -14 -3 -6 -6z"/>
<path d="M5412 430 c0 -14 2 -19 5 -12 2 6 2 18 0 25 -3 6 -5 1 -5 -13z"/>
<path d="M5762 430 c0 -14 2 -19 5 -12 2 6 2 18 0 25 -3 6 -5 1 -5 -13z"/>
<path d="M5782 430 c0 -14 2 -19 5 -12 2 6 2 18 0 25 -3 6 -5 1 -5 -13z"/>
<path d="M1840 2496 c0 -9 5 -16 10 -16 6 0 10 4 10 9 0 6 -4 13 -10 16 -5 3
-10 -1 -10 -9z"/>
<path d="M1910 2490 c0 -5 5 -10 10 -10 6 0 10 5 10 10 0 6 -4 10 -10 10 -5 0
-10 -4 -10 -10z"/>
<path d="M1839 2454 c-1 -10 -1 -45 -1 -76 1 -33 -3 -58 -9 -58 -6 0 -7 -5 -4
-11 4 -5 12 -8 18 -6 11 3 14 153 3 164 -3 4 -7 -2 -7 -13z"/>
<path d="M1919 2457 c-4 -104 -1 -150 13 -158 10 -5 15 -4 15 6 0 8 -4 15 -8
15 -4 0 -7 31 -6 70 0 38 -3 73 -6 77 -4 3 -7 -1 -8 -10z"/>
<path d="M1950 2441 c0 -5 5 -13 10 -16 6 -3 10 -2 10 4 0 5 -4 13 -10 16 -5
3 -10 2 -10 -4z"/>
<path d="M1962 2380 c0 -14 2 -19 5 -12 2 6 2 18 0 25 -3 6 -5 1 -5 -13z"/>
<path d="M1966 2331 c-4 -5 -2 -20 3 -33 9 -21 10 -21 10 10 1 32 -3 39 -13
23z"/>
<path d="M1790 2309 c0 -5 5 -7 10 -4 6 3 10 8 10 11 0 2 -4 4 -10 4 -5 0 -10
-5 -10 -11z"/>
<path d="M1966 2241 c-4 -6 -2 -11 4 -11 8 0 11 -16 8 -50 -3 -30 -1 -47 5
-43 6 4 8 -9 3 -35 -4 -28 -3 -42 5 -42 8 0 9 24 4 83 -8 86 -17 118 -29 98z"/>
<path d="M1780 2157 c0 -9 4 -18 9 -21 5 -4 8 1 7 9 -3 21 -16 31 -16 12z"/>
<path d="M1770 2064 c0 -8 5 -12 10 -9 6 3 10 10 10 16 0 5 -4 9 -10 9 -5 0
-10 -7 -10 -16z"/>
<path d="M1999 2029 c-1 -13 -2 -36 -3 -51 -2 -15 1 -25 6 -22 4 3 8 -9 8 -26
0 -22 -4 -29 -12 -24 -10 6 -10 4 -2 -7 6 -8 10 -22 9 -32 -2 -9 0 -15 5 -12
14 9 19 -69 5 -81 -11 -8 -9 -13 7 -23 19 -12 20 -11 13 56 -4 37 -9 71 -12
76 -2 4 -6 42 -9 84 -4 75 -13 111 -15 62z"/>
<path d="M1767 1993 c-4 -3 -7 -13 -7 -21 0 -18 13 -7 16 13 2 17 1 18 -9 8z"/>
<path d="M1751 1924 c0 -11 3 -14 6 -6 3 7 2 16 -1 19 -3 4 -6 -2 -5 -13z"/>
<path d="M1752 1888 c-7 -7 -11 -28 -11 -47 2 -31 3 -32 6 -8 2 15 8 25 12 23
4 -3 7 6 7 20 0 13 0 24 -1 24 -1 0 -6 -5 -13 -12z"/>
<path d="M1786 1843 c-6 -14 -5 -15 5 -6 7 7 10 15 7 18 -3 3 -9 -2 -12 -12z"/>
<path d="M1926 1843 c-6 -14 -5 -15 5 -6 7 7 10 15 7 18 -3 3 -9 -2 -12 -12z"/>
<path d="M6303 1836 c19 -15 23 -41 7 -51 -5 -3 -10 -16 -9 -28 0 -21 1 -21
10 3 8 20 12 22 19 10 7 -11 10 -8 10 13 0 15 4 27 9 27 5 0 7 10 3 22 -3 12
-7 17 -9 11 -3 -9 -12 -9 -31 -2 -24 8 -25 8 -9 -5z"/>
<path d="M1730 1771 c0 -9 7 -24 14 -33 11 -15 13 -14 12 16 -1 19 -6 33 -13
33 -7 0 -13 -7 -13 -16z"/>
<path d="M1776 1733 c-6 -14 -5 -15 5 -6 7 7 10 15 7 18 -3 3 -9 -2 -12 -12z"/>
<path d="M6310 1705 c-6 -17 -16 -25 -24 -22 -10 4 -12 0 -8 -15 4 -16 2 -19
-8 -13 -10 6 -12 3 -7 -14 3 -14 -3 -31 -19 -50 -24 -29 -24 -61 1 -61 7 0 15
-5 17 -10 2 -7 14 -6 35 2 46 17 82 0 76 -39 -2 -15 6 -1 17 32 12 33 25 62
29 65 4 3 10 13 14 23 5 14 1 17 -28 17 -32 0 -35 2 -35 30 0 17 -4 30 -9 30
-5 0 -11 10 -13 22 -5 32 -26 34 -38 3z"/>
<path d="M1721 1704 c0 -11 3 -14 6 -6 3 7 2 16 -1 19 -3 4 -6 -2 -5 -13z"/>
<path d="M1826 1673 c-6 -14 -5 -15 5 -6 7 7 10 15 7 18 -3 3 -9 -2 -12 -12z"/>
<path d="M7573 1318 c-1 -13 -5 -39 -9 -59 -5 -34 -4 -37 21 -41 26 -5 27 -5
21 36 -4 22 -8 51 -9 64 -1 12 -6 22 -12 22 -5 0 -11 -10 -12 -22z m24 -74
c-3 -3 -12 -4 -19 -1 -8 3 -5 6 6 6 11 1 17 -2 13 -5z"/>
<path d="M3576 1322 c-2 -4 -1 -14 3 -21 6 -10 10 -9 14 3 6 16 -8 32 -17 18z"/>
<path d="M5677 1237 c-4 -10 3 -17 19 -20 19 -3 24 -1 22 12 -4 21 -34 26 -41
8z"/>
<path d="M7331 912 c-17 -32 -13 -52 9 -52 21 0 28 33 11 59 -7 11 -11 10 -20
-7z"/>
<path d="M7817 924 c-4 -4 -7 -26 -6 -48 0 -28 3 -35 8 -23 4 10 11 18 16 17
6 0 11 5 13 12 3 17 -21 51 -31 42z"/>
<path d="M6280 766 c0 -21 5 -24 45 -28 43 -3 45 -2 45 24 0 26 -3 28 -45 28
-41 0 -45 -2 -45 -24z"/>
</g>
</svg>
