<?xml version="1.0" standalone="no"?>
<!DOCTYPE svg PUBLIC "-//W3C//DTD SVG 20010904//EN"
 "http://www.w3.org/TR/2001/REC-SVG-20010904/DTD/svg10.dtd">
<svg version="1.0" xmlns="http://www.w3.org/2000/svg"
 width="1600.000000pt" height="1131.000000pt" viewBox="0 0 1600.000000 1131.000000"
 preserveAspectRatio="xMidYMid meet">

<g transform="translate(0.000000,1131.000000) scale(0.100000,-0.100000)"
fill="#000000" stroke="none">
<path d="M11107 11172 c-9 -64 -59 -413 -111 -775 l-95 -659 -171 -177 -170
-178 0 -2627 0 -2626 -140 0 -140 0 0 -295 0 -295 -77 0 -78 0 0 -207 0 -208
-147 -3 -148 -3 0 931 0 930 -140 0 -140 0 0 645 0 645 -145 0 -145 0 0 120 0
120 -205 0 -205 0 0 -95 0 -95 -105 0 -105 0 0 -625 0 -625 -125 0 -125 0 0
530 0 530 -180 0 -180 0 0 1260 0 1260 -320 0 -320 0 0 -80 0 -80 -160 0 -160
0 0 -320 0 -320 -375 0 -375 0 -2 -1482 -3 -1483 -192 -3 -193 -2 0 -340 0
-340 -135 0 -135 0 0 1600 0 1600 -480 0 -480 0 0 -1565 0 -1566 -102 3 -103
3 -3 2578 -2 2577 -545 0 -545 0 0 190 0 190 -647 -2 -648 -3 -3 -212 -2 -213
-100 0 -100 0 0 -80 0 -80 -80 0 -80 0 0 -1295 0 -1295 -140 0 -140 0 0 588 0
588 -317 215 c-175 119 -324 219 -330 223 -8 4 -170 -86 -408 -226 l-395 -233
0 -3887 0 -3888 7995 0 7995 0 0 4345 0 4345 -215 0 -215 0 0 -105 0 -104
-157 -3 -158 -3 -3 -292 -2 -293 -270 0 -270 0 -2 -917 -3 -918 -80 0 -80 0
-5 1748 -5 1748 -258 324 -258 325 -602 0 -602 -1 -332 -285 -333 -285 0
-2215 0 -2214 -192 2 -193 3 -3 2063 -2 2064 -178 226 c-97 124 -183 235 -191
245 -8 12 -66 324 -137 744 -67 399 -124 727 -126 729 -2 2 -11 -49 -21 -114z"/>
</g>
</svg>
