<?xml version="1.0" standalone="no"?>
<!DOCTYPE svg PUBLIC "-//W3C//DTD SVG 20010904//EN"
 "http://www.w3.org/TR/2001/REC-SVG-20010904/DTD/svg10.dtd">
<svg version="1.0" xmlns="http://www.w3.org/2000/svg"
 width="2400.000000pt" height="1639.000000pt" viewBox="0 0 2400.000000 1639.000000"
 preserveAspectRatio="xMidYMid meet">

<g transform="translate(0.000000,1639.000000) scale(0.100000,-0.100000)"
fill="#000000" stroke="none">
<path d="M2520 15605 l0 -785 -110 0 -110 0 0 -170 0 -170 -230 0 -230 0 0
-290 0 -290 -90 0 -90 0 -2 -582 -3 -583 -197 -3 -198 -2 0 -2975 0 -2975
-630 0 -630 0 0 -3390 0 -3390 12000 0 12000 0 -2 4058 -3 4057 -477 3 -478 2
0 548 1 547 -381 3 -380 2 0 1780 0 1780 -575 0 -575 0 0 -235 0 -235 -440 0
-440 0 0 -810 0 -810 -415 0 -415 0 0 -610 0 -610 -313 -2 -312 -3 0 -1608 0
-1607 -467 0 -468 0 0 2400 0 2400 120 0 120 0 0 215 0 215 -120 0 -120 0 0
290 0 290 -60 0 -60 0 0 305 0 304 -77 3 -78 3 -3 198 -2 197 -90 0 -90 0 0
325 0 325 -125 0 -125 0 0 720 0 720 -150 0 -150 0 0 -720 0 -720 -125 0 -125
0 0 -325 0 -325 -90 0 -90 0 -2 -197 -3 -198 -77 -3 -78 -3 0 -304 0 -305 -60
0 -60 0 0 -290 0 -289 -122 -3 -123 -3 -3 -212 -2 -213 125 0 125 0 0 -1535 0
-1535 -350 0 -350 0 -2 1733 -3 1732 -897 3 -898 2 0 -1360 0 -1360 -415 0
-415 0 0 490 0 490 -100 0 -100 0 0 1680 0 1680 -1010 0 -1010 0 -2 -2122 -3
-2123 -262 -3 -263 -2 0 -1340 0 -1340 -564 0 -563 0 -8 267 c-4 147 -4 954 0
1795 l8 1528 -307 0 -306 0 0 420 0 420 -260 0 -260 0 -2 453 -3 452 -312 3
-313 2 0 710 0 710 -815 0 -815 0 0 -710 0 -710 -375 0 -375 0 0 -885 0 -885
-337 2 -338 3 -3 1507 -2 1508 -198 2 -197 3 -3 583 -2 582 -90 0 -90 0 0 290
0 290 -230 0 -230 0 0 170 0 170 -105 0 -105 0 -2 783 -3 782 -167 3 -168 2 0
-785z m-32 -3467 l-3 -323 -182 -3 -183 -2 0 325 0 325 185 0 185 0 -2 -322z
m1162 -923 l0 -325 -182 2 -183 3 -3 310 c-1 170 0 315 3 322 3 10 49 13 185
13 l180 0 0 -325z m-1160 -245 l0 -320 -185 0 -185 0 0 320 0 320 185 0 185 0
0 -320z m9390 -830 l0 -320 -185 0 -185 0 0 323 0 322 185 -3 185 -3 0 -319z
m-8230 -90 l0 -320 -185 0 -185 0 0 320 0 320 185 0 185 0 0 -320z m8225
-1075 l0 -320 -182 -3 -183 -2 0 325 0 325 183 -2 182 -3 0 -320z m-8225 -90
l0 -325 -185 0 -185 0 0 318 c0 175 3 322 7 325 3 4 87 7 185 7 l178 0 0 -325z
m-1160 -525 l0 -320 -185 0 -185 0 0 320 0 320 185 0 185 0 0 -320z m3220 0
l0 -320 -185 0 -185 0 0 320 0 320 185 0 185 0 0 -320z m-3220 -1165 l0 -325
-185 0 -185 0 0 325 0 325 185 0 185 0 0 -325z m3220 0 l0 -325 -185 0 -185 0
0 325 0 325 185 0 185 0 0 -325z m2300 -30 l0 -325 -185 0 -185 0 0 325 0 325
185 0 185 0 0 -325z m-4382 199 l22 -6 0 -319 0 -319 -185 0 -185 0 0 318 c0
175 2 321 5 323 7 7 317 9 343 3z m-1138 -1334 l0 -320 -185 0 -185 0 0 320 0
320 185 0 185 0 0 -320z m3220 0 l0 -320 -185 0 -185 0 0 320 0 320 185 0 185
0 0 -320z m2300 -30 l0 -320 -185 0 -185 0 0 320 0 320 185 0 185 0 0 -320z
m7460 -30 l0 -320 -185 0 -185 0 0 320 0 320 185 0 185 0 0 -320z m-11820 -95
l0 -325 -182 2 -183 3 -3 323 -2 322 185 0 185 0 0 -325z m10038 -582 l2 -323
-185 0 -185 0 0 325 0 325 183 -2 182 -3 3 -322z m6290 0 l2 -323 -185 0 -185
0 0 325 0 325 183 -2 182 -3 3 -322z m857 2 l0 -320 -182 -3 -183 -2 0 325 0
325 183 -2 182 -3 0 -320z m-18347 -432 l2 -323 -185 0 -185 0 0 325 0 325
183 -2 182 -3 3 -322z m3222 2 l0 -325 -185 0 -185 0 0 325 0 325 185 0 185 0
0 -325z m14268 -492 l2 -323 -185 0 -185 0 0 325 0 325 183 -2 182 -3 3 -322z
m860 0 l2 -323 -185 0 -185 0 0 325 0 325 183 -2 182 -3 3 -322z m1162 2 l0
-325 -185 0 -185 0 0 318 c0 175 3 322 7 325 3 4 87 7 185 7 l178 0 0 -325z
m-10922 -33 l2 -322 -185 0 -185 0 0 320 0 320 168 2 c92 2 174 3 182 2 13 -1
15 -45 18 -322z m-4298 -457 l0 -325 -185 0 -185 0 0 318 c0 175 3 322 7 325
3 4 87 7 185 7 l178 0 0 -325z m8690 -95 l0 -320 -185 0 -185 0 0 320 0 320
185 0 185 0 0 -320z m4508 -367 l2 -323 -185 0 -185 0 0 325 0 324 183 -2 182
-2 3 -322z m860 0 l2 -323 -185 0 -185 0 0 326 0 325 183 -3 182 -3 3 -322z
m1162 2 l0 -325 -185 0 -185 0 0 318 c0 175 3 321 6 325 3 3 86 6 185 7 l179
1 0 -326z m-10922 -247 l-3 -323 -182 -3 -183 -2 0 325 0 325 185 0 185 0 -2
-322z m2607 -63 l0 -320 -182 -3 -183 -2 0 325 0 325 183 -2 182 -3 0 -320z"/>
</g>
</svg>
