<svg xmlns="http://www.w3.org/2000/svg" version="1.1" xmlns:xlink="http://www.w3.org/1999/xlink" xmlns:svgjs="http://svgjs.dev/svgjs" width="1000" height="623" viewBox="0 0 1000 623"><g transform="matrix(1,0,0,1,-0.6060606060606233,0.2522267206477409)"><svg viewBox="0 0 396 247" data-background-color="#ffffff" preserveAspectRatio="xMidYMid meet" height="623" width="1000" xmlns="http://www.w3.org/2000/svg" xmlns:xlink="http://www.w3.org/1999/xlink"><g id="tight-bounds" transform="matrix(1,0,0,1,0.2400000000000091,-0.09999999999999432)"><svg viewBox="0 0 395.52 247.2" height="247.2" width="395.52"><g><svg></svg></g><g><svg viewBox="0 0 395.52 247.2" height="247.2" width="395.52"><mask id="4438b80b-2916-44fd-951d-01a85d0352cf"><rect width="640" height="400" fill="white"></rect><g transform="matrix(1,0,0,1,39.55199999999999,42.28415177975769)"><svg viewBox="0 0 316.416 162.6316964404846" height="162.6316964404846" width="316.416"><g><svg viewBox="0 0 316.416 162.6316964404846" height="162.6316964404846" width="316.416"><g><svg viewBox="0 0 316.416 162.6316964404846" height="162.6316964404846" width="316.416"><g><svg viewBox="0 0 316.416 162.6316964404846" height="162.6316964404846" width="316.416"><g id="SvgjsG1221"><svg viewBox="0 0 316.416 162.6316964404846" height="162.6316964404846" width="316.416" id="SvgjsSvg1220"><g><svg viewBox="0 0 316.416 103.06121142857144" height="103.06121142857144" width="316.416"><g transform="matrix(1,0,0,1,0,0)"><svg width="316.416" viewBox="-3.65 -44.5 149.74 49.45" height="103.06121142857144" data-palette-color="#ffffff"><path d="M3.05 0.95L0.35 0.95 0.35-3.1Q2.2-3.1 3.35-3.35 4.5-3.6 5.13-4.25 5.75-4.9 6-6.13 6.25-7.35 6.25-9.25L6.25-9.25 6.25-40.5 11.85-40.5 11.85-9.15Q11.85-5.65 11.1-3.43 10.35-1.2 8.45-0.13 6.55 0.95 3.05 0.95L3.05 0.95ZM29 0L18.2 0 18.2-40.5 27.5-40.5Q30.25-40.5 32.27-39.9 34.3-39.3 35.65-38.05 37-36.8 37.65-34.88 38.3-32.95 38.3-30.35L38.3-30.35Q38.3-27.85 37.67-26.03 37.05-24.2 35.77-23.15 34.5-22.1 32.5-21.8L32.5-21.8Q34.95-21.25 36.45-19.93 37.95-18.6 38.67-16.53 39.4-14.45 39.4-11.55L39.4-11.55Q39.4-8.95 38.8-6.8 38.2-4.65 36.92-3.15 35.65-1.65 33.67-0.83 31.7 0 29 0L29 0ZM23.85-19.3L23.85-4.05 27.65-4.05Q31.45-4.05 32.72-5.83 34-7.6 34-11.55L34-11.55Q34-14.1 33.32-15.83 32.65-17.55 31.17-18.43 29.7-19.3 27.2-19.3L27.2-19.3 23.85-19.3ZM23.85-36.3L23.85-23.6 27.2-23.6Q29.6-23.6 30.95-24.28 32.3-24.95 32.85-26.45 33.4-27.95 33.4-30.35L33.4-30.35Q33.4-33.15 32.55-34.4 31.7-35.65 29.9-35.98 28.1-36.3 25.2-36.3L25.2-36.3 23.85-36.3ZM54.5 0L48.85 0 48.85-36.3 42-36.3 42-40.5 61.15-40.5 61.15-36.3 54.5-36.3 54.5 0ZM69.69 0L64.34 0 64.34-5.95 69.69-5.95 69.69 0ZM83.69 0L74.44 0 74.44-40.5 83.24-40.5Q87.74-40.5 90.37-39.13 92.99-37.75 94.12-35 95.24-32.25 95.24-28.15L95.24-28.15 95.24-13.25Q95.24-8.95 94.12-6 92.99-3.05 90.47-1.53 87.94 0 83.69 0L83.69 0ZM80.09-36.3L80.09-4.05 83.29-4.05Q86.39-4.05 87.69-5.25 88.99-6.45 89.27-8.75 89.54-11.05 89.54-14.3L89.54-14.3 89.54-27.45Q89.54-30.6 89.14-32.55 88.74-34.5 87.39-35.4 86.04-36.3 83.14-36.3L83.14-36.3 80.09-36.3ZM116.59 0L100.79 0 100.79-40.5 116.49-40.5 116.49-36.3 106.44-36.3 106.44-22.9 114.59-22.9 114.59-18.9 106.44-18.9 106.44-4.05 116.59-4.05 116.59 0ZM133.14 0L128.19 0 119.14-40.5 124.44-40.5 130.84-10.65 136.94-40.5 142.09-40.5 133.14 0Z" opacity="1" transform="matrix(1,0,0,1,0,0)" fill="black" class="wordmark-text-0" id="SvgjsPath1219" stroke-width="7" stroke="black" stroke-linejoin="round"></path></svg></g></svg></g><g transform="matrix(1,0,0,1,3.5,123.87627945467699)"><svg viewBox="0 0 309.416 38.755416985807614" height="38.755416985807614" width="309.416"><g transform="matrix(1,0,0,1,0,0)"><svg width="309.416" viewBox="-0.8500000000000001 -43.2 444.85 56.6" height="38.755416985807614" data-palette-color="#ffffff"><path d="M12.8-35.95L12.8-35.95Q15.3-35.95 16.6-35.38 17.9-34.8 18.9-34.1L18.9-34.1Q19.5-33.75 19.88-33.58 20.25-33.4 20.6-33.4L20.6-33.4Q21.4-33.4 21.7-35.6L21.7-35.6 22.85-35.6Q22.8-34.75 22.73-33.58 22.65-32.4 22.63-30.48 22.6-28.55 22.6-25.4L22.6-25.4 21.45-25.4Q21.3-27.8 20.4-30 19.5-32.2 17.78-33.6 16.05-35 13.25-35L13.25-35Q10.6-35 8.88-33.4 7.15-31.8 7.15-29.2L7.15-29.2Q7.15-26.95 8.3-25.43 9.45-23.9 11.38-22.68 13.3-21.45 15.55-20.05L15.55-20.05Q18.15-18.45 20.18-16.88 22.2-15.3 23.38-13.4 24.55-11.5 24.55-8.8L24.55-8.8Q24.55-5.6 23.1-3.5 21.65-1.4 19.25-0.35 16.85 0.7 13.95 0.7L13.95 0.7Q11.3 0.7 9.75 0.1 8.2-0.5 7.1-1.15L7.1-1.15Q6-1.85 5.4-1.85L5.4-1.85Q4.6-1.85 4.3 0.35L4.3 0.35 3.15 0.35Q3.25-0.7 3.28-2.13 3.3-3.55 3.33-5.85 3.35-8.15 3.35-11.65L3.35-11.65 4.5-11.65Q4.7-8.65 5.63-6.05 6.55-3.45 8.47-1.88 10.4-0.3 13.6-0.3L13.6-0.3Q16.05-0.3 18.07-1.88 20.1-3.45 20.1-6.95L20.1-6.95Q20.1-10 17.95-12 15.8-14 12.3-16.1L12.3-16.1Q9.95-17.55 7.9-19.05 5.85-20.55 4.63-22.53 3.4-24.5 3.4-27.3L3.4-27.3Q3.4-30.25 4.73-32.18 6.05-34.1 8.2-35.02 10.35-35.95 12.8-35.95ZM40.7-26.45L40.7-26.45Q43.9-26.45 46.45-25.05 49-23.65 50.52-20.65 52.05-17.65 52.05-12.85L52.05-12.85Q52.05-8.05 50.52-5.08 49-2.1 46.45-0.7 43.9 0.7 40.7 0.7L40.7 0.7Q37.55 0.7 34.97-0.7 32.4-2.1 30.87-5.08 29.35-8.05 29.35-12.85L29.35-12.85Q29.35-17.65 30.87-20.65 32.4-23.65 34.97-25.05 37.55-26.45 40.7-26.45ZM40.7-25.45L40.7-25.45Q37.85-25.45 36.02-22.5 34.2-19.55 34.2-12.85L34.2-12.85Q34.2-6.15 36.02-3.23 37.85-0.3 40.7-0.3L40.7-0.3Q43.55-0.3 45.37-3.23 47.2-6.15 47.2-12.85L47.2-12.85Q47.2-19.55 45.37-22.5 43.55-25.45 40.7-25.45ZM63.3-39.2L63.3-39.2 63.3-4.65Q63.3-2.55 64.17-1.8 65.05-1.05 67.09-1.05L67.09-1.05 67.09 0Q66.25-0.05 64.52-0.13 62.8-0.2 61.05-0.2L61.05-0.2Q59.35-0.2 57.6-0.13 55.85-0.05 55 0L55 0 55-1.05Q57.05-1.05 57.92-1.8 58.8-2.55 58.8-4.65L58.8-4.65 58.8-33.2Q58.8-35.45 58-36.52 57.2-37.6 55-37.6L55-37.6 55-38.65Q56.6-38.5 58.1-38.5L58.1-38.5Q59.55-38.5 60.87-38.68 62.2-38.85 63.3-39.2ZM92.34-26.3L92.34-26.3 92.34-5.4Q92.34-3.15 93.17-2.08 93.99-1 96.14-1L96.14-1 96.14 0.05Q94.59-0.1 93.04-0.1L93.04-0.1Q91.59-0.1 90.27 0.05 88.94 0.2 87.84 0.6L87.84 0.6 87.84-5.3Q86.59-2.05 84.32-0.68 82.04 0.7 79.64 0.7L79.64 0.7Q77.89 0.7 76.59 0.2 75.29-0.3 74.44-1.2L74.44-1.2Q73.49-2.2 73.14-3.8 72.79-5.4 72.79-7.75L72.79-7.75 72.79-20.3Q72.79-22.55 71.99-23.63 71.19-24.7 68.99-24.7L68.99-24.7 68.99-25.75Q70.59-25.6 72.09-25.6L72.09-25.6Q73.54-25.6 74.87-25.78 76.19-25.95 77.29-26.3L77.29-26.3 77.29-6.65Q77.29-5.1 77.49-3.8 77.69-2.5 78.49-1.7 79.29-0.9 81.09-0.9L81.09-0.9Q84.04-0.9 85.94-3.53 87.84-6.15 87.84-9.95L87.84-9.95 87.84-20.3Q87.84-22.55 87.04-23.63 86.24-24.7 84.04-24.7L84.04-24.7 84.04-25.75Q85.64-25.6 87.14-25.6L87.14-25.6Q88.59-25.6 89.92-25.78 91.24-25.95 92.34-26.3ZM106.74-34.05L106.74-34.05 106.74-25.7 114.14-25.7 114.14-24.7 106.74-24.7 106.74-5.35Q106.74-3 107.59-2.05 108.44-1.1 109.94-1.1L109.94-1.1Q111.44-1.1 112.54-2.33 113.64-3.55 114.44-6.45L114.44-6.45 115.44-6.2Q114.94-3.3 113.47-1.3 111.99 0.7 108.94 0.7L108.94 0.7Q107.24 0.7 106.14 0.28 105.04-0.15 104.19-0.95L104.19-0.95Q103.09-2.1 102.67-3.7 102.24-5.3 102.24-7.95L102.24-7.95 102.24-24.7 97.44-24.7 97.44-25.7 102.24-25.7 102.24-33.35Q103.49-33.4 104.64-33.55 105.79-33.7 106.74-34.05ZM122.09-38.25L122.09-38.25Q123.39-38.25 124.34-37.3 125.29-36.35 125.29-35.05L125.29-35.05Q125.29-33.75 124.34-32.8 123.39-31.85 122.09-31.85L122.09-31.85Q120.79-31.85 119.84-32.8 118.89-33.75 118.89-35.05L118.89-35.05Q118.89-36.35 119.84-37.3 120.79-38.25 122.09-38.25ZM124.69-26.3L124.69-26.3 124.69-4.65Q124.69-2.55 125.56-1.8 126.44-1.05 128.49-1.05L128.49-1.05 128.49 0Q127.64-0.05 125.91-0.13 124.19-0.2 122.44-0.2L122.44-0.2Q120.74-0.2 118.99-0.13 117.24-0.05 116.39 0L116.39 0 116.39-1.05Q118.44-1.05 119.31-1.8 120.19-2.55 120.19-4.65L120.19-4.65 120.19-20.3Q120.19-22.55 119.39-23.63 118.59-24.7 116.39-24.7L116.39-24.7 116.39-25.75Q117.99-25.6 119.49-25.6L119.49-25.6Q120.94-25.6 122.26-25.78 123.59-25.95 124.69-26.3ZM143.28-26.45L143.28-26.45Q146.49-26.45 149.04-25.05 151.59-23.65 153.11-20.65 154.64-17.65 154.64-12.85L154.64-12.85Q154.64-8.05 153.11-5.08 151.59-2.1 149.04-0.7 146.49 0.7 143.28 0.7L143.28 0.7Q140.14 0.7 137.56-0.7 134.99-2.1 133.46-5.08 131.94-8.05 131.94-12.85L131.94-12.85Q131.94-17.65 133.46-20.65 134.99-23.65 137.56-25.05 140.14-26.45 143.28-26.45ZM143.28-25.45L143.28-25.45Q140.44-25.45 138.61-22.5 136.78-19.55 136.78-12.85L136.78-12.85Q136.78-6.15 138.61-3.23 140.44-0.3 143.28-0.3L143.28-0.3Q146.14-0.3 147.96-3.23 149.79-6.15 149.79-12.85L149.79-12.85Q149.79-19.55 147.96-22.5 146.14-25.45 143.28-25.45ZM175.23-26.45L175.23-26.45Q177.13-26.45 178.41-25.95 179.68-25.45 180.53-24.55L180.53-24.55Q181.48-23.55 181.88-22.05 182.28-20.55 182.28-18L182.28-18 182.28-4.65Q182.28-2.55 183.16-1.8 184.03-1.05 186.08-1.05L186.08-1.05 186.08 0Q185.23-0.05 183.48-0.13 181.73-0.2 180.08-0.2L180.08-0.2Q178.43-0.2 176.86-0.13 175.28-0.05 174.48 0L174.48 0 174.48-1.05Q176.28-1.05 177.03-1.8 177.78-2.55 177.78-4.65L177.78-4.65 177.78-19.1Q177.78-20.65 177.53-21.95 177.28-23.25 176.41-24.05 175.53-24.85 173.73-24.85L173.73-24.85Q170.58-24.85 168.66-22.23 166.73-19.6 166.73-15.75L166.73-15.75 166.73-4.65Q166.73-2.55 167.48-1.8 168.23-1.05 170.03-1.05L170.03-1.05 170.03 0Q169.23-0.05 167.66-0.13 166.08-0.2 164.43-0.2L164.43-0.2Q162.78-0.2 161.03-0.13 159.28-0.05 158.43 0L158.43 0 158.43-1.05Q160.48-1.05 161.36-1.8 162.23-2.55 162.23-4.65L162.23-4.65 162.23-20.3Q162.23-22.55 161.43-23.63 160.63-24.7 158.43-24.7L158.43-24.7 158.43-25.75Q160.03-25.6 161.53-25.6L161.53-25.6Q162.98-25.6 164.31-25.78 165.63-25.95 166.73-26.3L166.73-26.3 166.73-20.4Q168.03-23.8 170.36-25.13 172.68-26.45 175.23-26.45ZM197.23-26.45L197.23-26.45Q199.23-26.45 200.63-25.8 202.03-25.15 202.68-24.6L202.68-24.6Q204.33-23.25 204.68-26.4L204.68-26.4 205.83-26.4Q205.73-25 205.68-23.08 205.63-21.15 205.63-17.9L205.63-17.9 204.48-17.9Q204.18-19.75 203.46-21.5 202.73-23.25 201.33-24.38 199.93-25.5 197.68-25.5L197.68-25.5Q195.93-25.5 194.76-24.53 193.58-23.55 193.58-21.65L193.58-21.65Q193.58-20.15 194.48-19.07 195.38-18 196.83-17.07 198.28-16.15 199.98-15.05L199.98-15.05Q202.83-13.2 204.83-11.3 206.83-9.4 206.83-6.3L206.83-6.3Q206.83-4 205.63-2.45 204.43-0.9 202.51-0.1 200.58 0.7 198.28 0.7L198.28 0.7Q197.18 0.7 196.21 0.53 195.23 0.35 194.33 0L194.33 0Q193.83-0.25 193.31-0.6 192.78-0.95 192.28-1.35L192.28-1.35Q191.78-1.75 191.38-1.33 190.98-0.9 190.78 0.35L190.78 0.35 189.63 0.35Q189.73-1.25 189.78-3.55 189.83-5.85 189.83-9.65L189.83-9.65 190.98-9.65Q191.33-6.85 191.98-4.75 192.63-2.65 194.03-1.48 195.43-0.3 197.93-0.3L197.93-0.3Q199.43-0.3 200.91-1.35 202.38-2.4 202.38-5.05L202.38-5.05Q202.38-7.25 200.78-8.65 199.18-10.05 196.73-11.6L196.73-11.6Q194.93-12.75 193.36-13.9 191.78-15.05 190.81-16.5 189.83-17.95 189.83-20L189.83-20Q189.83-22.25 190.86-23.68 191.88-25.1 193.58-25.78 195.28-26.45 197.23-26.45ZM229.53-39.2L229.53-39.2 229.53-4.65Q229.53-2.55 230.4-1.8 231.28-1.05 233.32-1.05L233.32-1.05 233.32 0Q232.47-0.05 230.75-0.13 229.03-0.2 227.28-0.2L227.28-0.2Q225.57-0.2 223.82-0.13 222.07-0.05 221.22 0L221.22 0 221.22-1.05Q223.28-1.05 224.15-1.8 225.03-2.55 225.03-4.65L225.03-4.65 225.03-33.2Q225.03-35.45 224.22-36.52 223.43-37.6 221.22-37.6L221.22-37.6 221.22-38.65Q222.82-38.5 224.32-38.5L224.32-38.5Q225.78-38.5 227.1-38.68 228.43-38.85 229.53-39.2ZM247.62-26.45L247.62-26.45Q250.82-26.45 253.37-25.05 255.92-23.65 257.45-20.65 258.97-17.65 258.97-12.85L258.97-12.85Q258.97-8.05 257.45-5.08 255.92-2.1 253.37-0.7 250.82 0.7 247.62 0.7L247.62 0.7Q244.47 0.7 241.9-0.7 239.32-2.1 237.8-5.08 236.27-8.05 236.27-12.85L236.27-12.85Q236.27-17.65 237.8-20.65 239.32-23.65 241.9-25.05 244.47-26.45 247.62-26.45ZM247.62-25.45L247.62-25.45Q244.77-25.45 242.95-22.5 241.12-19.55 241.12-12.85L241.12-12.85Q241.12-6.15 242.95-3.23 244.77-0.3 247.62-0.3L247.62-0.3Q250.47-0.3 252.3-3.23 254.12-6.15 254.12-12.85L254.12-12.85Q254.12-19.55 252.3-22.5 250.47-25.45 247.62-25.45ZM271.97 9.4L271.97 9.4Q269.32 9.4 266.97 8.85 264.62 8.3 263.19 7.13 261.77 5.95 261.77 4.15L261.77 4.15Q261.77 2.4 263.17 1.15 264.57-0.1 266.97-0.75L266.97-0.75 267.27 0.05Q266.17 0.4 265.52 1.45 264.87 2.5 264.87 3.8L264.87 3.8Q264.87 6.1 267 7.33 269.12 8.55 272.52 8.55L272.52 8.55Q274.77 8.55 276.92 7.98 279.07 7.4 280.47 6.05 281.87 4.7 281.87 2.5L281.87 2.5Q281.87 0.85 280.69-0.23 279.52-1.3 276.07-1.3L276.07-1.3 272.37-1.3Q270.77-1.3 269.27-1.55 267.77-1.8 266.82-2.6 265.87-3.4 265.87-5.05L265.87-5.05Q265.87-6.75 267.27-8.33 268.67-9.9 272.42-11.55L272.42-11.55 273.02-11.1Q271.32-10.2 270.07-9.28 268.82-8.35 268.82-7.1L268.82-7.1Q268.82-5.5 271.22-5.5L271.22-5.5 277.47-5.5Q280.57-5.5 282.94-4.13 285.32-2.75 285.32 0.4L285.32 0.4Q285.32 2.75 283.82 4.8 282.32 6.85 279.34 8.13 276.37 9.4 271.97 9.4ZM272.22-10.65L272.22-10.65Q268.52-10.65 266-12.55 263.47-14.45 263.47-18.55L263.47-18.55Q263.47-22.7 266-24.58 268.52-26.45 272.22-26.45L272.22-26.45Q275.92-26.45 278.44-24.58 280.97-22.7 280.97-18.55L280.97-18.55Q280.97-14.45 278.44-12.55 275.92-10.65 272.22-10.65ZM272.22-11.55L272.22-11.55Q274.12-11.55 275.19-13.05 276.27-14.55 276.27-18.55L276.27-18.55Q276.27-22.55 275.19-24.05 274.12-25.55 272.22-25.55L272.22-25.55Q270.37-25.55 269.27-24.05 268.17-22.55 268.17-18.55L268.17-18.55Q268.17-14.55 269.27-13.05 270.37-11.55 272.22-11.55ZM279.42-22.3L279.42-22.3 278.52-22.65Q279.22-24.35 280.92-25.65 282.62-26.95 284.47-26.95L284.47-26.95Q285.77-26.95 286.57-26.23 287.37-25.5 287.37-24.05L287.37-24.05Q287.37-22.5 286.55-21.88 285.72-21.25 284.87-21.25L284.87-21.25Q284.12-21.25 283.47-21.78 282.82-22.3 282.72-23.45 282.62-24.6 283.42-26.4L283.42-26.4 284.07-26.25Q281.97-25.45 281.07-24.58 280.17-23.7 279.42-22.3ZM294.87-38.25L294.87-38.25Q296.17-38.25 297.12-37.3 298.07-36.35 298.07-35.05L298.07-35.05Q298.07-33.75 297.12-32.8 296.17-31.85 294.87-31.85L294.87-31.85Q293.57-31.85 292.62-32.8 291.67-33.75 291.67-35.05L291.67-35.05Q291.67-36.35 292.62-37.3 293.57-38.25 294.87-38.25ZM297.47-26.3L297.47-26.3 297.47-4.65Q297.47-2.55 298.34-1.8 299.22-1.05 301.27-1.05L301.27-1.05 301.27 0Q300.42-0.05 298.69-0.13 296.97-0.2 295.22-0.2L295.22-0.2Q293.52-0.2 291.77-0.13 290.02-0.05 289.17 0L289.17 0 289.17-1.05Q291.22-1.05 292.09-1.8 292.97-2.55 292.97-4.65L292.97-4.65 292.97-20.3Q292.97-22.55 292.17-23.63 291.37-24.7 289.17-24.7L289.17-24.7 289.17-25.75Q290.77-25.6 292.27-25.6L292.27-25.6Q293.72-25.6 295.04-25.78 296.37-25.95 297.47-26.3ZM316.31-26.45L316.31-26.45Q317.91-26.45 319.41-26.05 320.91-25.65 322.11-24.85L322.11-24.85Q323.26-24.1 323.86-23.13 324.46-22.15 324.46-21L324.46-21Q324.46-19.65 323.71-18.93 322.96-18.2 321.81-18.2L321.81-18.2Q320.71-18.2 319.89-18.85 319.06-19.5 319.06-20.7L319.06-20.7Q319.06-21.85 319.69-22.55 320.31-23.25 321.16-23.45L321.16-23.45Q320.66-24.35 319.39-24.95 318.11-25.55 316.66-25.55L316.66-25.55Q315.41-25.55 314.16-24.95 312.91-24.35 311.86-22.98 310.81-21.6 310.16-19.23 309.51-16.85 309.51-13.3L309.51-13.3Q309.51-8.9 310.51-6.3 311.51-3.7 313.14-2.58 314.76-1.45 316.71-1.45L316.71-1.45Q318.66-1.45 320.66-2.6 322.66-3.75 323.96-6.6L323.96-6.6 324.91-6.25Q324.41-4.65 323.26-3.03 322.11-1.4 320.26-0.35 318.41 0.7 315.71 0.7L315.71 0.7Q312.61 0.7 310.11-0.9 307.61-2.5 306.14-5.48 304.66-8.45 304.66-12.55L304.66-12.55Q304.66-16.65 306.14-19.78 307.61-22.9 310.26-24.68 312.91-26.45 316.31-26.45ZM333.81-38.25L333.81-38.25Q335.11-38.25 336.06-37.3 337.01-36.35 337.01-35.05L337.01-35.05Q337.01-33.75 336.06-32.8 335.11-31.85 333.81-31.85L333.81-31.85Q332.51-31.85 331.56-32.8 330.61-33.75 330.61-35.05L330.61-35.05Q330.61-36.35 331.56-37.3 332.51-38.25 333.81-38.25ZM336.41-26.3L336.41-26.3 336.41-4.65Q336.41-2.55 337.29-1.8 338.16-1.05 340.21-1.05L340.21-1.05 340.21 0Q339.36-0.05 337.64-0.13 335.91-0.2 334.16-0.2L334.16-0.2Q332.46-0.2 330.71-0.13 328.96-0.05 328.11 0L328.11 0 328.11-1.05Q330.16-1.05 331.04-1.8 331.91-2.55 331.91-4.65L331.91-4.65 331.91-20.3Q331.91-22.55 331.11-23.63 330.31-24.7 328.11-24.7L328.11-24.7 328.11-25.75Q329.71-25.6 331.21-25.6L331.21-25.6Q332.66-25.6 333.99-25.78 335.31-25.95 336.41-26.3ZM354.91-26.45L354.91-26.45Q359.31-26.45 361.78-23.78 364.26-21.1 364.26-15.45L364.26-15.45 346.61-15.45 346.56-16.4 359.46-16.4Q359.56-18.85 359.06-20.93 358.56-23 357.48-24.25 356.41-25.5 354.71-25.5L354.71-25.5Q352.41-25.5 350.63-23.2 348.86-20.9 348.51-15.9L348.51-15.9 348.66-15.7Q348.56-14.95 348.51-14.05 348.46-13.15 348.46-12.25L348.46-12.25Q348.46-8.85 349.56-6.4 350.66-3.95 352.43-2.68 354.21-1.4 356.11-1.4L356.11-1.4Q358.36-1.4 360.26-2.5 362.16-3.6 363.46-6.4L363.46-6.4 364.46-6Q363.91-4.35 362.66-2.8 361.41-1.25 359.51-0.28 357.61 0.7 355.11 0.7L355.11 0.7Q351.51 0.7 348.93-0.95 346.36-2.6 344.98-5.53 343.61-8.45 343.61-12.25L343.61-12.25Q343.61-16.65 345.01-19.83 346.41-23 348.96-24.73 351.51-26.45 354.91-26.45ZM376.01-39.2L376.01-39.2 376.01-4.65Q376.01-2.55 376.88-1.8 377.76-1.05 379.81-1.05L379.81-1.05 379.81 0Q378.96-0.05 377.23-0.13 375.51-0.2 373.76-0.2L373.76-0.2Q372.06-0.2 370.31-0.13 368.56-0.05 367.71 0L367.71 0 367.71-1.05Q369.76-1.05 370.63-1.8 371.51-2.55 371.51-4.65L371.51-4.65 371.51-33.2Q371.51-35.45 370.71-36.52 369.91-37.6 367.71-37.6L367.71-37.6 367.71-38.65Q369.31-38.5 370.81-38.5L370.81-38.5Q372.26-38.5 373.58-38.68 374.91-38.85 376.01-39.2ZM390.3-39.2L390.3-39.2 390.3-4.65Q390.3-2.55 391.18-1.8 392.05-1.05 394.1-1.05L394.1-1.05 394.1 0Q393.25-0.05 391.53-0.13 389.8-0.2 388.05-0.2L388.05-0.2Q386.35-0.2 384.6-0.13 382.85-0.05 382 0L382 0 382-1.05Q384.05-1.05 384.93-1.8 385.8-2.55 385.8-4.65L385.8-4.65 385.8-33.2Q385.8-35.45 385-36.52 384.2-37.6 382-37.6L382-37.6 382-38.65Q383.6-38.5 385.1-38.5L385.1-38.5Q386.55-38.5 387.88-38.68 389.2-38.85 390.3-39.2ZM408.3-26.45L408.3-26.45Q412.7-26.45 415.18-23.78 417.65-21.1 417.65-15.45L417.65-15.45 400-15.45 399.95-16.4 412.85-16.4Q412.95-18.85 412.45-20.93 411.95-23 410.88-24.25 409.8-25.5 408.1-25.5L408.1-25.5Q405.8-25.5 404.03-23.2 402.25-20.9 401.9-15.9L401.9-15.9 402.05-15.7Q401.95-14.95 401.9-14.05 401.85-13.15 401.85-12.25L401.85-12.25Q401.85-8.85 402.95-6.4 404.05-3.95 405.83-2.68 407.6-1.4 409.5-1.4L409.5-1.4Q411.75-1.4 413.65-2.5 415.55-3.6 416.85-6.4L416.85-6.4 417.85-6Q417.3-4.35 416.05-2.8 414.8-1.25 412.9-0.28 411 0.7 408.5 0.7L408.5 0.7Q404.9 0.7 402.33-0.95 399.75-2.6 398.38-5.53 397-8.45 397-12.25L397-12.25Q397-16.65 398.4-19.83 399.8-23 402.35-24.73 404.9-26.45 408.3-26.45ZM430.4-26.45L430.4-26.45Q432.4-26.45 433.8-25.8 435.2-25.15 435.85-24.6L435.85-24.6Q437.5-23.25 437.85-26.4L437.85-26.4 439-26.4Q438.9-25 438.85-23.08 438.8-21.15 438.8-17.9L438.8-17.9 437.65-17.9Q437.35-19.75 436.63-21.5 435.9-23.25 434.5-24.38 433.1-25.5 430.85-25.5L430.85-25.5Q429.1-25.5 427.93-24.53 426.75-23.55 426.75-21.65L426.75-21.65Q426.75-20.15 427.65-19.07 428.55-18 430-17.07 431.45-16.15 433.15-15.05L433.15-15.05Q436-13.2 438-11.3 440-9.4 440-6.3L440-6.3Q440-4 438.8-2.45 437.6-0.9 435.68-0.1 433.75 0.7 431.45 0.7L431.45 0.7Q430.35 0.7 429.38 0.53 428.4 0.35 427.5 0L427.5 0Q427-0.25 426.48-0.6 425.95-0.95 425.45-1.35L425.45-1.35Q424.95-1.75 424.55-1.33 424.15-0.9 423.95 0.35L423.95 0.35 422.8 0.35Q422.9-1.25 422.95-3.55 423-5.85 423-9.65L423-9.65 424.15-9.65Q424.5-6.85 425.15-4.75 425.8-2.65 427.2-1.48 428.6-0.3 431.1-0.3L431.1-0.3Q432.6-0.3 434.07-1.35 435.55-2.4 435.55-5.05L435.55-5.05Q435.55-7.25 433.95-8.65 432.35-10.05 429.9-11.6L429.9-11.6Q428.1-12.75 426.52-13.9 424.95-15.05 423.98-16.5 423-17.95 423-20L423-20Q423-22.25 424.02-23.68 425.05-25.1 426.75-25.78 428.45-26.45 430.4-26.45Z" opacity="1" transform="matrix(1,0,0,1,0,0)" fill="black" class="slogan-text-1" id="SvgjsPath1218" stroke-width="7" stroke="black" stroke-linejoin="round"></path></svg></g></svg></g></svg></g></svg></g><g></g></svg></g></svg></g></svg></g></mask><g transform="matrix(1,0,0,1,39.55199999999999,42.28415177975769)"><svg viewBox="0 0 316.416 162.6316964404846" height="162.6316964404846" width="316.416"><g><svg viewBox="0 0 316.416 162.6316964404846" height="162.6316964404846" width="316.416"><g><svg viewBox="0 0 316.416 162.6316964404846" height="162.6316964404846" width="316.416"><g><svg viewBox="0 0 316.416 162.6316964404846" height="162.6316964404846" width="316.416"><g id="textblocktransform"><svg viewBox="0 0 316.416 162.6316964404846" height="162.6316964404846" width="316.416" id="textblock"><g><svg viewBox="0 0 316.416 103.06121142857144" height="103.06121142857144" width="316.416"><g transform="matrix(1,0,0,1,0,0)"><svg width="316.416" viewBox="-3.65 -44.5 149.74 49.45" height="103.06121142857144" data-palette-color="#ffffff"><path d="M3.05 0.95L0.35 0.95 0.35-3.1Q2.2-3.1 3.35-3.35 4.5-3.6 5.13-4.25 5.75-4.9 6-6.13 6.25-7.35 6.25-9.25L6.25-9.25 6.25-40.5 11.85-40.5 11.85-9.15Q11.85-5.65 11.1-3.43 10.35-1.2 8.45-0.13 6.55 0.95 3.05 0.95L3.05 0.95ZM29 0L18.2 0 18.2-40.5 27.5-40.5Q30.25-40.5 32.27-39.9 34.3-39.3 35.65-38.05 37-36.8 37.65-34.88 38.3-32.95 38.3-30.35L38.3-30.35Q38.3-27.85 37.67-26.03 37.05-24.2 35.77-23.15 34.5-22.1 32.5-21.8L32.5-21.8Q34.95-21.25 36.45-19.93 37.95-18.6 38.67-16.53 39.4-14.45 39.4-11.55L39.4-11.55Q39.4-8.95 38.8-6.8 38.2-4.65 36.92-3.15 35.65-1.65 33.67-0.83 31.7 0 29 0L29 0ZM23.85-19.3L23.85-4.05 27.65-4.05Q31.45-4.05 32.72-5.83 34-7.6 34-11.55L34-11.55Q34-14.1 33.32-15.83 32.65-17.55 31.17-18.43 29.7-19.3 27.2-19.3L27.2-19.3 23.85-19.3ZM23.85-36.3L23.85-23.6 27.2-23.6Q29.6-23.6 30.95-24.28 32.3-24.95 32.85-26.45 33.4-27.95 33.4-30.35L33.4-30.35Q33.4-33.15 32.55-34.4 31.7-35.65 29.9-35.98 28.1-36.3 25.2-36.3L25.2-36.3 23.85-36.3ZM54.5 0L48.85 0 48.85-36.3 42-36.3 42-40.5 61.15-40.5 61.15-36.3 54.5-36.3 54.5 0ZM69.69 0L64.34 0 64.34-5.95 69.69-5.95 69.69 0ZM83.69 0L74.44 0 74.44-40.5 83.24-40.5Q87.74-40.5 90.37-39.13 92.99-37.75 94.12-35 95.24-32.25 95.24-28.15L95.24-28.15 95.24-13.25Q95.24-8.95 94.12-6 92.99-3.05 90.47-1.53 87.94 0 83.69 0L83.69 0ZM80.09-36.3L80.09-4.05 83.29-4.05Q86.39-4.05 87.69-5.25 88.99-6.45 89.27-8.75 89.54-11.05 89.54-14.3L89.54-14.3 89.54-27.45Q89.54-30.6 89.14-32.55 88.74-34.5 87.39-35.4 86.04-36.3 83.14-36.3L83.14-36.3 80.09-36.3ZM116.59 0L100.79 0 100.79-40.5 116.49-40.5 116.49-36.3 106.44-36.3 106.44-22.9 114.59-22.9 114.59-18.9 106.44-18.9 106.44-4.05 116.59-4.05 116.59 0ZM133.14 0L128.19 0 119.14-40.5 124.44-40.5 130.84-10.65 136.94-40.5 142.09-40.5 133.14 0Z" opacity="1" transform="matrix(1,0,0,1,0,0)" fill="#ffffff" class="wordmark-text-0" data-fill-palette-color="primary" id="text-0"></path></svg></g></svg></g><g transform="matrix(1,0,0,1,3.5,123.87627945467699)"><svg viewBox="0 0 309.416 38.755416985807614" height="38.755416985807614" width="309.416"><g transform="matrix(1,0,0,1,0,0)"><svg width="309.416" viewBox="-0.8500000000000001 -43.2 444.85 56.6" height="38.755416985807614" data-palette-color="#ffffff"><path d="M12.8-35.95L12.8-35.95Q15.3-35.95 16.6-35.38 17.9-34.8 18.9-34.1L18.9-34.1Q19.5-33.75 19.88-33.58 20.25-33.4 20.6-33.4L20.6-33.4Q21.4-33.4 21.7-35.6L21.7-35.6 22.85-35.6Q22.8-34.75 22.73-33.58 22.65-32.4 22.63-30.48 22.6-28.55 22.6-25.4L22.6-25.4 21.45-25.4Q21.3-27.8 20.4-30 19.5-32.2 17.78-33.6 16.05-35 13.25-35L13.25-35Q10.6-35 8.88-33.4 7.15-31.8 7.15-29.2L7.15-29.2Q7.15-26.95 8.3-25.43 9.45-23.9 11.38-22.68 13.3-21.45 15.55-20.05L15.55-20.05Q18.15-18.45 20.18-16.88 22.2-15.3 23.38-13.4 24.55-11.5 24.55-8.8L24.55-8.8Q24.55-5.6 23.1-3.5 21.65-1.4 19.25-0.35 16.85 0.7 13.95 0.7L13.95 0.7Q11.3 0.7 9.75 0.1 8.2-0.5 7.1-1.15L7.1-1.15Q6-1.85 5.4-1.85L5.4-1.85Q4.6-1.85 4.3 0.35L4.3 0.35 3.15 0.35Q3.25-0.7 3.28-2.13 3.3-3.55 3.33-5.85 3.35-8.15 3.35-11.65L3.35-11.65 4.5-11.65Q4.7-8.65 5.63-6.05 6.55-3.45 8.47-1.88 10.4-0.3 13.6-0.3L13.6-0.3Q16.05-0.3 18.07-1.88 20.1-3.45 20.1-6.95L20.1-6.95Q20.1-10 17.95-12 15.8-14 12.3-16.1L12.3-16.1Q9.95-17.55 7.9-19.05 5.85-20.55 4.63-22.53 3.4-24.5 3.4-27.3L3.4-27.3Q3.4-30.25 4.73-32.18 6.05-34.1 8.2-35.02 10.35-35.95 12.8-35.95ZM40.7-26.45L40.7-26.45Q43.9-26.45 46.45-25.05 49-23.65 50.52-20.65 52.05-17.65 52.05-12.85L52.05-12.85Q52.05-8.05 50.52-5.08 49-2.1 46.45-0.7 43.9 0.7 40.7 0.7L40.7 0.7Q37.55 0.7 34.97-0.7 32.4-2.1 30.87-5.08 29.35-8.05 29.35-12.85L29.35-12.85Q29.35-17.65 30.87-20.65 32.4-23.65 34.97-25.05 37.55-26.45 40.7-26.45ZM40.7-25.45L40.7-25.45Q37.85-25.45 36.02-22.5 34.2-19.55 34.2-12.85L34.2-12.85Q34.2-6.15 36.02-3.23 37.85-0.3 40.7-0.3L40.7-0.3Q43.55-0.3 45.37-3.23 47.2-6.15 47.2-12.85L47.2-12.85Q47.2-19.55 45.37-22.5 43.55-25.45 40.7-25.45ZM63.3-39.2L63.3-39.2 63.3-4.65Q63.3-2.55 64.17-1.8 65.05-1.05 67.09-1.05L67.09-1.05 67.09 0Q66.25-0.05 64.52-0.13 62.8-0.2 61.05-0.2L61.05-0.2Q59.35-0.2 57.6-0.13 55.85-0.05 55 0L55 0 55-1.05Q57.05-1.05 57.92-1.8 58.8-2.55 58.8-4.65L58.8-4.65 58.8-33.2Q58.8-35.45 58-36.52 57.2-37.6 55-37.6L55-37.6 55-38.65Q56.6-38.5 58.1-38.5L58.1-38.5Q59.55-38.5 60.87-38.68 62.2-38.85 63.3-39.2ZM92.34-26.3L92.34-26.3 92.34-5.4Q92.34-3.15 93.17-2.08 93.99-1 96.14-1L96.14-1 96.14 0.05Q94.59-0.1 93.04-0.1L93.04-0.1Q91.59-0.1 90.27 0.05 88.94 0.2 87.84 0.6L87.84 0.6 87.84-5.3Q86.59-2.05 84.32-0.68 82.04 0.7 79.64 0.7L79.64 0.7Q77.89 0.7 76.59 0.2 75.29-0.3 74.44-1.2L74.44-1.2Q73.49-2.2 73.14-3.8 72.79-5.4 72.79-7.75L72.79-7.75 72.79-20.3Q72.79-22.55 71.99-23.63 71.19-24.7 68.99-24.7L68.99-24.7 68.99-25.75Q70.59-25.6 72.09-25.6L72.09-25.6Q73.54-25.6 74.87-25.78 76.19-25.95 77.29-26.3L77.29-26.3 77.29-6.65Q77.29-5.1 77.49-3.8 77.69-2.5 78.49-1.7 79.29-0.9 81.09-0.9L81.09-0.9Q84.04-0.9 85.94-3.53 87.84-6.15 87.84-9.95L87.84-9.95 87.84-20.3Q87.84-22.55 87.04-23.63 86.24-24.7 84.04-24.7L84.04-24.7 84.04-25.75Q85.64-25.6 87.14-25.6L87.14-25.6Q88.59-25.6 89.92-25.78 91.24-25.95 92.34-26.3ZM106.74-34.05L106.74-34.05 106.74-25.7 114.14-25.7 114.14-24.7 106.74-24.7 106.74-5.35Q106.74-3 107.59-2.05 108.44-1.1 109.94-1.1L109.94-1.1Q111.44-1.1 112.54-2.33 113.64-3.55 114.44-6.45L114.44-6.45 115.44-6.2Q114.94-3.3 113.47-1.3 111.99 0.7 108.94 0.7L108.94 0.7Q107.24 0.7 106.14 0.28 105.04-0.15 104.19-0.95L104.19-0.95Q103.09-2.1 102.67-3.7 102.24-5.3 102.24-7.95L102.24-7.95 102.24-24.7 97.44-24.7 97.44-25.7 102.24-25.7 102.24-33.35Q103.49-33.4 104.64-33.55 105.79-33.7 106.74-34.05ZM122.09-38.25L122.09-38.25Q123.39-38.25 124.34-37.3 125.29-36.35 125.29-35.05L125.29-35.05Q125.29-33.75 124.34-32.8 123.39-31.85 122.09-31.85L122.09-31.85Q120.79-31.85 119.84-32.8 118.89-33.75 118.89-35.05L118.89-35.05Q118.89-36.35 119.84-37.3 120.79-38.25 122.09-38.25ZM124.69-26.3L124.69-26.3 124.69-4.65Q124.69-2.55 125.56-1.8 126.44-1.05 128.49-1.05L128.49-1.05 128.49 0Q127.64-0.05 125.91-0.13 124.19-0.2 122.44-0.2L122.44-0.2Q120.74-0.2 118.99-0.13 117.24-0.05 116.39 0L116.39 0 116.39-1.05Q118.44-1.05 119.31-1.8 120.19-2.55 120.19-4.65L120.19-4.65 120.19-20.3Q120.19-22.55 119.39-23.63 118.59-24.7 116.39-24.7L116.39-24.7 116.39-25.75Q117.99-25.6 119.49-25.6L119.49-25.6Q120.94-25.6 122.26-25.78 123.59-25.95 124.69-26.3ZM143.28-26.45L143.28-26.45Q146.49-26.45 149.04-25.05 151.59-23.65 153.11-20.65 154.64-17.65 154.64-12.85L154.64-12.85Q154.64-8.05 153.11-5.08 151.59-2.1 149.04-0.7 146.49 0.7 143.28 0.7L143.28 0.7Q140.14 0.7 137.56-0.7 134.99-2.1 133.46-5.08 131.94-8.05 131.94-12.85L131.94-12.85Q131.94-17.65 133.46-20.65 134.99-23.65 137.56-25.05 140.14-26.45 143.28-26.45ZM143.28-25.45L143.28-25.45Q140.44-25.45 138.61-22.5 136.78-19.55 136.78-12.85L136.78-12.85Q136.78-6.15 138.61-3.23 140.44-0.3 143.28-0.3L143.28-0.3Q146.14-0.3 147.96-3.23 149.79-6.15 149.79-12.85L149.79-12.85Q149.79-19.55 147.96-22.5 146.14-25.45 143.28-25.45ZM175.23-26.45L175.23-26.45Q177.13-26.45 178.41-25.95 179.68-25.45 180.53-24.55L180.53-24.55Q181.48-23.55 181.88-22.05 182.28-20.55 182.28-18L182.28-18 182.28-4.65Q182.28-2.55 183.16-1.8 184.03-1.05 186.08-1.05L186.08-1.05 186.08 0Q185.23-0.05 183.48-0.13 181.73-0.2 180.08-0.2L180.08-0.2Q178.43-0.2 176.86-0.13 175.28-0.05 174.48 0L174.48 0 174.48-1.05Q176.28-1.05 177.03-1.8 177.78-2.55 177.78-4.65L177.78-4.65 177.78-19.1Q177.78-20.65 177.53-21.95 177.28-23.25 176.41-24.05 175.53-24.85 173.73-24.85L173.73-24.85Q170.58-24.85 168.66-22.23 166.73-19.6 166.73-15.75L166.73-15.75 166.73-4.65Q166.73-2.55 167.48-1.8 168.23-1.05 170.03-1.05L170.03-1.05 170.03 0Q169.23-0.05 167.66-0.13 166.08-0.2 164.43-0.2L164.43-0.2Q162.78-0.2 161.03-0.13 159.28-0.05 158.43 0L158.43 0 158.43-1.05Q160.48-1.05 161.36-1.8 162.23-2.55 162.23-4.65L162.23-4.65 162.23-20.3Q162.23-22.55 161.43-23.63 160.63-24.7 158.43-24.7L158.43-24.7 158.43-25.75Q160.03-25.6 161.53-25.6L161.53-25.6Q162.98-25.6 164.31-25.78 165.63-25.95 166.73-26.3L166.73-26.3 166.73-20.4Q168.03-23.8 170.36-25.13 172.68-26.45 175.23-26.45ZM197.23-26.45L197.23-26.45Q199.23-26.45 200.63-25.8 202.03-25.15 202.68-24.6L202.68-24.6Q204.33-23.25 204.68-26.4L204.68-26.4 205.83-26.4Q205.73-25 205.68-23.08 205.63-21.15 205.63-17.9L205.63-17.9 204.48-17.9Q204.18-19.75 203.46-21.5 202.73-23.25 201.33-24.38 199.93-25.5 197.68-25.5L197.68-25.5Q195.93-25.5 194.76-24.53 193.58-23.55 193.58-21.65L193.58-21.65Q193.58-20.15 194.48-19.07 195.38-18 196.83-17.07 198.28-16.15 199.98-15.05L199.98-15.05Q202.83-13.2 204.83-11.3 206.83-9.4 206.83-6.3L206.83-6.3Q206.83-4 205.63-2.45 204.43-0.9 202.51-0.1 200.58 0.7 198.28 0.7L198.28 0.7Q197.18 0.7 196.21 0.53 195.23 0.35 194.33 0L194.33 0Q193.83-0.25 193.31-0.6 192.78-0.95 192.28-1.35L192.28-1.35Q191.78-1.75 191.38-1.33 190.98-0.9 190.78 0.35L190.78 0.35 189.63 0.35Q189.73-1.25 189.78-3.55 189.83-5.85 189.83-9.65L189.83-9.65 190.98-9.65Q191.33-6.85 191.98-4.75 192.63-2.65 194.03-1.48 195.43-0.3 197.93-0.3L197.93-0.3Q199.43-0.3 200.91-1.35 202.38-2.4 202.38-5.05L202.38-5.05Q202.38-7.25 200.78-8.65 199.18-10.05 196.73-11.6L196.73-11.6Q194.93-12.75 193.36-13.9 191.78-15.05 190.81-16.5 189.83-17.95 189.83-20L189.83-20Q189.83-22.25 190.86-23.68 191.88-25.1 193.58-25.78 195.28-26.45 197.23-26.45ZM229.53-39.2L229.53-39.2 229.53-4.65Q229.53-2.55 230.4-1.8 231.28-1.05 233.32-1.05L233.32-1.05 233.32 0Q232.47-0.05 230.75-0.13 229.03-0.2 227.28-0.2L227.28-0.2Q225.57-0.2 223.82-0.13 222.07-0.05 221.22 0L221.22 0 221.22-1.05Q223.28-1.05 224.15-1.8 225.03-2.55 225.03-4.65L225.03-4.65 225.03-33.2Q225.03-35.45 224.22-36.52 223.43-37.6 221.22-37.6L221.22-37.6 221.22-38.65Q222.82-38.5 224.32-38.5L224.32-38.5Q225.78-38.5 227.1-38.68 228.43-38.85 229.53-39.2ZM247.62-26.45L247.62-26.45Q250.82-26.45 253.37-25.05 255.92-23.65 257.45-20.65 258.97-17.65 258.97-12.85L258.97-12.85Q258.97-8.05 257.45-5.08 255.92-2.1 253.37-0.7 250.82 0.7 247.62 0.7L247.62 0.7Q244.47 0.7 241.9-0.7 239.32-2.1 237.8-5.08 236.27-8.05 236.27-12.85L236.27-12.85Q236.27-17.65 237.8-20.65 239.32-23.65 241.9-25.05 244.47-26.45 247.62-26.45ZM247.62-25.45L247.62-25.45Q244.77-25.45 242.95-22.5 241.12-19.55 241.12-12.85L241.12-12.85Q241.12-6.15 242.95-3.23 244.77-0.3 247.62-0.3L247.62-0.3Q250.47-0.3 252.3-3.23 254.12-6.15 254.12-12.85L254.12-12.85Q254.12-19.55 252.3-22.5 250.47-25.45 247.62-25.45ZM271.97 9.4L271.97 9.4Q269.32 9.4 266.97 8.85 264.62 8.3 263.19 7.13 261.77 5.95 261.77 4.15L261.77 4.15Q261.77 2.4 263.17 1.15 264.57-0.1 266.97-0.75L266.97-0.75 267.27 0.05Q266.17 0.4 265.52 1.45 264.87 2.5 264.87 3.8L264.87 3.8Q264.87 6.1 267 7.33 269.12 8.55 272.52 8.55L272.52 8.55Q274.77 8.55 276.92 7.98 279.07 7.4 280.47 6.05 281.87 4.7 281.87 2.5L281.87 2.5Q281.87 0.85 280.69-0.23 279.52-1.3 276.07-1.3L276.07-1.3 272.37-1.3Q270.77-1.3 269.27-1.55 267.77-1.8 266.82-2.6 265.87-3.4 265.87-5.05L265.87-5.05Q265.87-6.75 267.27-8.33 268.67-9.9 272.42-11.55L272.42-11.55 273.02-11.1Q271.32-10.2 270.07-9.28 268.82-8.35 268.82-7.1L268.82-7.1Q268.82-5.5 271.22-5.5L271.22-5.5 277.47-5.5Q280.57-5.5 282.94-4.13 285.32-2.75 285.32 0.4L285.32 0.4Q285.32 2.75 283.82 4.8 282.32 6.85 279.34 8.13 276.37 9.4 271.97 9.4ZM272.22-10.65L272.22-10.65Q268.52-10.65 266-12.55 263.47-14.45 263.47-18.55L263.47-18.55Q263.47-22.7 266-24.58 268.52-26.45 272.22-26.45L272.22-26.45Q275.92-26.45 278.44-24.58 280.97-22.7 280.97-18.55L280.97-18.55Q280.97-14.45 278.44-12.55 275.92-10.65 272.22-10.65ZM272.22-11.55L272.22-11.55Q274.12-11.55 275.19-13.05 276.27-14.55 276.27-18.55L276.27-18.55Q276.27-22.55 275.19-24.05 274.12-25.55 272.22-25.55L272.22-25.55Q270.37-25.55 269.27-24.05 268.17-22.55 268.17-18.55L268.17-18.55Q268.17-14.55 269.27-13.05 270.37-11.55 272.22-11.55ZM279.42-22.3L279.42-22.3 278.52-22.65Q279.22-24.35 280.92-25.65 282.62-26.95 284.47-26.95L284.47-26.95Q285.77-26.95 286.57-26.23 287.37-25.5 287.37-24.05L287.37-24.05Q287.37-22.5 286.55-21.88 285.72-21.25 284.87-21.25L284.87-21.25Q284.12-21.25 283.47-21.78 282.82-22.3 282.72-23.45 282.62-24.6 283.42-26.4L283.42-26.4 284.07-26.25Q281.97-25.45 281.07-24.58 280.17-23.7 279.42-22.3ZM294.87-38.25L294.87-38.25Q296.17-38.25 297.12-37.3 298.07-36.35 298.07-35.05L298.07-35.05Q298.07-33.75 297.12-32.8 296.17-31.85 294.87-31.85L294.87-31.85Q293.57-31.85 292.62-32.8 291.67-33.75 291.67-35.05L291.67-35.05Q291.67-36.35 292.62-37.3 293.57-38.25 294.87-38.25ZM297.47-26.3L297.47-26.3 297.47-4.65Q297.47-2.55 298.34-1.8 299.22-1.05 301.27-1.05L301.27-1.05 301.27 0Q300.42-0.05 298.69-0.13 296.97-0.2 295.22-0.2L295.22-0.2Q293.52-0.2 291.77-0.13 290.02-0.05 289.17 0L289.17 0 289.17-1.05Q291.22-1.05 292.09-1.8 292.97-2.55 292.97-4.65L292.97-4.65 292.97-20.3Q292.97-22.55 292.17-23.63 291.37-24.7 289.17-24.7L289.17-24.7 289.17-25.75Q290.77-25.6 292.27-25.6L292.27-25.6Q293.72-25.6 295.04-25.78 296.37-25.95 297.47-26.3ZM316.31-26.45L316.31-26.45Q317.91-26.45 319.41-26.05 320.91-25.65 322.11-24.85L322.11-24.85Q323.26-24.1 323.86-23.13 324.46-22.15 324.46-21L324.46-21Q324.46-19.65 323.71-18.93 322.96-18.2 321.81-18.2L321.81-18.2Q320.71-18.2 319.89-18.85 319.06-19.5 319.06-20.7L319.06-20.7Q319.06-21.85 319.69-22.55 320.31-23.25 321.16-23.45L321.16-23.45Q320.66-24.35 319.39-24.95 318.11-25.55 316.66-25.55L316.66-25.55Q315.41-25.55 314.16-24.95 312.91-24.35 311.86-22.98 310.81-21.6 310.16-19.23 309.51-16.85 309.51-13.3L309.51-13.3Q309.51-8.9 310.51-6.3 311.51-3.7 313.14-2.58 314.76-1.45 316.71-1.45L316.71-1.45Q318.66-1.45 320.66-2.6 322.66-3.75 323.96-6.6L323.96-6.6 324.91-6.25Q324.41-4.65 323.26-3.03 322.11-1.4 320.26-0.35 318.41 0.7 315.71 0.7L315.71 0.7Q312.61 0.7 310.11-0.9 307.61-2.5 306.14-5.48 304.66-8.45 304.66-12.55L304.66-12.55Q304.66-16.65 306.14-19.78 307.61-22.9 310.26-24.68 312.91-26.45 316.31-26.45ZM333.81-38.25L333.81-38.25Q335.11-38.25 336.06-37.3 337.01-36.35 337.01-35.05L337.01-35.05Q337.01-33.75 336.06-32.8 335.11-31.85 333.81-31.85L333.81-31.85Q332.51-31.85 331.56-32.8 330.61-33.75 330.61-35.05L330.61-35.05Q330.61-36.35 331.56-37.3 332.51-38.25 333.81-38.25ZM336.41-26.3L336.41-26.3 336.41-4.65Q336.41-2.55 337.29-1.8 338.16-1.05 340.21-1.05L340.21-1.05 340.21 0Q339.36-0.05 337.64-0.13 335.91-0.2 334.16-0.2L334.16-0.2Q332.46-0.2 330.71-0.13 328.96-0.05 328.11 0L328.11 0 328.11-1.05Q330.16-1.05 331.04-1.8 331.91-2.55 331.91-4.65L331.91-4.65 331.91-20.3Q331.91-22.55 331.11-23.63 330.31-24.7 328.11-24.7L328.11-24.7 328.11-25.75Q329.71-25.6 331.21-25.6L331.21-25.6Q332.66-25.6 333.99-25.78 335.31-25.95 336.41-26.3ZM354.91-26.45L354.91-26.45Q359.31-26.45 361.78-23.78 364.26-21.1 364.26-15.45L364.26-15.45 346.61-15.45 346.56-16.4 359.46-16.4Q359.56-18.85 359.06-20.93 358.56-23 357.48-24.25 356.41-25.5 354.71-25.5L354.71-25.5Q352.41-25.5 350.63-23.2 348.86-20.9 348.51-15.9L348.51-15.9 348.66-15.7Q348.56-14.95 348.51-14.05 348.46-13.15 348.46-12.25L348.46-12.25Q348.46-8.85 349.56-6.4 350.66-3.95 352.43-2.68 354.21-1.4 356.11-1.4L356.11-1.4Q358.36-1.4 360.26-2.5 362.16-3.6 363.46-6.4L363.46-6.4 364.46-6Q363.91-4.35 362.66-2.8 361.41-1.25 359.51-0.28 357.61 0.7 355.11 0.7L355.11 0.7Q351.51 0.7 348.93-0.95 346.36-2.6 344.98-5.53 343.61-8.45 343.61-12.25L343.61-12.25Q343.61-16.65 345.01-19.83 346.41-23 348.96-24.73 351.51-26.45 354.91-26.45ZM376.01-39.2L376.01-39.2 376.01-4.65Q376.01-2.55 376.88-1.8 377.76-1.05 379.81-1.05L379.81-1.05 379.81 0Q378.96-0.05 377.23-0.13 375.51-0.2 373.76-0.2L373.76-0.2Q372.06-0.2 370.31-0.13 368.56-0.05 367.71 0L367.71 0 367.71-1.05Q369.76-1.05 370.63-1.8 371.51-2.55 371.51-4.65L371.51-4.65 371.51-33.2Q371.51-35.45 370.71-36.52 369.91-37.6 367.71-37.6L367.71-37.6 367.71-38.65Q369.31-38.5 370.81-38.5L370.81-38.5Q372.26-38.5 373.58-38.68 374.91-38.85 376.01-39.2ZM390.3-39.2L390.3-39.2 390.3-4.65Q390.3-2.55 391.18-1.8 392.05-1.05 394.1-1.05L394.1-1.05 394.1 0Q393.25-0.05 391.53-0.13 389.8-0.2 388.05-0.2L388.05-0.2Q386.35-0.2 384.6-0.13 382.85-0.05 382 0L382 0 382-1.05Q384.05-1.05 384.93-1.8 385.8-2.55 385.8-4.65L385.8-4.65 385.8-33.2Q385.8-35.45 385-36.52 384.2-37.6 382-37.6L382-37.6 382-38.65Q383.6-38.5 385.1-38.5L385.1-38.5Q386.55-38.5 387.88-38.68 389.2-38.85 390.3-39.2ZM408.3-26.45L408.3-26.45Q412.7-26.45 415.18-23.78 417.65-21.1 417.65-15.45L417.65-15.45 400-15.45 399.95-16.4 412.85-16.4Q412.95-18.85 412.45-20.93 411.95-23 410.88-24.25 409.8-25.5 408.1-25.5L408.1-25.5Q405.8-25.5 404.03-23.2 402.25-20.9 401.9-15.9L401.9-15.9 402.05-15.7Q401.95-14.95 401.9-14.05 401.85-13.15 401.85-12.25L401.85-12.25Q401.85-8.85 402.95-6.4 404.05-3.95 405.83-2.68 407.6-1.4 409.5-1.4L409.5-1.4Q411.75-1.4 413.65-2.5 415.55-3.6 416.85-6.4L416.85-6.4 417.85-6Q417.3-4.35 416.05-2.8 414.8-1.25 412.9-0.28 411 0.7 408.5 0.7L408.5 0.7Q404.9 0.7 402.33-0.95 399.75-2.6 398.38-5.53 397-8.45 397-12.25L397-12.25Q397-16.65 398.4-19.83 399.8-23 402.35-24.73 404.9-26.45 408.3-26.45ZM430.4-26.45L430.4-26.45Q432.4-26.45 433.8-25.8 435.2-25.15 435.85-24.6L435.85-24.6Q437.5-23.25 437.85-26.4L437.85-26.4 439-26.4Q438.9-25 438.85-23.08 438.8-21.15 438.8-17.9L438.8-17.9 437.65-17.9Q437.35-19.75 436.63-21.5 435.9-23.25 434.5-24.38 433.1-25.5 430.85-25.5L430.85-25.5Q429.1-25.5 427.93-24.53 426.75-23.55 426.75-21.65L426.75-21.65Q426.75-20.15 427.65-19.07 428.55-18 430-17.07 431.45-16.15 433.15-15.05L433.15-15.05Q436-13.2 438-11.3 440-9.4 440-6.3L440-6.3Q440-4 438.8-2.45 437.6-0.9 435.68-0.1 433.75 0.7 431.45 0.7L431.45 0.7Q430.35 0.7 429.38 0.53 428.4 0.35 427.5 0L427.5 0Q427-0.25 426.48-0.6 425.95-0.95 425.45-1.35L425.45-1.35Q424.95-1.75 424.55-1.33 424.15-0.9 423.95 0.35L423.95 0.35 422.8 0.35Q422.9-1.25 422.95-3.55 423-5.85 423-9.65L423-9.65 424.15-9.65Q424.5-6.85 425.15-4.75 425.8-2.65 427.2-1.48 428.6-0.3 431.1-0.3L431.1-0.3Q432.6-0.3 434.07-1.35 435.55-2.4 435.55-5.05L435.55-5.05Q435.55-7.25 433.95-8.65 432.35-10.05 429.9-11.6L429.9-11.6Q428.1-12.75 426.52-13.9 424.95-15.05 423.98-16.5 423-17.95 423-20L423-20Q423-22.25 424.02-23.68 425.05-25.1 426.75-25.78 428.45-26.45 430.4-26.45Z" opacity="1" transform="matrix(1,0,0,1,0,0)" fill="#ffffff" class="slogan-text-1" data-fill-palette-color="secondary" id="text-1"></path></svg></g></svg></g></svg></g></svg></g><g></g></svg></g></svg></g></svg></g><g mask="url(#4438b80b-2916-44fd-951d-01a85d0352cf)"><g transform="matrix(3.0238752959747437, 0, 0, 3.0238752959747437, 75.1590549980153, 1)"><svg xmlns="http://www.w3.org/2000/svg" xmlns:xlink="http://www.w3.org/1999/xlink" version="1.1" x="0" y="0" viewBox="8.338250000000002 6.3642500000000055 81.08862502708755 81.088" enable-background="new 0 0 100 100" xml:space="preserve" height="81.088" width="81.08862502708755" class="icon-none" data-fill-palette-color="accent" id="none"><path fill="none" d="M18.85 49.014c8.86 8.86 23.277 8.86 32.137 0 8.86-8.86 8.86-23.277 0-32.137s-23.277-8.86-32.137 0C9.99 25.738 9.99 40.154 18.85 49.014z"></path><path d="M50.302 54.605l31.549 31.549c1.731 1.731 4.547 1.731 6.278 0 1.731-1.731 1.73-4.546 0-6.277L56.579 48.328c7.376-10.378 6.442-24.89-2.855-34.187-10.369-10.369-27.24-10.369-37.609 0-10.369 10.369-10.369 27.241 0 37.61C25.412 61.048 39.923 61.982 50.302 54.605zM52.158 53.166c0.533-0.454 1.063-0.912 1.567-1.416 0.503-0.503 0.961-1.034 1.416-1.567-0.447 0.537-0.912 1.063-1.416 1.567C53.221 52.254 52.694 52.719 52.158 53.166zM56.193 48.854c0.086-0.115 0.17-0.23 0.254-0.345C56.364 48.625 56.277 48.739 56.193 48.854L56.193 48.854zM50.71 54.305c0.039-0.029 0.078-0.057 0.118-0.086l0 0C50.788 54.248 50.75 54.277 50.71 54.305zM18.85 49.014c-8.86-8.86-8.86-23.277 0-32.137 8.86-8.86 23.277-8.86 32.137 0s8.86 23.277 0 32.137C42.127 57.874 27.711 57.874 18.85 49.014z" fill="#ffffff" data-fill-palette-color="accent"></path><g fill="#4e0db3" data-fill-palette-color="accent"><path d="M34.955 43.58c0.458 0 0.85 0.163 1.176 0.488 0.326 0.326 0.488 0.719 0.488 1.176 0 0.483-0.162 0.88-0.488 1.194-0.326 0.314-0.719 0.47-1.176 0.47-0.483 0-0.887-0.157-1.211-0.47-0.326-0.314-0.489-0.711-0.489-1.194 0-0.458 0.163-0.85 0.489-1.176C34.068 43.744 34.472 43.58 34.955 43.58zM36.294 40.613H33.58V21.039h2.714V40.613z" fill="#ffffff" data-fill-palette-color="accent"></path></g></svg></g></g></svg></g><defs></defs></svg><rect width="395.52" height="247.2" fill="none" stroke="none" visibility="hidden"></rect></g></svg></g></svg>