<svg xmlns="http://www.w3.org/2000/svg" version="1.1" xmlns:xlink="http://www.w3.org/1999/xlink" xmlns:svgjs="http://svgjs.dev/svgjs" width="1000" height="623" viewBox="0 0 1000 623"><g transform="matrix(1,0,0,1,-0.6060606060606233,0.2522267206477409)"><svg viewBox="0 0 396 247" data-background-color="#ffffff" preserveAspectRatio="xMidYMid meet" height="623" width="1000" xmlns="http://www.w3.org/2000/svg" xmlns:xlink="http://www.w3.org/1999/xlink"><g id="tight-bounds" transform="matrix(1,0,0,1,0.2400000000000091,-0.09999999999999432)"><svg viewBox="0 0 395.52 247.2" height="247.2" width="395.52"><g><svg></svg></g><g><svg viewBox="0 0 395.52 247.2" height="247.2" width="395.52"><g transform="matrix(1,0,0,1,75.54432,79.18817092052949)"><svg viewBox="0 0 244.43135999999998 88.82365815894102" height="88.82365815894102" width="244.43135999999998"><g><svg viewBox="0 0 244.43135999999998 88.82365815894102" height="88.82365815894102" width="244.43135999999998"><g><svg viewBox="0 0 244.43135999999998 88.82365815894102" height="88.82365815894102" width="244.43135999999998"><g><svg viewBox="0 0 244.43135999999998 88.82365815894102" height="88.82365815894102" width="244.43135999999998"><g id="textblocktransform"><svg viewBox="0 0 244.43135999999998 88.82365815894102" height="88.82365815894102" width="244.43135999999998" id="textblock"><g><svg viewBox="0 0 244.43135999999998 52.3353034601227" height="52.3353034601227" width="244.43135999999998"><g transform="matrix(1,0,0,1,0,0)"><svg width="244.43135999999998" viewBox="0.6499996185302734 -34.29999923706055 162.98001098632812 34.89999771118164" height="52.3353034601227" data-palette-color="#a00000"><path d="M8.95 0.6Q5 0.6 2.83-1.65 0.65-3.9 0.65-8.15L0.65-8.15 0.65-10.4 5.05-10.4 5.05-7.9Q5.05-5.75 6.05-4.6 7.05-3.45 8.95-3.45L8.95-3.45Q10.85-3.45 11.85-4.6 12.85-5.75 12.85-7.9L12.85-7.9 12.85-34.3 17.25-34.3 17.25-8.15Q17.25-3.9 15.08-1.65 12.9 0.6 8.95 0.6L8.95 0.6ZM23.75 0L23.75-34.3 36.75-34.3Q40.6-34.3 43.1-31.98 45.6-29.65 45.6-25.9L45.6-25.9Q45.6-23.05 44.12-20.93 42.65-18.8 40.35-18L40.35-18 40.35-17.8Q43-17 44.7-14.65 46.4-12.3 46.4-9.1L46.4-9.1Q46.4-6.3 45.1-4.25 43.8-2.2 41.6-1.1 39.4 0 36.75 0L36.75 0 23.75 0ZM28.15-19.55L35.45-19.55Q37.9-19.55 39.45-21.13 41-22.7 41-24.95L41-24.95Q41-27.6 39.6-28.95 38.2-30.3 35.75-30.3L35.75-30.3 28.15-30.3 28.15-19.55ZM28.15-4L36.15-4Q38.65-4 40.22-5.5 41.8-7 41.8-9.7L41.8-9.7Q41.8-12.1 40.15-13.83 38.5-15.55 35.85-15.55L35.85-15.55 28.15-15.55 28.15-4ZM58.14 0L58.14-30.3 48.8-30.3 48.8-34.3 71.89-34.3 71.89-30.3 62.55-30.3 62.55 0 58.14 0ZM71.54 0L71.54-5.4 76.54-5.4 76.54 0 71.54 0ZM83.24 0L83.24-34.3 93.89-34.3Q100.04-34.3 103.47-30.05 106.89-25.8 106.89-17.65L106.89-17.65Q106.89-8.95 103.49-4.48 100.09 0 93.89 0L93.89 0 83.24 0ZM87.64-4L93.49-4Q97.64-4 99.97-7.13 102.29-10.25 102.29-16.4L102.29-16.4 102.29-18.9Q102.29-24.5 99.97-27.4 97.64-30.3 93.49-30.3L93.49-30.3 87.64-30.3 87.64-4ZM112.84 0L112.84-34.3 133.99-34.3 133.99-30.3 117.24-30.3 117.24-19.55 131.79-19.55 131.79-15.55 117.24-15.55 117.24-4 134.29-4 134.29 0 112.84 0ZM147.53 0L137.09-34.3 141.94-34.3 150.44-4.85 150.63-4.85 159.38-34.3 163.63-34.3 153.19 0 147.53 0Z" opacity="1" transform="matrix(1,0,0,1,0,0)" fill="#a00000" class="wordmark-text-0" data-fill-palette-color="primary" id="text-0"></path></svg></g></svg></g><g transform="matrix(1,0,0,1,0,64.69041255977463)"><svg viewBox="0 0 244.43135999999998 24.133245599166383" height="24.133245599166383" width="244.43135999999998"><g transform="matrix(1,0,0,1,0,0)"><svg width="244.43135999999998" viewBox="3.5 -43.650001525878906 575.75 56.85000228881836" height="24.133245599166383" data-palette-color="#a00000"><path d="M24.75-8.75Q24.75-10.3 23.5-11.65 22.25-13 20.4-14.13 18.55-15.25 15.4-16.9L15.4-16.9Q11.65-18.85 9.33-20.3 7-21.75 5.38-23.73 3.75-25.7 3.75-28.1L3.75-28.1Q3.75-30.6 5.88-33.48 8-36.35 11.1-38.33 14.2-40.3 16.8-40.3L16.8-40.3Q19.95-40.3 24.13-39.55 28.3-38.8 30.25-37.95L30.25-37.95 30.25-28 27.8-28Q25.45-32.05 22.6-34.3 19.75-36.55 16.6-36.55L16.6-36.55Q13.9-36.55 12.35-34.88 10.8-33.2 10.8-30.55L10.8-30.55Q10.8-28.9 12.08-27.48 13.35-26.05 15.25-24.9 17.15-23.75 20.35-22.1L20.35-22.1Q24.15-20.1 26.38-18.7 28.6-17.3 30.18-15.4 31.75-13.5 31.75-11.15L31.75-11.15Q31.75-8.65 29.48-5.78 27.2-2.9 23.9-0.93 20.6 1.05 17.9 1.05L17.9 1.05Q14.6 1.05 10.05 0.3 5.5-0.45 3.5-1.3L3.5-1.3 3.5-11.25 5.95-11.25Q8.45-7.2 11.63-4.95 14.8-2.7 18.15-2.7L18.15-2.7Q20.15-2.7 21.65-3.55 23.15-4.4 23.95-5.78 24.75-7.15 24.75-8.75L24.75-8.75ZM53.7-27.15Q57.1-27.15 59.77-25.43 62.45-23.7 63.95-20.75 65.45-17.8 65.45-14.2L65.45-14.2Q65.45-10.3 63.07-6.93 60.7-3.55 57.1-1.53 53.5 0.5 50.15 0.5L50.15 0.5Q46.8 0.5 44.12-1.23 41.45-2.95 39.92-5.9 38.4-8.85 38.4-12.45L38.4-12.45Q38.4-16.35 40.77-19.73 43.15-23.1 46.75-25.13 50.35-27.15 53.7-27.15L53.7-27.15ZM50.8-22.6Q45.4-22.6 45.4-14.85L45.4-14.85Q45.4-10.2 47.37-7.1 49.35-4 53.05-4L53.05-4Q55.7-4 57.05-6 58.4-8 58.4-11.85L58.4-11.85Q58.4-16.45 56.42-19.53 54.45-22.6 50.8-22.6L50.8-22.6ZM85.85-2.2L84.7 0.05 70.4 0.05 70.4-1.75 74.85-5.3 74.85-35.4 70.4-38.5 70.4-40.3 79.2-43.65 81.35-43.65 81.35-3.9 85.85-2.2ZM120.99-2.25L119.84 0 109.99 0 109.99-5.05 103.79 0.1Q102.84 0.5 100.99 0.5L100.99 0.5Q97.49 0.5 95.44-1.58 93.39-3.65 93.39-7.2L93.39-7.2 93.39-18.9 88.94-21.5 88.94-23.3 97.74-27.5 99.89-27.5 99.89-9.95Q99.89-7.25 100.74-6.18 101.59-5.1 103.69-5.1L103.69-5.1Q105.14-5.1 106.59-5.65 108.04-6.2 109.99-7.75L109.99-7.75 109.99-18.9 105.54-21.5 105.54-23.3 114.34-27.5 116.49-27.5 116.49-3.9 120.99-2.25ZM144.99-3.9L139.94 0.1Q138.69 0.5 136.89 0.5L136.89 0.5Q132.59 0.5 130.62-1.68 128.64-3.85 128.64-8.4L128.64-8.4 128.64-22.85 123.24-22.85 123.24-25 132.99-36.2 135.14-36.2 135.14-25.15 144.14-25.15 144.14-22.85 135.14-22.85 135.14-8Q135.14-4.05 139.04-4.05L139.04-4.05Q140.09-4.05 141.04-4.48 141.99-4.9 143.49-6L143.49-6 144.99-3.9ZM163.79-2.25L162.64 0 148.34 0 148.34-1.8 152.79-5.35 152.79-19.35 148.34-22.4 148.34-24.2 157.14-27.6 159.29-27.6 159.29-3.9 163.79-2.25ZM155.84-42.6Q157.49-42.6 158.54-41.43 159.59-40.25 159.59-38.55L159.59-38.55Q159.59-37.35 158.84-36.27 158.09-35.2 156.94-34.58 155.79-33.95 154.69-33.95L154.69-33.95Q153.09-33.95 152.04-35.1 150.99-36.25 150.99-38L150.99-38Q150.99-39.2 151.74-40.28 152.49-41.35 153.64-41.98 154.79-42.6 155.84-42.6L155.84-42.6ZM184.04-27.15Q187.44-27.15 190.11-25.43 192.79-23.7 194.29-20.75 195.79-17.8 195.79-14.2L195.79-14.2Q195.79-10.3 193.41-6.93 191.04-3.55 187.44-1.53 183.84 0.5 180.49 0.5L180.49 0.5Q177.14 0.5 174.46-1.23 171.79-2.95 170.26-5.9 168.74-8.85 168.74-12.45L168.74-12.45Q168.74-16.35 171.11-19.73 173.49-23.1 177.09-25.13 180.69-27.15 184.04-27.15L184.04-27.15ZM181.14-22.6Q175.74-22.6 175.74-14.85L175.74-14.85Q175.74-10.2 177.71-7.1 179.69-4 183.39-4L183.39-4Q186.04-4 187.39-6 188.74-8 188.74-11.85L188.74-11.85Q188.74-16.45 186.76-19.53 184.79-22.6 181.14-22.6L181.14-22.6ZM234.23-2.2L233.08 0.05 223.23 0.05 223.23-16.65Q223.23-19.3 222.38-20.38 221.53-21.45 219.43-21.45L219.43-21.45Q217.88-21.45 216.33-20.9 214.78-20.35 212.73-18.8L212.73-18.8 212.73-3.85 217.23-2.2 216.08 0.05 201.78 0.05 201.78-1.75 206.23-5.3 206.23-18.9 201.78-21.55 201.78-23.35 210.68-27.6 212.43-21.25 219.33-26.75Q220.48-27.15 222.13-27.15L222.13-27.15Q225.63-27.15 227.68-25.08 229.73-23 229.73-19.45L229.73-19.45 229.73-3.9 234.23-2.2ZM253.73-5.6Q253.73-6.9 252.23-8.03 250.73-9.15 247.63-10.8L247.63-10.8Q244.98-12.2 243.41-13.2 241.83-14.2 240.71-15.53 239.58-16.85 239.58-18.45L239.58-18.45Q239.58-20.25 241.13-22.3 242.68-24.35 244.96-25.75 247.23-27.15 249.13-27.15L249.13-27.15Q251.48-27.15 254.58-26.58 257.68-26 259.08-25.3L259.08-25.3 259.08-17.45 256.93-17.45Q255.38-20.4 253.33-22.08 251.28-23.75 249.08-23.75L249.08-23.75Q247.63-23.75 246.76-22.98 245.88-22.2 245.88-21.05L245.88-21.05Q245.88-19.6 247.43-18.45 248.98-17.3 252.23-15.55L252.23-15.55Q254.78-14.25 256.33-13.28 257.88-12.3 258.98-11.03 260.08-9.75 260.08-8.2L260.08-8.2Q260.08-6.35 258.46-4.33 256.83-2.3 254.51-0.9 252.18 0.5 250.23 0.5L250.23 0.5Q247.73 0.5 244.26-0.1 240.78-0.7 239.33-1.35L239.33-1.35 239.33-9.25 241.48-9.25Q243.18-6.25 245.53-4.58 247.88-2.9 250.28-2.9L250.28-2.9Q251.83-2.9 252.78-3.7 253.73-4.5 253.73-5.6L253.73-5.6ZM313.38 0.9L310.48 0 280.13 0 280.13-1.8 284.83-5.5 284.83-35.35 279.53-37.05 280.68-39.3 296.38-39.3 296.38-37.5 291.63-33.8 291.63-2.55 304.18-2.55 311.63-13.5 313.38-12.85 313.38 0.9ZM335.27-27.15Q338.67-27.15 341.35-25.43 344.02-23.7 345.52-20.75 347.02-17.8 347.02-14.2L347.02-14.2Q347.02-10.3 344.65-6.93 342.27-3.55 338.67-1.53 335.07 0.5 331.72 0.5L331.72 0.5Q328.37 0.5 325.7-1.23 323.02-2.95 321.5-5.9 319.97-8.85 319.97-12.45L319.97-12.45Q319.97-16.35 322.35-19.73 324.72-23.1 328.32-25.13 331.92-27.15 335.27-27.15L335.27-27.15ZM332.37-22.6Q326.97-22.6 326.97-14.85L326.97-14.85Q326.97-10.2 328.95-7.1 330.92-4 334.62-4L334.62-4Q337.27-4 338.62-6 339.97-8 339.97-11.85L339.97-11.85Q339.97-16.45 338-19.53 336.02-22.6 332.37-22.6L332.37-22.6ZM381.02-22.8L375.32-22.8Q376.67-20.8 376.67-18.55L376.67-18.55Q376.67-15.3 374.02-12.38 371.37-9.45 367.57-8.2L367.57-8.2Q366.27-6.8 366.27-5.3L366.27-5.3Q366.27-4.5 367.47-3.83 368.67-3.15 371.32-2.05L371.32-2.05Q374.82-0.65 376.77 0.55 378.72 1.75 378.72 3.45L378.72 3.45Q378.72 5 376.77 7.35 374.82 9.7 371.95 11.45 369.07 13.2 366.42 13.2L366.42 13.2Q363.52 13.2 359.65 12.25 355.77 11.3 353.17 10.35L353.17 10.35 353.17 2.4 355.32 2.4Q358.07 5.85 360.87 7.63 363.67 9.4 367.22 9.4L367.22 9.4Q368.57 9.4 369.65 8.9 370.72 8.4 371.32 7.63 371.92 6.85 371.92 6.15L371.92 6.15Q371.92 4.85 370.4 3.9 368.87 2.95 365.72 1.55L365.72 1.55Q362.67 0.25 361.12-0.73 359.57-1.7 359.57-2.95L359.57-2.95Q359.57-4.15 361.2-5.4 362.82-6.65 365.07-7.6L365.07-7.6Q363.97-7.5 363.42-7.5L363.42-7.5Q360.72-7.5 358.45-8.68 356.17-9.85 354.85-11.83 353.52-13.8 353.52-16.1L353.52-16.1Q353.52-18.85 355.47-21.43 357.42-24 360.52-25.58 363.62-27.15 366.82-27.15L366.82-27.15Q370.47-27.15 373.17-25.15L373.17-25.15 381.12-25.15 381.02-22.8ZM366.22-11.95Q368.32-11.95 369.45-13 370.57-14.05 370.57-16.15L370.57-16.15Q370.57-19.05 368.72-20.8 366.87-22.55 363.82-22.55L363.82-22.55Q359.52-22.55 359.52-18.5L359.52-18.5Q359.52-15.55 361.37-13.75 363.22-11.95 366.22-11.95L366.22-11.95ZM400.47-2.25L399.32 0 385.02 0 385.02-1.8 389.47-5.35 389.47-19.35 385.02-22.4 385.02-24.2 393.82-27.6 395.97-27.6 395.97-3.9 400.47-2.25ZM392.52-42.6Q394.17-42.6 395.22-41.43 396.27-40.25 396.27-38.55L396.27-38.55Q396.27-37.35 395.52-36.27 394.77-35.2 393.62-34.58 392.47-33.95 391.37-33.95L391.37-33.95Q389.77-33.95 388.72-35.1 387.67-36.25 387.67-38L387.67-38Q387.67-39.2 388.42-40.28 389.17-41.35 390.32-41.98 391.47-42.6 392.52-42.6L392.52-42.6ZM419.72-27.15Q421.82-27.15 424.62-26.58 427.42-26 428.67-25.3L428.67-25.3 428.67-17.25 426.52-17.25Q424.57-19.75 422.07-21.18 419.57-22.6 416.87-22.6L416.87-22.6Q414.67-22.6 413.54-20.63 412.42-18.65 412.42-14.85L412.42-14.85Q412.42-10.25 414.39-7.2 416.37-4.15 420.07-4.15L420.07-4.15Q422.97-4.15 428.42-8.05L428.42-8.05 429.92-5.95 422.32 0.05Q420.17 0.5 417.17 0.5L417.17 0.5Q413.82 0.5 411.14-1.23 408.47-2.95 406.94-5.9 405.42-8.85 405.42-12.45L405.42-12.45Q405.42-16.35 407.64-19.73 409.87-23.1 413.22-25.13 416.57-27.15 419.72-27.15L419.72-27.15ZM451.01-2.25L449.86 0 435.56 0 435.56-1.8 440.01-5.35 440.01-19.35 435.56-22.4 435.56-24.2 444.36-27.6 446.51-27.6 446.51-3.9 451.01-2.25ZM443.06-42.6Q444.71-42.6 445.76-41.43 446.81-40.25 446.81-38.55L446.81-38.55Q446.81-37.35 446.06-36.27 445.31-35.2 444.16-34.58 443.01-33.95 441.91-33.95L441.91-33.95Q440.31-33.95 439.26-35.1 438.21-36.25 438.21-38L438.21-38Q438.21-39.2 438.96-40.28 439.71-41.35 440.86-41.98 442.01-42.6 443.06-42.6L443.06-42.6ZM481.51-6.8L472.91 0.05Q470.76 0.5 467.71 0.5L467.71 0.5Q464.36 0.5 461.69-1.23 459.01-2.95 457.49-5.9 455.96-8.85 455.96-12.45L455.96-12.45Q455.96-16.35 458.33-19.73 460.71-23.1 464.31-25.13 467.91-27.15 471.26-27.15L471.26-27.15Q476.11-27.15 478.79-23.35 481.46-19.55 481.41-13.2L481.41-13.2 463.01-13.2Q463.36-9.2 465.31-6.68 467.26-4.15 470.61-4.15L470.61-4.15Q473.91-4.15 480.01-8.85L480.01-8.85 481.51-6.8ZM468.41-22.6Q463.26-22.6 463.01-15.5L463.01-15.5 474.26-15.5Q473.81-18.05 473.33-19.45 472.86-20.85 471.71-21.73 470.56-22.6 468.36-22.6L468.36-22.6 468.41-22.6ZM501.96-2.2L500.81 0.05 486.51 0.05 486.51-1.75 490.96-5.3 490.96-35.4 486.51-38.5 486.51-40.3 495.31-43.65 497.46-43.65 497.46-3.9 501.96-2.2ZM520.61-2.2L519.46 0.05 505.15 0.05 505.15-1.75 509.61-5.3 509.61-35.4 505.15-38.5 505.15-40.3 513.96-43.65 516.11-43.65 516.11-3.9 520.61-2.2ZM551.1-6.8L542.5 0.05Q540.35 0.5 537.3 0.5L537.3 0.5Q533.95 0.5 531.28-1.23 528.6-2.95 527.08-5.9 525.55-8.85 525.55-12.45L525.55-12.45Q525.55-16.35 527.93-19.73 530.3-23.1 533.9-25.13 537.5-27.15 540.85-27.15L540.85-27.15Q545.7-27.15 548.38-23.35 551.05-19.55 551-13.2L551-13.2 532.6-13.2Q532.95-9.2 534.9-6.68 536.85-4.15 540.2-4.15L540.2-4.15Q543.5-4.15 549.6-8.85L549.6-8.85 551.1-6.8ZM538-22.6Q532.85-22.6 532.6-15.5L532.6-15.5 543.85-15.5Q543.4-18.05 542.93-19.45 542.45-20.85 541.3-21.73 540.15-22.6 537.95-22.6L537.95-22.6 538-22.6ZM572.9-5.6Q572.9-6.9 571.4-8.03 569.9-9.15 566.8-10.8L566.8-10.8Q564.15-12.2 562.57-13.2 561-14.2 559.87-15.53 558.75-16.85 558.75-18.45L558.75-18.45Q558.75-20.25 560.3-22.3 561.85-24.35 564.12-25.75 566.4-27.15 568.3-27.15L568.3-27.15Q570.65-27.15 573.75-26.58 576.85-26 578.25-25.3L578.25-25.3 578.25-17.45 576.1-17.45Q574.55-20.4 572.5-22.08 570.45-23.75 568.25-23.75L568.25-23.75Q566.8-23.75 565.92-22.98 565.05-22.2 565.05-21.05L565.05-21.05Q565.05-19.6 566.6-18.45 568.15-17.3 571.4-15.55L571.4-15.55Q573.95-14.25 575.5-13.28 577.05-12.3 578.15-11.03 579.25-9.75 579.25-8.2L579.25-8.2Q579.25-6.35 577.62-4.33 576-2.3 573.67-0.9 571.35 0.5 569.4 0.5L569.4 0.5Q566.9 0.5 563.42-0.1 559.95-0.7 558.5-1.35L558.5-1.35 558.5-9.25 560.65-9.25Q562.35-6.25 564.7-4.58 567.05-2.9 569.45-2.9L569.45-2.9Q571-2.9 571.95-3.7 572.9-4.5 572.9-5.6L572.9-5.6Z" opacity="1" transform="matrix(1,0,0,1,0,0)" fill="#a00000" class="slogan-text-1" data-fill-palette-color="secondary" id="text-1"></path></svg></g></svg></g></svg></g></svg></g></svg></g></svg></g></svg></g><path d="M223.025 73.188L223.025 13.083 1.992 13.083 1.992 234.117 223.025 234.117 223.025 174.012 218.306 174.012 218.306 229.397 6.711 229.397 6.711 17.803 218.306 17.803 218.306 73.188Z" fill="#a00000" stroke="transparent" data-fill-palette-color="primary"></path></svg></g><defs></defs></svg><rect width="395.52" height="247.2" fill="none" stroke="none" visibility="hidden"></rect></g></svg></g></svg>