<svg xmlns="http://www.w3.org/2000/svg" version="1.1" xmlns:xlink="http://www.w3.org/1999/xlink" xmlns:svgjs="http://svgjs.dev/svgjs" width="1000" height="623" viewBox="0 0 1000 623"><g transform="matrix(1,0,0,1,-0.6060606060606233,0.2522267206477409)"><svg viewBox="0 0 396 247" data-background-color="#ffffff" preserveAspectRatio="xMidYMid meet" height="623" width="1000" xmlns="http://www.w3.org/2000/svg" xmlns:xlink="http://www.w3.org/1999/xlink"><g id="tight-bounds" transform="matrix(1,0,0,1,0.2400000000000091,-0.09999999999999432)"><svg viewBox="0 0 395.52 247.2" height="247.2" width="395.52"><g><svg></svg></g><g><svg viewBox="0 0 395.52 247.2" height="247.2" width="395.52"><g transform="matrix(1,0,0,1,75.54432,82.59229434139526)"><svg viewBox="0 0 244.43135999999998 82.01541131720947" height="82.01541131720947" width="244.43135999999998"><g><svg viewBox="0 0 244.43135999999998 82.01541131720947" height="82.01541131720947" width="244.43135999999998"><g><svg viewBox="0 0 244.43135999999998 82.01541131720947" height="82.01541131720947" width="244.43135999999998"><g><svg viewBox="0 0 244.43135999999998 82.01541131720947" height="82.01541131720947" width="244.43135999999998"><g id="textblocktransform"><svg viewBox="0 0 244.43135999999998 82.01541131720947" height="82.01541131720947" width="244.43135999999998" id="textblock"><g><svg viewBox="0 0 244.43135999999998 49.600860670679275" height="49.600860670679275" width="244.43135999999998"><g transform="matrix(1,0,0,1,0,0)"><svg width="244.43135999999998" viewBox="1.5 -34.95 174.44 35.400000000000006" height="49.600860670679275" data-palette-color="#4e0db3"><path d="M8.4-34.5L12.8-34.5 12.8-7.25Q12.8-3.45 11.08-1.5 9.35 0.45 6.1 0.45L6.1 0.45Q5.45 0.45 4.58 0.38 3.7 0.3 2.88 0.15 2.05 0 1.5-0.2L1.5-0.2 2-3.3 4.5-3.3Q8.4-3.3 8.4-7.1L8.4-7.1 8.4-34.5ZM32.55-34.9L32.55-34.9Q36.8-34.9 39.3-34.13 41.8-33.35 42.92-31.4 44.05-29.45 44.05-25.9L44.05-25.9Q44.05-22.2 42.67-20.25 41.3-18.3 38.2-18L38.2-18 38.2-17.8Q42.05-17.45 43.57-15.1 45.1-12.75 45.1-8.6L45.1-8.6Q45.1-5.05 44-3.1 42.9-1.15 40.47-0.38 38.05 0.4 34.1 0.4L34.1 0.4Q31.15 0.4 29.02 0.38 26.9 0.35 25.1 0.25 23.3 0.15 21.35 0L21.35 0 22.05-3.5Q23.15-3.45 26.22-3.4 29.3-3.35 33.4-3.35L33.4-3.35Q36.15-3.35 37.72-3.83 39.3-4.3 39.97-5.6 40.65-6.9 40.65-9.35L40.65-9.35Q40.65-12.05 39.95-13.5 39.25-14.95 37.6-15.55 35.95-16.15 33.1-16.2L33.1-16.2 22-16.2 22-19.55 33.05-19.55Q35.55-19.6 37.02-20.08 38.5-20.55 39.15-21.83 39.8-23.1 39.8-25.4L39.8-25.4Q39.8-27.75 39.1-29 38.4-30.25 36.77-30.7 35.15-31.15 32.35-31.15L32.35-31.15Q29.9-31.15 27.95-31.15 26-31.15 24.52-31.13 23.05-31.1 22.05-31L22.05-31 21.35-34.5Q23.1-34.7 24.67-34.77 26.25-34.85 28.12-34.88 30-34.9 32.55-34.9ZM21.35-34.5L25.65-34.5 25.65 0 21.35 0 21.35-34.5ZM59.8-34.5L64.2-34.5 64.2 0 59.8 0 59.8-34.5ZM48.7-34.5L75.34-34.5 75.34-30.6 48.7-30.6 48.7-34.5ZM78.69-5.9L80.09-5.9Q80.99-5.9 81.34-5.55 81.69-5.2 81.69-4.3L81.69-4.3 81.69-1.6Q81.69-0.7 81.34-0.35 80.99 0 80.09 0L80.09 0 78.69 0Q77.84 0 77.47-0.35 77.09-0.7 77.09-1.6L77.09-1.6 77.09-4.3Q77.09-5.2 77.47-5.55 77.84-5.9 78.69-5.9L78.69-5.9ZM101.79-34.95L101.79-34.95Q105.49-34.95 108.07-34.05 110.64-33.15 112.22-31.1 113.79-29.05 114.52-25.65 115.24-22.25 115.24-17.25L115.24-17.25Q115.24-12.25 114.52-8.85 113.79-5.45 112.22-3.4 110.64-1.35 108.07-0.45 105.49 0.45 101.79 0.45L101.79 0.45Q98.24 0.45 95.22 0.33 92.19 0.2 89.49 0L89.49 0 91.39-3.6Q93.49-3.55 96.07-3.48 98.64-3.4 101.79-3.4L101.79-3.4Q105.09-3.4 107.04-4.67 108.99-5.95 109.82-8.97 110.64-12 110.64-17.25L110.64-17.25Q110.64-22.5 109.82-25.53 108.99-28.55 107.04-29.85 105.09-31.15 101.79-31.15L101.79-31.15Q98.69-31.15 96.22-31.1 93.74-31.05 91.39-31L91.39-31 89.49-34.5Q92.19-34.7 95.22-34.83 98.24-34.95 101.79-34.95ZM89.49-34.5L93.89-34.5 93.89 0 89.49 0 89.49-34.5ZM129.04-34.55L129.04-34.55Q131.54-34.55 134.06-34.55 136.59-34.55 139.06-34.48 141.54-34.4 143.84-34.25L143.84-34.25 143.64-30.8 129.79-30.8Q128.24-30.8 127.51-30.03 126.79-29.25 126.79-27.5L126.79-27.5 126.79-7Q126.79-5.25 127.51-4.45 128.24-3.65 129.79-3.65L129.79-3.65 143.64-3.65 143.84-0.25Q141.54-0.1 139.06-0.05 136.59 0 134.06 0.03 131.54 0.05 129.04 0.05L129.04 0.05Q125.99 0.05 124.21-1.58 122.44-3.2 122.39-5.95L122.39-5.95 122.39-28.55Q122.44-31.35 124.21-32.95 125.99-34.55 129.04-34.55ZM123.29-16.45L123.29-20 141.69-20 141.69-16.45 123.29-16.45ZM171.39-34.5L175.94-34.5 165.49-1.25Q165.29-0.75 164.84-0.38 164.39 0 163.79 0L163.79 0 159.34 0Q158.69 0 158.24-0.38 157.79-0.75 157.64-1.25L157.64-1.25 147.19-34.5 151.74-34.5 159.89-7.15Q160.14-6.2 160.41-5.28 160.69-4.35 160.89-3.4L160.89-3.4 162.24-3.4Q162.49-4.35 162.74-5.3 162.99-6.25 163.29-7.2L163.29-7.2 171.39-34.5Z" opacity="1" transform="matrix(1,0,0,1,0,0)" fill="#4e0db3" class="wordmark-text-0" data-fill-palette-color="primary" id="text-0"></path></svg></g></svg></g><g transform="matrix(1,0,0,1,0,61.31043345437055)"><svg viewBox="0 0 244.43135999999998 20.704977862838916" height="20.704977862838916" width="244.43135999999998"><g transform="matrix(1,0,0,1,0,0)"><svg width="244.43135999999998" viewBox="1 -37.8 564.24 47.8" height="20.704977862838916" data-palette-color="#4e0db3"><path d="M10.9 0.05L6.75 0 2.45 0.2Q1 0.2 1-0.4L1-0.4Q1-1.1 1.75-1.35L1.75-1.35Q3.35-1.95 4.55-4.03 5.75-6.1 10.58-16.57 15.4-27.05 19.15-35.05L19.15-35.05Q19.5-35.8 19.78-36 20.05-36.2 20.58-36.2 21.1-36.2 21.25-36 21.4-35.8 21.8-34.65 22.2-33.5 22.43-32.9 22.65-32.3 23.15-30.95 23.65-29.6 24.75-26.9 25.85-24.2 29.78-15.08 33.7-5.95 34.3-4.73 34.9-3.5 35.95-2.63 37-1.75 37.77-1.68 38.55-1.6 39.08-1.43 39.6-1.25 39.6-0.65L39.6-0.65Q39.6 0.1 38.25 0.1L38.25 0.1 33.75-0.2 29.1 0Q27.55 0 27.13-0.13 26.7-0.25 26.7-0.65 26.7-1.05 27.1-1.28 27.5-1.5 27.95-1.58 28.4-1.65 28.8-2.02 29.2-2.4 29.2-3.28 29.2-4.15 27.95-7.55 26.7-10.95 25.85-12.55L25.85-12.55Q25.4-13.4 23.8-13.4L23.8-13.4 17.75-13.3 15.1-13.3Q12.85-13.3 12.28-13.05 11.7-12.8 11.33-12 10.95-11.2 10.25-9.78 9.55-8.35 9.3-7.8 9.05-7.25 8.7-6.4L8.7-6.4Q8.05-4.9 8.05-3.9 8.05-2.9 8.63-2.3 9.2-1.7 9.9-1.6L9.9-1.6Q11.75-1.45 11.75-0.65L11.75-0.65Q11.75-0.3 11.6-0.13 11.45 0.05 10.9 0.05L10.9 0.05ZM18.8-28.5Q18.35-28.5 15.95-22.98 13.55-17.45 13.55-16.85 13.55-16.25 14-16.1 14.45-15.95 16.1-15.95L16.1-15.95 17.65-15.95 22.4-16Q24.35-16 24.35-16.73 24.35-17.45 21.9-22.98 19.45-28.5 18.8-28.5L18.8-28.5ZM45.1 4.1L45.1 3.1 45.25-10.7 45.25-11.8Q45.25-15.95 44.87-17.32 44.5-18.7 42.9-18.7L42.9-18.7Q42.05-18.7 41.85-18.82 41.65-18.95 41.65-19.23 41.65-19.5 42.07-19.65 42.5-19.8 43.8-20.2 45.1-20.6 46.8-21.43 48.5-22.25 48.65-22.25L48.65-22.25Q49.3-22.25 49.3-21.6L49.3-21.6 49.1-18.65Q49.1-18.25 49.2-18.25 49.3-18.25 49.67-18.6 50.05-18.95 50.65-19.48 51.25-20 52.1-20.5L52.1-20.5Q54.05-21.7 56.75-21.7L56.75-21.7Q61.2-21.7 63.55-18.78 65.9-15.85 65.9-11.43 65.9-7 62.97-3.28 60.05 0.45 55.15 0.45L55.15 0.45Q52.85 0.45 51.42-0.03 50-0.5 49.45-0.98 48.9-1.45 48.72-1.45 48.55-1.45 48.55-1.05L48.55-1.05 48.55 5.1Q48.55 6.05 49.4 7.45L49.4 7.45Q49.95 8.35 51.07 8.5 52.2 8.65 52.97 8.7 53.75 8.75 53.75 9.38 53.75 10 52.05 10L52.05 10Q51.75 10 50.45 9.9 49.15 9.8 46.85 9.8L46.85 9.8 43.7 9.95Q42.6 9.95 42.3 9.85 42 9.75 42 9.38 42 9 42.47 8.8 42.95 8.6 43.55 8.45 44.15 8.3 44.62 7.23 45.1 6.15 45.1 4.1L45.1 4.1ZM48.55-9.6L48.55-9.6 48.6-7.1Q48.6-5.35 49.35-4.1 50.1-2.85 51.3-2.2L51.3-2.2Q53.5-1.05 55.95-1.05L55.95-1.05Q59.2-1.05 60.92-3.43 62.65-5.8 62.65-9.5 62.65-13.2 60.52-16.2 58.4-19.2 54.8-19.2L54.8-19.2Q52.25-19.2 50.25-17.6L50.25-17.6Q49.2-16.8 48.87-15.43 48.55-14.05 48.55-9.6ZM72.34 4.1L72.34 3.1 72.5-10.7 72.5-11.8Q72.5-15.95 72.12-17.32 71.75-18.7 70.14-18.7L70.14-18.7Q69.3-18.7 69.09-18.82 68.89-18.95 68.89-19.23 68.89-19.5 69.32-19.65 69.75-19.8 71.05-20.2 72.34-20.6 74.05-21.43 75.75-22.25 75.89-22.25L75.89-22.25Q76.55-22.25 76.55-21.6L76.55-21.6 76.34-18.65Q76.34-18.25 76.44-18.25 76.55-18.25 76.92-18.6 77.3-18.95 77.89-19.48 78.5-20 79.34-20.5L79.34-20.5Q81.3-21.7 84-21.7L84-21.7Q88.44-21.7 90.8-18.78 93.14-15.85 93.14-11.43 93.14-7 90.22-3.28 87.3 0.45 82.39 0.45L82.39 0.45Q80.09 0.45 78.67-0.03 77.25-0.5 76.69-0.98 76.14-1.45 75.97-1.45 75.8-1.45 75.8-1.05L75.8-1.05 75.8 5.1Q75.8 6.05 76.64 7.45L76.64 7.45Q77.19 8.35 78.32 8.5 79.44 8.65 80.22 8.7 81 8.75 81 9.38 81 10 79.3 10L79.3 10Q79 10 77.69 9.9 76.39 9.8 74.09 9.8L74.09 9.8 70.94 9.95Q69.84 9.95 69.55 9.85 69.25 9.75 69.25 9.38 69.25 9 69.72 8.8 70.19 8.6 70.8 8.45 71.39 8.3 71.87 7.23 72.34 6.15 72.34 4.1L72.34 4.1ZM75.8-9.6L75.8-9.6 75.84-7.1Q75.84-5.35 76.59-4.1 77.34-2.85 78.55-2.2L78.55-2.2Q80.75-1.05 83.19-1.05L83.19-1.05Q86.44-1.05 88.17-3.43 89.89-5.8 89.89-9.5 89.89-13.2 87.77-16.2 85.64-19.2 82.05-19.2L82.05-19.2Q79.5-19.2 77.5-17.6L77.5-17.6Q76.44-16.8 76.12-15.43 75.8-14.05 75.8-9.6ZM99.39-5.9L99.39-9.6 99.59-30.85Q99.59-32 99.22-32.93 98.84-33.85 98.39-34.05 97.94-34.25 96.39-34.25L96.39-34.25Q95.84-34.25 95.84-34.6 95.84-34.95 95.92-35.1 95.99-35.25 96.24-35.38 96.49-35.5 96.84-35.6L96.84-35.6Q98.29-35.9 99.84-36.65L99.84-36.65Q102.29-37.8 103.04-37.8L103.04-37.8Q103.64-37.8 103.64-36.85L103.64-36.85Q103.64-36.65 103.54-35.7L103.54-35.7Q103.24-32.75 103.24-29.25L103.24-29.25 103.24-26.45 103.14-19.8 103.14-4.9Q103.14-3.85 103.32-3.18 103.49-2.5 104.47-1.88 105.44-1.25 107.19-1.25L107.19-1.25Q107.44-1.25 107.64-1 107.84-0.75 107.84-0.5L107.84-0.5Q107.84 0.2 106.29 0.2L106.29 0.2 101.24-0.15Q99.94-0.15 98.77 0.05 97.59 0.25 97.22 0.25 96.84 0.25 96.62 0.08 96.39-0.1 96.39-0.38 96.39-0.65 96.62-0.83 96.84-1 97.34-1.1L97.34-1.1Q98.84-1.5 99.14-2.33 99.44-3.15 99.44-4.6L99.44-4.6 99.39-5.9ZM120.29 0.3L116.74 0.2 113.19 0.3Q111.19 0.3 111.19-0.38 111.19-1.05 111.94-1.3L111.94-1.3Q111.99-1.3 112.14-1.35L112.14-1.35Q113.29-1.75 113.64-2.55 113.99-3.35 113.99-10.3L113.99-10.3 113.99-14.7Q113.99-16.15 113.64-17 113.29-17.85 112.99-18.05 112.69-18.25 111.97-18.38 111.24-18.5 110.92-18.63 110.59-18.75 110.59-19.03 110.59-19.3 110.72-19.45 110.84-19.6 111.22-19.78 111.59-19.95 111.99-20.1L111.99-20.1Q113.39-20.5 114.29-20.9 115.19-21.3 115.67-21.5 116.14-21.7 116.29-21.8L116.29-21.8Q116.64-21.95 117.14-21.95L117.14-21.95Q117.89-21.95 117.89-21L117.89-21 117.59-18.6 117.59-4.9Q117.59-3.4 118.07-2.55 118.54-1.7 119.07-1.5 119.59-1.3 120.29-1.25 120.99-1.2 121.19-1.2L121.19-1.2Q121.89-1.1 121.89-0.5L121.89-0.5Q121.89 0.35 121.04 0.35L121.04 0.35 120.29 0.3ZM115.89-26.65Q114.89-26.65 114.17-27.7 113.44-28.75 113.44-29.43 113.44-30.1 114.32-31.18 115.19-32.25 115.97-32.25 116.74-32.25 117.49-31.23 118.24-30.2 118.24-29.4 118.24-28.6 117.29-27.63 116.34-26.65 115.89-26.65L115.89-26.65ZM135.04 1.05Q130.34 1.05 127.51-1.8 124.69-4.65 124.69-9.53 124.69-14.4 127.91-17.93 131.14-21.45 136.29-21.45L136.29-21.45Q138.04-21.45 140.06-20.95 142.09-20.45 142.14-19.8L142.14-19.8Q142.24-18.6 142.24-16.93 142.24-15.25 141.69-15.25L141.69-15.25Q141.19-15.25 140.79-15.9L140.79-15.9Q139.94-17.35 137.56-18.43 135.19-19.5 133.39-19.5L133.39-19.5Q132.39-19.5 131.44-18.75 130.49-18 129.89-17.1L129.89-17.1Q128.44-15 128.44-11.15 128.44-7.3 130.91-4.42 133.39-1.55 136.99-1.55L136.99-1.55Q138.74-1.55 140.24-2.2 141.74-2.85 142.56-3.5 143.39-4.15 143.59-4.15L143.59-4.15Q144.14-4.15 144.14-3.65L144.14-3.65Q144.14-3.15 143.09-2.13 142.04-1.1 141.04-0.5L141.04-0.5Q138.59 1.05 135.04 1.05L135.04 1.05ZM153.64 0.75L153.64 0.75Q147.74 0.75 147.74-4.25L147.74-4.25Q147.74-7.85 150.74-9.2L150.74-9.2Q153.24-10.25 158.39-11.1L158.39-11.1Q158.53-11.15 158.78-11.18 159.03-11.2 159.31-11.25 159.59-11.3 159.74-11.35L159.74-11.35Q160.09-11.5 160.09-12.05L160.09-12.05 160.19-14.65Q160.19-17.5 158.53-18.78 156.89-20.05 155.34-20.05L155.34-20.05Q151.74-20.05 151.74-17.05L151.74-17.05 151.94-15.25Q151.94-14.25 151.03-14.25L151.03-14.25Q150.34-14.25 149.49-14.5L149.49-14.5Q147.94-15 147.94-16.2L147.94-16.2Q147.94-18.15 150.56-19.93 153.19-21.7 155.84-21.7 158.49-21.7 159.99-21.2 161.49-20.7 162.21-20.08 162.94-19.45 163.34-18.4L163.34-18.4Q163.84-17.15 163.84-14.48 163.84-11.8 163.71-9.73 163.59-7.65 163.59-5.95 163.59-4.25 163.99-3.18 164.39-2.1 164.94-1.8 165.49-1.5 166.04-1.45L166.04-1.45Q167.39-1.35 167.39-0.65L167.39-0.65Q167.39 0.4 164.24 0.4L164.24 0.4Q162.94 0.4 162.01-0.3 161.09-1 160.69-1.68 160.28-2.35 160.24-2.35 160.19-2.35 159.84-2.02 159.49-1.7 158.86-1.25 158.24-0.8 157.44-0.35L157.44-0.35Q155.59 0.75 153.64 0.75ZM159.74-10.4L159.74-10.4 159.24-10.3Q158.09-10.1 157.78-10.05 157.49-10 156.39-9.75 155.28-9.5 154.86-9.3 154.44-9.1 153.66-8.68 152.89-8.25 152.53-7.8L152.53-7.8Q151.64-6.4 151.64-4.85 151.64-3.3 152.64-2.27 153.64-1.25 155.21-1.25 156.78-1.25 157.71-1.65 158.64-2.05 159.09-2.55 159.53-3.05 159.78-3.9L159.78-3.9Q160.09-4.85 160.09-6.35L160.09-6.35 160.09-9.95Q160.09-10.4 159.74-10.4ZM171.03-18.55L171.03-18.55 170.08-18.5Q169.23-18.5 169.23-19.2L169.23-19.2Q169.23-19.7 169.68-20.05L169.68-20.05Q171.58-21.3 173.48-23.8L173.48-23.8Q174.28-24.95 174.76-25.48 175.23-26 175.73-26 176.23-26 176.23-24.85L176.23-24.85Q176.23-24.85 176.03-22L176.03-22Q176.03-21.3 176.31-21.15 176.58-21 178.08-21L178.08-21 179.83-21Q182.08-21 182.58-21.25L182.58-21.25Q183.48-21.7 183.68-21.7L183.68-21.7Q184.18-21.7 184.18-21.15L184.18-21.15Q184.18-20.75 183.53-19.58 182.88-18.4 182.58-18.4L182.58-18.4Q180.33-18.4 179.43-18.5 178.53-18.6 178.23-18.63 177.93-18.65 177.71-18.68 177.48-18.7 177.38-18.7L177.38-18.7 177.28-18.75Q176.33-18.75 176.06-18.45 175.78-18.15 175.78-17.1L175.78-17.1 175.58-7.8Q175.58-4.55 176.41-3.28 177.23-2 179.88-2L179.88-2Q180.93-2 182.21-2.48 183.48-2.95 183.58-2.95L183.58-2.95Q184.08-2.95 184.08-2.3 184.08-1.65 182.36-0.58 180.63 0.5 178.63 0.5L178.63 0.5Q171.88 0.5 171.88-5.35L171.88-5.35 171.88-6.1 172.08-17.75Q172.08-18.25 171.88-18.4 171.68-18.55 171.03-18.55ZM196.48 0.3L192.93 0.2 189.38 0.3Q187.38 0.3 187.38-0.38 187.38-1.05 188.13-1.3L188.13-1.3Q188.18-1.3 188.33-1.35L188.33-1.35Q189.48-1.75 189.83-2.55 190.18-3.35 190.18-10.3L190.18-10.3 190.18-14.7Q190.18-16.15 189.83-17 189.48-17.85 189.18-18.05 188.88-18.25 188.16-18.38 187.43-18.5 187.11-18.63 186.78-18.75 186.78-19.03 186.78-19.3 186.91-19.45 187.03-19.6 187.41-19.78 187.78-19.95 188.18-20.1L188.18-20.1Q189.58-20.5 190.48-20.9 191.38-21.3 191.86-21.5 192.33-21.7 192.48-21.8L192.48-21.8Q192.83-21.95 193.33-21.95L193.33-21.95Q194.08-21.95 194.08-21L194.08-21 193.78-18.6 193.78-4.9Q193.78-3.4 194.26-2.55 194.73-1.7 195.26-1.5 195.78-1.3 196.48-1.25 197.18-1.2 197.38-1.2L197.38-1.2Q198.08-1.1 198.08-0.5L198.08-0.5Q198.08 0.35 197.23 0.35L197.23 0.35 196.48 0.3ZM192.08-26.65Q191.08-26.65 190.36-27.7 189.63-28.75 189.63-29.43 189.63-30.1 190.51-31.18 191.38-32.25 192.16-32.25 192.93-32.25 193.68-31.23 194.43-30.2 194.43-29.4 194.43-28.6 193.48-27.63 192.53-26.65 192.08-26.65L192.08-26.65ZM212.05 0.9Q206.93 0.9 203.9-2.38 200.88-5.65 200.88-10.2 200.88-14.75 204-18.15 207.13-21.55 212.25-21.55 217.38-21.55 220.85-18.6 224.33-15.65 224.33-10.4 224.33-5.15 220.75-2.13 217.18 0.9 212.05 0.9ZM211.48-20.2Q208.88-20.2 206.85-18.15 204.83-16.1 204.83-11.4 204.83-6.7 207.58-3.65 210.33-0.6 213.5-0.6 216.68-0.6 218.63-2.78 220.58-4.95 220.58-9.15 220.58-13.35 218.18-16.78 215.78-20.2 211.48-20.2L211.48-20.2ZM238.68 0L238.68 0 235.03-0.2Q233.72-0.2 231.58-0.1L231.58-0.1 229.43 0Q228.68 0 228.68-0.45 228.68-0.9 228.93-1 229.18-1.1 229.55-1.15 229.93-1.2 230.28-1.45L230.28-1.45Q231.22-2.05 231.33-5.08 231.43-8.1 231.43-9.05L231.43-9.05 231.43-16.25Q231.43-17.85 230.85-18.4 230.28-18.95 229.28-18.95L229.28-18.95 228.78-18.95Q227.83-18.95 227.83-19.5L227.83-19.5Q227.83-20 228.9-20.15 229.97-20.3 230.6-20.48 231.22-20.65 232.25-21.08 233.28-21.5 233.9-21.8 234.53-22.1 234.72-22.1L234.72-22.1 234.83-22.1Q235.28-22.1 235.28-21.5L235.28-21.5 235.18-19.35Q235.18-18.05 235.38-18.05 235.58-18.05 235.78-18.3L235.78-18.3Q236.53-19.35 237.78-20.1L237.78-20.1Q240.03-21.5 242.08-21.5 244.13-21.5 245.73-20.88 247.33-20.25 248.23-19.33 249.13-18.4 249.73-17.2L249.73-17.2Q250.73-15.2 250.73-13.1L250.73-13.1 250.73-12.6 250.78-9.95 250.78-4.85Q250.78-2.95 251.3-2.23 251.83-1.5 253.83-1.2L253.83-1.2Q254.83-1.05 254.83-0.45L254.83-0.45Q254.83 0.05 253.83 0.05L253.83 0.05 249.73-0.2 245.88 0Q244.88 0 244.88-0.65L244.88-0.65Q244.88-1.1 245.48-1.25L245.48-1.25 246.13-1.4Q247.23-1.75 247.23-4.75L247.23-4.75 247.23-11.5Q247.23-15.35 245.33-17.32 243.43-19.3 241.03-19.3 238.63-19.3 237.03-18.15 235.43-17 235.08-16 234.72-15 234.72-8.35L234.72-8.35 234.72-6.45Q234.72-3.95 235.25-2.75 235.78-1.55 237.58-1.4L237.58-1.4Q238.08-1.4 238.85-1.23 239.63-1.05 239.63-0.65L239.63-0.65Q239.63 0 238.68 0ZM280.92-21.2L286.97-21.1 288.52-21.15Q289.62-21.15 289.62-20.45L289.62-20.45Q289.62-20.1 289.47-20.05L289.47-20.05Q289.17-19.95 288.87-19.95L288.87-19.95Q287.37-19.85 287.37-18.55L287.37-18.55Q287.37-16.7 290.32-10.2L290.32-10.2Q290.72-9.4 291.27-8L291.27-8Q292.37-5.15 292.67-5.15L292.67-5.15Q293.17-5.15 295.3-10.63 297.42-16.1 297.42-17.4 297.42-18.7 297-19.18 296.57-19.65 296.07-19.7L296.07-19.7Q294.67-19.9 294.67-20.7L294.67-20.7Q294.67-21.1 295.72-21.1L295.72-21.1 301.47-21.1Q302.42-21.1 302.67-21 302.92-20.9 302.92-20.45 302.92-20 302.1-19.68 301.27-19.35 300.77-18.65 300.27-17.95 299.87-17.13 299.47-16.3 298.97-15.1L298.97-15.1Q297.47-11.35 295.22-6.6 292.97-1.85 292.75-1.4 292.52-0.95 292.17-0.35L292.17-0.35Q291.67 0.65 291.22 0.65L291.22 0.65Q290.37 0.65 288.02-5.83 285.67-12.3 285.27-12.3L285.27-12.3Q285.12-12.3 282.07-5.9 279.02 0.5 278.07 0.5L278.07 0.5Q277.67 0.5 277.32-0.2 276.97-0.9 275.4-5 273.82-9.1 272.82-11.58 271.82-14.05 271.4-15.28 270.97-16.5 270.77-17L270.77-17Q270.07-18.4 268.42-19.8L268.42-19.8Q268.22-20 267.97-20.13 267.72-20.25 267.62-20.3L267.62-20.3Q267.47-20.45 267.47-20.8L267.47-20.8Q267.47-21.35 268.42-21.35L268.42-21.35 271.97-21.15 274.42-21.2Q275.92-21.2 276.35-21.13 276.77-21.05 276.77-20.65 276.77-20.25 276.22-20.1L276.22-20.1Q274.57-19.75 274.57-18.13 274.57-16.5 277.37-10.2L277.37-10.2Q277.72-9.5 278.32-8.03 278.92-6.55 279.27-5.88 279.62-5.2 279.82-5.2 280.02-5.2 281.1-7.23 282.17-9.25 282.55-10 282.92-10.75 283.12-11.13 283.32-11.5 283.57-11.98 283.82-12.45 283.92-12.68 284.02-12.9 284.15-13.2 284.27-13.5 284.32-13.63 284.37-13.75 284.42-13.98 284.47-14.2 284.47-14.35L284.47-14.35 284.47-14.7Q284.47-15.05 284-16.2 283.52-17.35 283-18.13 282.47-18.9 281.87-19.4 281.27-19.9 280.97-20L280.97-20Q280.17-20.3 280.17-20.75 280.17-21.2 280.92-21.2L280.92-21.2ZM314.92 0.95Q310.52 0.95 307.44-1.75 304.37-4.45 304.37-9.58 304.37-14.7 307.19-18.15 310.02-21.6 314.52-21.6L314.52-21.6Q316.62-21.6 318.34-20.85 320.07-20.1 321.02-19.03 321.97-17.95 322.62-16.75L322.62-16.75Q323.72-14.7 323.72-13.65L323.72-13.65Q323.72-12.75 321.67-12.75L321.67-12.75 308.82-12.75Q308.42-12.75 308.34-12.68 308.27-12.6 308.27-12.2L308.27-12.2Q308.27-7.5 310.79-4.8 313.32-2.1 316.72-2.1L316.72-2.1Q318.82-2.1 320.99-3.23 323.17-4.35 323.27-4.35L323.27-4.35Q323.77-4.35 323.77-3.9L323.77-3.9Q323.77-3.3 322.67-2.27 321.57-1.25 320.57-0.6L320.57-0.6Q318.17 0.95 314.92 0.95L314.92 0.95ZM309.22-13.95L309.22-13.95 318.02-14.25Q318.72-14.25 318.89-14.38 319.07-14.5 319.07-14.85L319.07-14.85Q319.07-16.35 317.67-18.35 316.27-20.35 313.77-20.35 311.27-20.35 309.92-18.38 308.57-16.4 308.57-14.65L308.57-14.65Q308.57-13.95 309.22-13.95ZM328.72 0.2L328.72 0.2 328.92-3.9Q328.92-5.55 329.14-9.8 329.37-14.05 329.37-17.1L329.37-17.1 329.37-29.45Q329.37-34 327.12-34L327.12-34 326.62-34Q325.82-34 325.82-34.5 325.82-35 326.32-35.35 326.82-35.7 327.92-36.08 329.02-36.45 329.22-36.52 329.42-36.6 330.22-37L330.22-37Q331.92-37.8 332.22-37.8 332.52-37.8 332.77-37.55 333.02-37.3 333.02-36.9L333.02-36.9 333.02-35.9 332.97-29.8 332.97-20.55Q332.97-18.75 333.32-18.75L333.32-18.75Q333.52-18.75 333.92-19.28 334.32-19.8 334.89-20.43 335.47-21.05 337.12-21.58 338.77-22.1 341.22-22.1L341.22-22.1Q345.67-22.1 348.14-19 350.62-15.9 350.62-11.75L350.62-11.75Q350.62-9.4 349.39-6.33 348.17-3.25 346.07-1.65L346.07-1.65Q343.17 0.55 339.12 0.55L339.12 0.55Q337.07 0.55 335.32-0.18 333.57-0.9 332.69-1.63 331.82-2.35 331.77-2.35L331.77-2.35Q331.57-2.35 330.79-0.75 330.02 0.85 329.32 0.85L329.32 0.85Q328.72 0.85 328.72 0.2ZM332.97-15.65L332.97-6.6Q332.97-5.25 334.94-3.25 336.92-1.25 340.32-1.25 343.72-1.25 345.54-3.58 347.37-5.9 347.37-9.55 347.37-13.2 344.99-16.3 342.62-19.4 338.57-19.4L338.57-19.4Q336.22-19.4 334.59-18.05 332.97-16.7 332.97-15.65L332.97-15.65ZM407.86-1.25L407.86-1.25 409.66-1.4Q410.31-1.4 410.31-0.95L410.31-0.95Q410.31-0.15 408.89 0.4 407.46 0.95 405.49 0.95 403.51 0.95 401.71 0.43 399.91-0.1 398.66-0.83 397.41-1.55 396.46-2.3 395.51-3.05 394.94-3.58 394.36-4.1 394.21-4.1 394.06-4.1 393.49-3.58 392.91-3.05 391.96-2.27 391.01-1.5 389.66-0.7L389.66-0.7Q386.46 1.1 381.11 1.1L381.11 1.1Q377.56 1.1 374.71 0.08 371.86-0.95 370.19-2.3 368.51-3.65 367.34-6.2 366.16-8.75 366.16-12.1L366.16-12.1Q366.16-13.8 366.74-15.63 367.31-17.45 368.34-18.73 369.36-20 370.89-20.8 372.41-21.6 373.34-21.8 374.26-22 374.26-22.13 374.26-22.25 373.66-22.98 373.06-23.7 372.46-25.18 371.86-26.65 371.86-28.55L371.86-28.55Q371.86-31.85 374.76-33.52 377.66-35.2 381.26-35.2L381.26-35.2Q383.01-35.2 384.56-34.63 386.11-34.05 386.31-34.05L386.31-34.05 387.41-34.2Q388.21-34.2 388.21-33.05L388.21-33.05 388.41-29.65Q388.41-28.2 388.34-27.9 388.26-27.6 387.91-27.6 387.56-27.6 386.81-28.5 386.06-29.4 385.21-30.48 384.36-31.55 382.94-32.45 381.51-33.35 379.59-33.35 377.66-33.35 376.51-32.13 375.36-30.9 375.36-29.58 375.36-28.25 376.74-26.28 378.11-24.3 379.54-22.8 380.96-21.3 384.14-18.13 387.31-14.95 390.81-11.95 394.31-8.95 394.69-8.95 395.06-8.95 395.36-9.4L395.36-9.4Q396.06-10.35 396.06-12.68 396.06-15 395.54-16.13 395.01-17.25 394.61-17.53 394.21-17.8 393.54-18.13 392.86-18.45 392.34-18.5 391.81-18.55 391.56-18.68 391.31-18.8 391.31-19.18 391.31-19.55 391.54-19.65 391.76-19.75 392.56-19.75L392.56-19.75 400.01-19.65Q400.96-19.65 400.96-19L400.96-19Q400.96-18.45 400.01-18.2L400.01-18.2Q399.66-18.1 399.34-17.6 399.01-17.1 398.96-16.35 398.91-15.6 398.81-14.85L398.81-14.85Q398.51-11.7 397.99-10.4 397.46-9.1 397.09-8.35 396.71-7.6 396.71-7.45L396.71-7.45Q396.71-7 399.69-5.13 402.66-3.25 405.71-1.75L405.71-1.75Q406.71-1.25 407.86-1.25ZM372.81-6.4L372.81-6.4Q374.41-4.6 377.31-3.43 380.21-2.25 383.09-2.25 385.96-2.25 388.04-2.98 390.11-3.7 391.16-4.42 392.21-5.15 392.21-5.45L392.21-5.45Q392.21-5.65 390.91-6.63 389.61-7.6 386.61-10.15 383.61-12.7 381.71-14.6L381.71-14.6Q379.11-17.2 377.66-18.65 376.21-20.1 375.99-20.35 375.76-20.6 375.61-20.7 375.46-20.8 375.31-20.9L375.31-20.9Q375.16-21.05 374.91-21.05L374.91-21.05Q373.26-21.05 371.36-18.95 369.46-16.85 369.46-13.5 369.46-10.15 372.81-6.4ZM426.16-10.4L426.16-10.4 426.11-16.5Q426.11-17.7 425.58-18.2 425.06-18.7 424.41-18.7L424.41-18.7Q422.76-18.6 422.76-19.4L422.76-19.4Q422.76-19.85 423.36-20.08 423.96-20.3 425.16-20.55 426.36-20.8 426.91-21.03 427.46-21.25 427.81-21.45 428.16-21.65 428.31-21.7L428.31-21.7Q428.76-21.9 429.36-21.9 429.96-21.9 429.96-20.45L429.96-20.45 429.71-18.35Q429.71-17.75 430.01-17.75L430.01-17.75Q430.06-17.75 430.33-18.13 430.61-18.5 431.08-19.03 431.56-19.55 432.26-20.1L432.26-20.1Q433.96-21.35 436.28-21.35 438.61-21.35 439.96-20.73 441.31-20.1 441.83-19.38 442.36-18.65 442.71-18.03 443.06-17.4 443.13-17.4 443.21-17.4 444.08-18.43 444.96-19.45 446.58-20.48 448.21-21.5 450.01-21.5L450.01-21.5Q453.66-21.5 455.63-19.35 457.61-17.2 457.93-14.13 458.26-11.05 458.26-7.65L458.26-7.65 458.26-6.05Q458.26-3.8 458.51-2.8 458.76-1.8 459.66-1.5L459.66-1.5Q459.71-1.5 460.11-1.43 460.51-1.35 460.81-1.3L460.81-1.3Q461.56-1.15 461.56-0.55L461.56-0.55Q461.56 0.2 459.91 0.2L459.91 0.2 456.61 0 453.01 0.2Q451.81 0.2 451.81-0.33 451.81-0.85 452.86-1.25 453.91-1.65 454.11-2.1L454.11-2.1Q454.31-2.65 454.31-4.4L454.31-4.4 454.31-5.2 454.26-10.5 454.11-13.8Q454.11-14.35 453.96-14.83 453.81-15.3 453.78-15.55 453.76-15.8 453.51-16.15 453.26-16.5 453.21-16.6L453.21-16.6Q453.01-17 452.41-17.6L452.41-17.6Q451.11-19.15 448.66-19.15L448.66-19.15Q447.51-19.15 446.26-18.55 445.01-17.95 444.26-17.32 443.51-16.7 443.51-16.5 443.51-16.3 443.61-15.75L443.61-15.75Q443.81-14.1 443.81-10.1L443.81-10.1 443.81-5.85Q443.81-3.55 444.46-2.48 445.11-1.4 447.26-1.1L447.26-1.1Q447.76-1.05 447.96-0.78 448.16-0.5 448.16-0.3L448.16-0.3Q448.16 0.25 447.21 0.25L447.21 0.25 443.56 0 439.01 0.25Q437.91 0.25 437.91-0.4L437.91-0.4Q437.91-0.75 438.11-0.93 438.31-1.1 438.83-1.3 439.36-1.5 439.53-1.6 439.71-1.7 439.96-2.45 440.21-3.2 440.21-3.95L440.21-3.95 440.21-4.9 440.26-6.9 440.26-9.95 440.21-12.6 440.16-13.1Q440.16-15.75 438.81-17.35 437.46-18.95 435.21-18.95 432.96-18.95 431.31-17.85 429.66-16.75 429.66-15.3L429.66-15.3 429.66-5.2Q429.66-3.4 430.31-2.45 430.96-1.5 431.76-1.38 432.56-1.25 433.21-1.1 433.86-0.95 433.86-0.6L433.86-0.6Q433.86-0.15 433.71 0 433.56 0.15 432.81 0.15L432.81 0.15 428.61 0 424.66 0.15Q423.46 0.15 423.46-0.6L423.46-0.6Q423.46-1.15 424.36-1.3L424.36-1.3Q424.71-1.35 425.11-1.73 425.51-2.1 425.83-3.15 426.16-4.2 426.16-10.4ZM475.18 0.9Q470.05 0.9 467.03-2.38 464-5.65 464-10.2 464-14.75 467.13-18.15 470.25-21.55 475.38-21.55 480.5-21.55 483.98-18.6 487.45-15.65 487.45-10.4 487.45-5.15 483.88-2.13 480.3 0.9 475.18 0.9ZM474.6-20.2Q472-20.2 469.98-18.15 467.95-16.1 467.95-11.4 467.95-6.7 470.7-3.65 473.45-0.6 476.63-0.6 479.8-0.6 481.75-2.78 483.7-4.95 483.7-9.15 483.7-13.35 481.3-16.78 478.9-20.2 474.6-20.2L474.6-20.2ZM492.4 0.2L492.4 0.2 492.6-3.9Q492.6-5.55 492.83-9.8 493.05-14.05 493.05-17.1L493.05-17.1 493.05-29.45Q493.05-34 490.8-34L490.8-34 490.3-34Q489.5-34 489.5-34.5 489.5-35 490-35.35 490.5-35.7 491.6-36.08 492.7-36.45 492.9-36.52 493.1-36.6 493.9-37L493.9-37Q495.6-37.8 495.9-37.8 496.2-37.8 496.45-37.55 496.7-37.3 496.7-36.9L496.7-36.9 496.7-35.9 496.65-29.8 496.65-20.55Q496.65-18.75 497-18.75L497-18.75Q497.2-18.75 497.6-19.28 498-19.8 498.58-20.43 499.15-21.05 500.8-21.58 502.45-22.1 504.9-22.1L504.9-22.1Q509.35-22.1 511.83-19 514.3-15.9 514.3-11.75L514.3-11.75Q514.3-9.4 513.08-6.33 511.85-3.25 509.75-1.65L509.75-1.65Q506.85 0.55 502.8 0.55L502.8 0.55Q500.75 0.55 499-0.18 497.25-0.9 496.38-1.63 495.5-2.35 495.45-2.35L495.45-2.35Q495.25-2.35 494.48-0.75 493.7 0.85 493 0.85L493 0.85Q492.4 0.85 492.4 0.2ZM496.65-15.65L496.65-6.6Q496.65-5.25 498.63-3.25 500.6-1.25 504-1.25 507.4-1.25 509.23-3.58 511.05-5.9 511.05-9.55 511.05-13.2 508.68-16.3 506.3-19.4 502.25-19.4L502.25-19.4Q499.9-19.4 498.28-18.05 496.65-16.7 496.65-15.65L496.65-15.65ZM527.75 0.3L524.2 0.2 520.65 0.3Q518.65 0.3 518.65-0.38 518.65-1.05 519.4-1.3L519.4-1.3Q519.45-1.3 519.6-1.35L519.6-1.35Q520.75-1.75 521.1-2.55 521.45-3.35 521.45-10.3L521.45-10.3 521.45-14.7Q521.45-16.15 521.1-17 520.75-17.85 520.45-18.05 520.15-18.25 519.42-18.38 518.7-18.5 518.37-18.63 518.05-18.75 518.05-19.03 518.05-19.3 518.17-19.45 518.3-19.6 518.67-19.78 519.05-19.95 519.45-20.1L519.45-20.1Q520.85-20.5 521.75-20.9 522.65-21.3 523.12-21.5 523.6-21.7 523.75-21.8L523.75-21.8Q524.1-21.95 524.6-21.95L524.6-21.95Q525.35-21.95 525.35-21L525.35-21 525.05-18.6 525.05-4.9Q525.05-3.4 525.52-2.55 526-1.7 526.52-1.5 527.05-1.3 527.75-1.25 528.45-1.2 528.65-1.2L528.65-1.2Q529.35-1.1 529.35-0.5L529.35-0.5Q529.35 0.35 528.5 0.35L528.5 0.35 527.75 0.3ZM523.35-26.65Q522.35-26.65 521.62-27.7 520.9-28.75 520.9-29.43 520.9-30.1 521.77-31.18 522.65-32.25 523.42-32.25 524.2-32.25 524.95-31.23 525.7-30.2 525.7-29.4 525.7-28.6 524.75-27.63 523.8-26.65 523.35-26.65L523.35-26.65ZM535-5.9L535-9.6 535.2-30.85Q535.2-32 534.82-32.93 534.45-33.85 534-34.05 533.55-34.25 532-34.25L532-34.25Q531.45-34.25 531.45-34.6 531.45-34.95 531.52-35.1 531.6-35.25 531.85-35.38 532.1-35.5 532.45-35.6L532.45-35.6Q533.9-35.9 535.45-36.65L535.45-36.65Q537.9-37.8 538.65-37.8L538.65-37.8Q539.25-37.8 539.25-36.85L539.25-36.85Q539.25-36.65 539.15-35.7L539.15-35.7Q538.85-32.75 538.85-29.25L538.85-29.25 538.85-26.45 538.75-19.8 538.75-4.9Q538.75-3.85 538.92-3.18 539.1-2.5 540.07-1.88 541.05-1.25 542.8-1.25L542.8-1.25Q543.05-1.25 543.25-1 543.45-0.75 543.45-0.5L543.45-0.5Q543.45 0.2 541.9 0.2L541.9 0.2 536.85-0.15Q535.55-0.15 534.37 0.05 533.2 0.25 532.82 0.25 532.45 0.25 532.22 0.08 532-0.1 532-0.38 532-0.65 532.22-0.83 532.45-1 532.95-1.1L532.95-1.1Q534.45-1.5 534.75-2.33 535.05-3.15 535.05-4.6L535.05-4.6 535-5.9ZM556.39 0.95Q551.99 0.95 548.92-1.75 545.84-4.45 545.84-9.58 545.84-14.7 548.67-18.15 551.49-21.6 555.99-21.6L555.99-21.6Q558.09-21.6 559.82-20.85 561.54-20.1 562.49-19.03 563.44-17.95 564.09-16.75L564.09-16.75Q565.19-14.7 565.19-13.65L565.19-13.65Q565.19-12.75 563.14-12.75L563.14-12.75 550.29-12.75Q549.89-12.75 549.82-12.68 549.74-12.6 549.74-12.2L549.74-12.2Q549.74-7.5 552.27-4.8 554.79-2.1 558.19-2.1L558.19-2.1Q560.29-2.1 562.47-3.23 564.64-4.35 564.74-4.35L564.74-4.35Q565.24-4.35 565.24-3.9L565.24-3.9Q565.24-3.3 564.14-2.27 563.04-1.25 562.04-0.6L562.04-0.6Q559.64 0.95 556.39 0.95L556.39 0.95ZM550.69-13.95L550.69-13.95 559.49-14.25Q560.19-14.25 560.37-14.38 560.54-14.5 560.54-14.85L560.54-14.85Q560.54-16.35 559.14-18.35 557.74-20.35 555.24-20.35 552.74-20.35 551.39-18.38 550.04-16.4 550.04-14.65L550.04-14.65Q550.04-13.95 550.69-13.95Z" opacity="1" transform="matrix(1,0,0,1,0,0)" fill="#4e0db3" class="slogan-text-1" data-fill-palette-color="secondary" id="text-1"></path></svg></g></svg></g></svg></g></svg></g></svg></g></svg></g></svg></g><path d="M217.82 76.592L217.82 15.994 2.608 15.994 2.608 231.206 217.82 231.206 217.82 170.608 213.347 170.608 213.347 226.733 7.082 226.733 7.082 20.467 213.347 20.467 213.347 76.592Z" fill="#4e0db3" stroke="transparent" data-fill-palette-color="primary"></path></svg></g><defs></defs></svg><rect width="395.52" height="247.2" fill="none" stroke="none" visibility="hidden"></rect></g></svg></g></svg>