<?xml version="1.0" standalone="no"?>
<!DOCTYPE svg PUBLIC "-//W3C//DTD SVG 20010904//EN"
 "http://www.w3.org/TR/2001/REC-SVG-20010904/DTD/svg10.dtd">
<svg version="1.0" xmlns="http://www.w3.org/2000/svg"
 width="800.000000pt" height="300.000000pt" viewBox="0 0 800.000000 300.000000"
 preserveAspectRatio="xMidYMid meet">

<g transform="translate(0.000000,300.000000) scale(0.100000,-0.100000)"
fill="#000000" stroke="none">
<path d="M750 2453 c0 -144 -15 -329 -31 -383 -5 -19 -11 -138 -13 -265 -2
-126 -8 -279 -14 -340 -6 -60 -12 -139 -14 -173 -2 -46 -7 -66 -18 -72 -17 -9
-16 -74 1 -96 5 -6 7 -24 4 -40 -2 -16 -7 -54 -9 -85 -10 -107 -69 -290 -113
-348 -15 -19 -27 -47 -28 -62 -1 -15 -6 -33 -12 -41 -6 -7 -13 -26 -17 -41 -5
-19 -12 -27 -21 -23 -20 7 -55 -41 -55 -76 0 -19 -4 -28 -12 -26 -8 3 -12 25
-13 56 0 34 -4 52 -12 52 -7 0 -16 6 -20 13 -4 6 -21 19 -37 27 -23 12 -30 12
-33 3 -3 -7 -13 -13 -23 -13 -20 0 -30 -19 -30 -56 0 -20 -5 -24 -30 -24 -20
0 -30 5 -30 15 0 9 -9 15 -25 15 -14 0 -25 5 -25 10 0 16 -57 12 -74 -5 -8 -8
-22 -15 -30 -15 -14 0 -16 -28 -16 -230 l0 -230 4000 0 4000 0 0 210 c0 174
-2 210 -14 210 -11 0 -16 30 -21 140 l-8 140 -109 0 c-78 0 -110 -4 -113 -12
-2 -7 -8 -77 -13 -155 -4 -79 -10 -145 -13 -147 -2 -3 -24 -9 -47 -14 l-42
-10 0 259 c0 153 -4 259 -9 259 -5 0 -16 6 -23 12 -39 36 -128 61 -128 37 0
-14 -43 -39 -67 -39 -10 0 -13 -60 -13 -295 0 -267 -5 -328 -24 -279 -4 10
-13 13 -26 9 -19 -6 -20 -2 -20 129 l0 136 -70 0 -70 0 0 -130 0 -130 -24 0
-25 0 1 373 c0 204 -1 377 -1 383 -2 22 -29 23 -70 2 -31 -15 -55 -19 -106
-16 -39 2 -65 -1 -65 -7 -1 -5 -1 -178 -1 -382 l-1 -373 -49 0 -49 0 0 39 c0
22 -7 46 -15 55 -8 8 -15 20 -15 26 0 7 -6 10 -14 7 -8 -3 -20 1 -26 9 -7 8
-19 14 -26 14 -8 0 -23 6 -34 12 -17 11 -22 10 -30 -2 -7 -12 -15 -9 -47 16
-49 40 -51 55 -52 399 -1 289 -9 438 -22 429 -11 -7 -60 26 -54 36 3 5 1 11
-4 14 -5 4 -12 2 -16 -4 -3 -5 -24 -10 -45 -10 -21 0 -45 -6 -52 -13 -18 -16
-38 -20 -52 -9 -13 11 -86 9 -104 -2 -7 -4 -19 -3 -27 4 -7 6 -31 12 -52 14
-21 2 -52 7 -69 11 -26 6 -32 4 -37 -14 -3 -15 -13 -21 -31 -21 l-26 0 0 -97
c0 -54 -3 -235 -7 -403 -4 -168 -6 -332 -5 -365 1 -33 0 -75 -3 -92 -5 -29
-10 -33 -35 -33 l-30 0 0 396 c0 305 -3 398 -13 408 -7 7 -38 21 -69 30 -54
17 -124 18 -198 3 -14 -3 -47 -8 -75 -12 -63 -8 -125 -21 -132 -29 -4 -3 -6
-148 -5 -321 2 -304 1 -315 -18 -325 -15 -8 -20 -21 -20 -55 0 -25 -4 -45 -9
-45 -5 0 -12 -12 -15 -26 -5 -19 -12 -25 -29 -22 -20 3 -22 10 -25 71 l-3 67
-34 0 c-24 0 -35 5 -35 15 0 9 -9 15 -24 15 -14 0 -27 4 -30 9 -7 11 -56 11
-56 0 0 -5 -13 -9 -30 -9 -19 0 -29 -5 -27 -12 1 -8 -10 -14 -25 -16 -27 -3
-28 -6 -30 -60 -1 -31 -2 -66 -2 -77 -1 -11 -9 -21 -19 -23 -16 -3 -17 31 -17
555 l0 559 -109 33 c-60 18 -113 31 -118 28 -4 -3 -37 -8 -72 -11 -54 -5 -62
-4 -57 9 3 8 1 15 -4 15 -6 0 -10 -7 -10 -15 0 -8 -7 -15 -15 -15 -12 0 -15
-16 -15 -85 0 -69 -3 -85 -15 -85 -11 0 -15 -13 -15 -52 -1 -29 -1 -212 -1
-405 -1 -332 -2 -353 -18 -353 -21 0 -31 41 -31 134 0 50 -4 64 -32 99 -18 22
-33 47 -34 55 -4 21 -40 52 -63 52 -16 0 -22 -9 -27 -40 -4 -22 -12 -40 -18
-40 -7 0 -11 -12 -11 -27 2 -36 -5 -49 -16 -32 -5 8 -9 62 -9 122 0 59 -4 107
-9 107 -5 0 -8 11 -8 24 0 14 -8 32 -16 41 -9 8 -19 24 -22 35 -9 29 -24 25
-36 -10 -12 -34 -29 -40 -29 -11 0 11 -5 23 -10 26 -6 4 -8 15 -5 26 5 14 -1
26 -18 39 -14 11 -28 31 -31 45 -6 23 -26 36 -26 16 0 -4 -11 -24 -24 -44 -14
-20 -26 -45 -28 -57 -5 -34 -23 -28 -26 10 -1 19 -8 45 -14 57 -6 12 -8 28 -5
37 3 8 -1 20 -9 27 -9 7 -24 30 -35 51 -11 21 -23 38 -27 38 -5 0 -16 -18 -26
-41 -10 -22 -24 -43 -32 -46 -8 -3 -14 -19 -14 -39 0 -19 -4 -34 -10 -34 -6 0
-10 -59 -10 -156 0 -138 -2 -158 -17 -170 -16 -11 -18 -32 -18 -176 0 -156 -1
-163 -20 -163 -19 0 -20 7 -20 168 l0 167 -118 0 c-113 0 -120 1 -153 27 -34
26 -37 26 -62 10 l-27 -16 4 -185 c3 -166 2 -186 -13 -186 -14 0 -16 18 -18
128 -5 315 -16 484 -31 494 -6 4 -12 21 -12 39 -1 18 -6 34 -13 37 -7 2 -18 9
-25 16 -16 16 -56 13 -84 -5 -17 -10 -23 -23 -23 -51 0 -25 -5 -38 -14 -38
-10 0 -15 -33 -21 -142 -4 -79 -8 -154 -9 -168 -3 -25 -4 -25 -104 -28 l-102
-3 -1 78 c-3 192 -9 257 -24 266 -8 4 -15 22 -15 40 -1 50 -20 67 -74 67 -32
0 -46 -4 -46 -14 0 -7 -8 -16 -18 -18 -12 -4 -17 -14 -16 -34 1 -16 -2 -33 -6
-39 -7 -9 -30 -399 -30 -510 0 -40 -2 -45 -23 -45 -23 0 -24 -2 -19 -80 l5
-80 -47 0 -46 0 0 146 c0 100 -3 143 -11 139 -5 -4 -18 0 -28 9 -11 10 -25 13
-42 9 -13 -4 -59 -7 -101 -7 -43 -1 -78 -4 -78 -8 0 -5 -13 -8 -30 -8 -29 0
-30 -1 -30 -50 0 -47 -2 -50 -25 -50 -15 0 -25 -6 -25 -14 0 -8 -10 -16 -22
-18 -22 -3 -23 -7 -19 -81 3 -65 1 -77 -13 -77 -9 0 -16 5 -16 10 0 6 -7 10
-15 10 -8 0 -15 -7 -15 -16 0 -9 -6 -14 -12 -11 -10 3 -13 94 -14 406 0 395
-1 404 -21 420 -18 14 -21 28 -22 101 -1 47 -6 87 -12 88 -5 2 -9 12 -9 23 0
11 -7 22 -15 25 -9 4 -15 19 -15 40 0 19 -4 34 -10 34 -6 0 -10 26 -10 59 0
33 -4 63 -10 66 -5 3 -10 24 -10 46 0 52 -16 50 -23 -3 -3 -24 -11 -44 -16
-46 -6 -2 -11 -30 -11 -63 0 -33 -4 -59 -10 -59 -5 0 -10 -13 -10 -30 0 -16
-4 -30 -10 -30 -5 0 -10 -11 -10 -25 0 -14 -7 -28 -15 -31 -12 -5 -15 -25 -15
-95 0 -80 -2 -89 -19 -89 -10 0 -20 -8 -22 -18 -3 -9 -4 -205 -3 -435 l1 -418
-26 3 c-30 3 -28 -5 -30 186 l-1 122 -50 0 c-36 0 -50 4 -50 14 0 8 -16 23
-34 34 -30 18 -39 19 -65 9 -19 -7 -31 -18 -31 -30 0 -9 -7 -20 -15 -23 -12
-5 -15 -26 -15 -104 0 -106 -2 -110 -61 -110 -29 0 -29 -1 -29 -55 0 -30 -4
-55 -9 -55 -5 0 -9 19 -9 42 -1 24 -6 44 -11 46 -6 2 -11 28 -11 57 0 30 -4
57 -10 60 -5 3 -10 35 -10 71 0 35 -4 64 -10 64 -5 0 -12 11 -16 24 -8 32 -45
51 -81 41 -15 -5 -31 -8 -35 -7 -5 1 -8 -54 -8 -121 0 -68 -3 -126 -6 -129
-28 -29 -74 60 -74 143 0 31 -6 51 -16 60 -18 15 -54 91 -74 154 -7 22 -16 47
-21 57 -12 25 -39 176 -40 233 -1 28 3 60 9 72 17 30 15 73 -2 73 -11 0 -16
22 -21 88 -3 48 -11 135 -16 194 -6 60 -12 208 -13 330 -1 137 -6 231 -13 243
-15 28 -23 113 -28 319 -3 99 -7 181 -10 184 -3 3 -5 -53 -5 -125z"/>
</g>
</svg>
